<svg width="51" height="65" fill="none" xmlns="http://www.w3.org/2000/svg"><path d="M49.2106 23.6793a.9197.9197 0 01-.6504-.2694.91987.91987 0 01-.2694-.6504v-5.0589c0-.1208.0237-.2404.07-.352a.91785.91785 0 01.1994-.2984.91944.91944 0 01.2984-.1994.92026.92026 0 01.352-.07c.1208 0 .2404.0238.352.07.1115.0462.2129.114.2984.1994a.91916.91916 0 01.1993.2984.91848.91848 0 01.0701.352v5.0589c0 .2439-.0969.4779-.2694.6504a.91987.91987 0 01-.6504.2694zM49.2106 41.4591c-.244 0-.4779-.097-.6504-.2694a.91987.91987 0 01-.2694-.6504V27.6988c0-.1208.0237-.2404.07-.352a.91785.91785 0 01.1994-.2984.91944.91944 0 01.2984-.1994.92026.92026 0 01.352-.07c.1208 0 .2404.0238.352.07.1115.0462.2129.114.2984.1994a.91916.91916 0 01.1993.2984.91848.91848 0 01.0701.352v12.8405c0 .2439-.0969.4779-.2694.6504a.9203.9203 0 01-.6504.2694zM49.2105 13.681a.91987.91987 0 01-.6504-.2694.9197.9197 0 01-.2694-.6504V8.98084h-8.3334a.91979.91979 0 110-1.8396h9.2532a.91979.91979 0 01.9198.9198v4.70016a.9197.9197 0 01-.2694.6504.9197.9197 0 01-.6504.2694zM33.4387 8.98176H16.7295a.91977.91977 0 01-.6504-1.5702.91988.91988 0 01.6504-.26941h16.7092a.91976.91976 0 01.6504 1.5702.91988.91988 0 01-.6504.26941zM.95856 18.2304a.91978.91978 0 01-.9198-.9198V8.06195a.91978.91978 0 01.9198-.9198h9.24864a.91976.91976 0 01.6504 1.5702.91988.91988 0 01-.6504.26941H1.87836v8.32884a.91979.91979 0 01-.9198.9198zM10.2072 57.2328H.95856a.91978.91978 0 01-.9198-.9198V23.8329a.91978.91978 0 011.5702-.6504.9197.9197 0 01.2694.6504v31.5603h8.32884c.2439 0 .4779.0969.6504.2694a.91987.91987 0 01.2694.6504c0 .2439-.0969.4779-.2694.6504a.91987.91987 0 01-.6504.2694zM33.4387 57.2328H16.7295a.91987.91987 0 01-.6504-.2694.91987.91987 0 01-.2694-.6504c0-.244.0969-.4779.2694-.6504a.91987.91987 0 01.6504-.2694h16.7092c.2439 0 .4779.0969.6504.2694a.9197.9197 0 01.2694.6504c0 .2439-.0969.4779-.2694.6504a.91987.91987 0 01-.6504.2694zM49.2096 57.2328H39.961a.91987.91987 0 01-.6504-.2694.91987.91987 0 01-.2694-.6504c0-.244.0969-.4779.2694-.6504a.91987.91987 0 01.6504-.2694h8.3288v-8.3289c0-.2439.0969-.4779.2694-.6504a.91987.91987 0 01.6504-.2694c.244 0 .4779.0969.6504.2694a.91987.91987 0 01.2694.6504v9.2487c0 .2439-.0969.4779-.2694.6504a.9197.9197 0 01-.6504.2694zM25.0841 41.4618a.9197.9197 0 01-.6504-.2694.9197.9197 0 01-.2694-.6504V23.8329c0-.244.0969-.4779.2694-.6504a.9197.9197 0 01.6504-.2694c.2439 0 .4779.0969.6504.2694a.9197.9197 0 01.2694.6504V40.542a.9197.9197 0 01-.2694.6504.91987.91987 0 01-.6504.2694z" fill="#fff"/><path d="M25.0841 57.2328a.9197.9197 0 01-.6504-.2694.91987.91987 0 01-.2694-.6504v-9.2487c0-.2439.0969-.4779.2694-.6504a.9197.9197 0 01.6504-.2694c.2439 0 .4779.0969.6504.2694a.91987.91987 0 01.2694.6504v9.2487c0 .2439-.0969.4779-.2694.6504a.91987.91987 0 01-.6504.2694zM25.0841 18.2304a.9197.9197 0 01-.6504-.2694.91987.91987 0 01-.2694-.6504V8.06195c0-.24394.0969-.4779.2694-.65039a.91971.91971 0 01.6504-.26941.91976.91976 0 01.9198.9198v9.24865c0 .2439-.0969.4779-.2694.6504a.91987.91987 0 01-.6504.2694z" fill="#fff"/><path d="M22.2511 25.8068a5.23495 5.23495 0 01-2.4235-.5999 5.23425 5.23425 0 01-1.8701-1.654 5.23603 5.23603 0 01-.8916-2.332 5.23626 5.23626 0 01.2899-2.4798 5.23401 5.23401 0 011.4053-2.0635 5.23491 5.23491 0 012.2011-1.1782 5.2347 5.2347 0 012.4965-.0248c.822.1932 1.5851.5823 2.2242 1.1342.0981.0764.1797.172.2399.2809a.9211.9211 0 01.11.3526.92168.92168 0 01-.0376.3675.91997.91997 0 01-.471.5496.91886.91886 0 01-.3574.0934.91805.91805 0 01-.3653-.0547.9181.9181 0 01-.3144-.194 3.39535 3.39535 0 00-1.7406-.797 3.39661 3.39661 0 00-1.8951.2711 3.39613 3.39613 0 00-1.9869 3.0898 3.39613 3.39613 0 001.9869 3.0899 3.39661 3.39661 0 001.8951.2711 3.39616 3.39616 0 001.7406-.797.9203.9203 0 01.3145-.1971.91852.91852 0 01.3667-.0568.92009.92009 0 01.3593.0927.9194.9194 0 01.2935.2272.9203.9203 0 01.1797.3247.9191.9191 0 01.0369.3692.9191.9191 0 01-.1121.3538.92006.92006 0 01-.2427.2807 5.27299 5.27299 0 01-3.4318 1.2804zM3.79155 25.8068a5.27317 5.27317 0 01-3.43179-1.2767.91967.91967 0 01-.35482-.6345.91995.91995 0 01.03685-.3693.91895.91895 0 01.17978-.3246.91947.91947 0 01.29344-.2272.92036.92036 0 01.35933-.0928.92214.92214 0 01.36673.0568.92167.92167 0 01.31444.1971 3.4338 3.4338 0 002.23328.8279 3.39637 3.39637 0 001.57318-.3896 3.39551 3.39551 0 001.2135-1.0742 3.39586 3.39586 0 00.38726-3.1238 3.39585 3.39585 0 00-2.34487-2.1 3.39705 3.39705 0 00-1.62063-.0122 3.39508 3.39508 0 00-1.44172.7404.92144.92144 0 01-.31435.194.92002.92002 0 01-.72274-.0387.91959.91959 0 01-.2918-.2266.91894.91894 0 01-.17916-.323.91993.91993 0 01.07242-.7202.92024.92024 0 01.23988-.2809 5.23767 5.23767 0 014.72366-1.1136 5.23792 5.23792 0 012.20341 1.1784 5.23716 5.23716 0 011.69648 4.547 5.23729 5.23729 0 01-.89308 2.3336 5.23824 5.23824 0 01-1.87267 1.6543 5.23816 5.23816 0 01-2.42601.5984zM27.9171 49.0392a5.27328 5.27328 0 01-3.4318-1.2767.91922.91922 0 01-.2399-.281.91766.91766 0 01-.11-.3526.91809.91809 0 01.0376-.3675.92002.92002 0 01.1791-.3231.92219.92219 0 01.2918-.2265.91886.91886 0 01.3574-.0934.91827.91827 0 01.3654.0547.92016.92016 0 01.3143.194c.4918.4271 1.096.7038 1.7406.797a3.3956 3.3956 0 001.8951-.2711 3.39515 3.39515 0 001.4474-1.2531 3.3956 3.3956 0 00.5396-1.8367c0-.6514-.1873-1.289-.5396-1.8368a3.39649 3.39649 0 00-1.4474-1.2531 3.39649 3.39649 0 00-1.8951-.2711 3.39653 3.39653 0 00-1.7406.797.91838.91838 0 01-.3144.1971.91852.91852 0 01-.3667.0568.91884.91884 0 01-.3594-.0927.919.919 0 01-.2934-.2272.92012.92012 0 01-.1798-.3246.91972.91972 0 01-.0368-.3693.9195.9195 0 01.112-.3538.91903.91903 0 01.2428-.2807 5.23685 5.23685 0 012.2249-1.1369 5.23662 5.23662 0 012.4985.0233 5.23753 5.23753 0 012.2034 1.1781 5.2384 5.2384 0 011.4068 2.065c.2955.7917.395 1.6432.29 2.4817a5.2378 5.2378 0 01-2.7651 3.9881 5.23624 5.23624 0 01-2.4258.5987l-.0009-.0036zM46.3766 49.0392a5.2373 5.2373 0 01-2.4234-.5999 5.23645 5.23645 0 01-1.8702-1.654 5.23582 5.23582 0 01-.6017-4.8118 5.2361 5.2361 0 011.4053-2.0636 5.23456 5.23456 0 012.2012-1.1781 5.2347 5.2347 0 012.4965-.0248c.822.1931 1.5851.5822 2.2241 1.1341a.91903.91903 0 01.2428.2807c.061.1091.0991.2295.1121.3538.0129.1243.0003.25-.0369.3693a.91856.91856 0 01-.1798.3246.919.919 0 01-.2934.2272.91836.91836 0 01-.3593.0927.91873.91873 0 01-.3668-.0568.91838.91838 0 01-.3144-.1971 3.43417 3.43417 0 00-2.2333-.8278 3.3966 3.3966 0 00-1.5732.3895 3.39662 3.39662 0 00-1.2135 1.0743c-.3118.4508-.51.9703-.5774 1.5143a3.39588 3.39588 0 00.1902 1.6095 3.39577 3.39577 0 002.3448 2.1 3.39607 3.39607 0 001.6207.0121 3.39651 3.39651 0 001.4417-.7403.92041.92041 0 01.6573-.1896.92002.92002 0 01.6064.3167.9196.9196 0 01.22.6477.91991.91991 0 01-.288.6206 5.27288 5.27288 0 01-3.4318 1.2767zM33.4387 33.1072H16.7295a.91987.91987 0 01-.6504-.2694.9197.9197 0 01-.2694-.6504c0-.2439.0969-.4779.2694-.6504a.91987.91987 0 01.6504-.2694h16.7092c.2439 0 .4779.0969.6504.2694a.91987.91987 0 01.2694.6504.9197.9197 0 01-.2694.6504.91987.91987 0 01-.6504.2694zM10.2072 33.1072H.95856a.91978.91978 0 01-.6504-1.5702.91978.91978 0 01.6504-.2694h9.24864c.2439 0 .4779.0969.6504.2694a.91987.91987 0 01.2694.6504.9197.9197 0 01-.2694.6504.91987.91987 0 01-.6504.2694zM49.2096 33.1072H39.961a.91987.91987 0 01-.6504-.2694.9197.9197 0 01-.2694-.6504c0-.2439.0969-.4779.2694-.6504a.91987.91987 0 01.6504-.2694h9.2486c.244 0 .4779.0969.6504.2694a.91987.91987 0 01.2694.6504.9197.9197 0 01-.2694.6504.9197.9197 0 01-.6504.2694z" fill="#fff"/><path d="M39.961 33.1073a.92.92 0 01-.8349-.536.91972.91972 0 01.1377-.9826c.4271-.4918.7037-1.096.797-1.7406a3.39661 3.39661 0 00-.2711-1.8951 3.39555 3.39555 0 00-1.2531-1.4473 3.39578 3.39578 0 00-1.8368-.5397 3.3957 3.3957 0 00-1.8367.5397A3.39555 3.39555 0 0033.61 27.953a3.39661 3.39661 0 00-.2711 1.8951c.0932.6446.3699 1.2488.797 1.7406a.9199.9199 0 01.1971.3144.92009.92009 0 01-.0359.7261.919.919 0 01-.2272.2934.91898.91898 0 01-.3247.1798.9191.9191 0 01-.3692.0369.9208.9208 0 01-.3538-.1121.91903.91903 0 01-.2807-.2428 5.2352 5.2352 0 01-1.2238-2.6834 5.23576 5.23576 0 01.4209-2.919 5.23509 5.23509 0 011.9318-2.2285 5.23524 5.23524 0 012.8299-.8307c1.0034 0 1.9857.2883 2.8299.8307a5.23509 5.23509 0 011.9318 2.2285c.4171.9126.5632 1.9258.4209 2.919a5.2352 5.2352 0 01-1.2238 2.6834.91834.91834 0 01-.3137.238.91937.91937 0 01-.3844.0849zM36.6994 16.1304a5.24279 5.24279 0 01-4.7549-3.0663 5.24245 5.24245 0 01-.4205-2.9176 5.24243 5.24243 0 011.2202-2.6834.9197.9197 0 01.6345-.35483.92028.92028 0 01.3693.03685.91991.91991 0 01.5518.47322.9185.9185 0 01.0927.35933.91865.91865 0 01-.0568.36674.9187.9187 0 01-.1971.31443 3.43377 3.43377 0 00-.8278 2.23326 3.39578 3.39578 0 001.4638 2.7867c.4508.3119.9703.51 1.5143.5774.544.0675 1.0962.0022 1.6095-.1901a3.396 3.396 0 001.3381-.9145c.3657-.4083.6271-.8991.7619-1.4304a3.39692 3.39692 0 00.0121-1.6206 3.39593 3.39593 0 00-.7403-1.44176.91837.91837 0 01-.194-.31435.91822.91822 0 01-.0547-.36534.91863.91863 0 01.0934-.35739.92082.92082 0 01.2265-.29182.9203.9203 0 01.3231-.17915.9197.9197 0 01.7201.07242.92056.92056 0 01.281.23989 5.24324 5.24324 0 011.2202 2.6834 5.24334 5.24334 0 01-.4205 2.9176 5.24346 5.24346 0 01-1.9283 2.2296 5.24263 5.24263 0 01-2.8266.8367h-.011zM36.6994 64.3806a5.24279 5.24279 0 01-4.7549-3.0663 5.24245 5.24245 0 01-.4205-2.9176 5.24217 5.24217 0 011.2202-2.6834.91903.91903 0 01.2807-.2428.9195.9195 0 01.3538-.112.91972.91972 0 01.3693.0368.92012.92012 0 01.3246.1798.919.919 0 01.2272.2934c.055.1123.0866.2345.0927.3594a.91852.91852 0 01-.0568.3667.91838.91838 0 01-.1971.3144 3.43384 3.43384 0 00-.8278 2.2333 3.39578 3.39578 0 001.4638 2.7867 3.39588 3.39588 0 003.1238.3872c.5133-.1923.9724-.506 1.3381-.9144.3657-.4083.6271-.8991.7619-1.4304a3.39733 3.39733 0 00.0121-1.6207 3.39651 3.39651 0 00-.7403-1.4417.91863.91863 0 01-.194-.3143.91827.91827 0 01-.0547-.3654.91886.91886 0 01.0934-.3574.92219.92219 0 01.2265-.2918.92002.92002 0 01.3231-.1791.91809.91809 0 01.3675-.0376.91766.91766 0 01.3526.11.91922.91922 0 01.281.2399 5.2429 5.2429 0 011.2206 2.6861 5.2439 5.2439 0 01-.4232 2.9199 5.243 5.243 0 01-1.933 2.229 5.2423 5.2423 0 01-2.8306.8323zM13.4688 40.255a5.2433 5.2433 0 01-2.826-.8368 5.24311 5.24311 0 01-1.928-2.2293 5.24282 5.24282 0 01-.4207-2.9171 5.24309 5.24309 0 011.21955-2.6832.91938.91938 0 01.28092-.2398.91966.91966 0 01.35263-.1101.92168.92168 0 01.3675.0376.91997.91997 0 01.5496.471c.055.1116.0868.2332.0934.3574a.91805.91805 0 01-.0547.3653.9181.9181 0 01-.194.3144 3.39572 3.39572 0 00-.797 1.7406 3.39661 3.39661 0 00.2711 1.8951 3.39555 3.39555 0 001.2531 1.4473 3.3957 3.3957 0 001.8367.5397c.6514 0 1.289-.1874 1.8368-.5397a3.39555 3.39555 0 001.2531-1.4473 3.39661 3.39661 0 00.2711-1.8951 3.39653 3.39653 0 00-.797-1.7406.91838.91838 0 01-.1971-.3144.92009.92009 0 01.0359-.7261.919.919 0 01.2272-.2934.91898.91898 0 01.3247-.1798.9191.9191 0 01.3692-.0369.92006.92006 0 01.6345.3548 5.24386 5.24386 0 011.2203 2.6834 5.24272 5.24272 0 01-.4206 2.9177 5.24279 5.24279 0 01-1.9283 2.2296 5.244 5.244 0 01-2.8265.8367l-.0074-.001zM10.2072 8.98174a.91966.91966 0 01-.38407-.0837.9197.9197 0 01-.31406-.23639 5.23545 5.23545 0 01-.8029-5.60249A5.23565 5.23565 0 0110.638.83069a5.23565 5.23565 0 015.6598 0 5.2353 5.2353 0 011.9318 2.22847 5.23596 5.23596 0 01.4209 2.91908 5.23545 5.23545 0 01-1.2238 2.68341.91981.91981 0 01-1.3284.13819.92087.92087 0 01-.2272-.29343.92028.92028 0 01-.0927-.35934.92037.92037 0 01.0568-.36673.92015.92015 0 01.1971-.31444 3.43317 3.43317 0 00.8278-2.23328 3.39505 3.39505 0 00-.3895-1.57318 3.39654 3.39654 0 00-1.0742-1.2135 3.39623 3.39623 0 00-3.1239-.38726 3.39641 3.39641 0 00-1.338.91443 3.39585 3.39585 0 00-.7619 1.43044 3.39579 3.39579 0 00.7281 3.06235.91955.91955 0 01.2127.47113.91959.91959 0 01-.075.51144.91963.91963 0 01-.3389.39024.91998.91998 0 01-.496.14579l.0037-.00276zM10.2072 57.2328a.91993.91993 0 01-.3842-.0841.92063.92063 0 01-.31393-.2369 5.23593 5.23593 0 01-1.22374-2.6834 5.23542 5.23542 0 01.42084-2.9191 5.236 5.236 0 011.93183-2.2285 5.2361 5.2361 0 012.8299-.8307 5.2361 5.2361 0 012.8299.8307 5.23598 5.23598 0 012.3527 5.1476 5.23594 5.23594 0 01-1.2238 2.6834.92006.92006 0 01-.2807.2427.91863.91863 0 01-.3537.1121.91941.91941 0 01-.3693-.0369.9203.9203 0 01-.3247-.1797.9208.9208 0 01-.2272-.2935.92009.92009 0 01-.0927-.3593.92028.92028 0 01.0568-.3667.9203.9203 0 01.1971-.3145 3.4331 3.4331 0 00.8278-2.2333 3.39466 3.39466 0 00-.3895-1.5731 3.39562 3.39562 0 00-1.0742-1.2135 3.3967 3.3967 0 00-1.5144-.5775 3.39588 3.39588 0 00-1.6095.1902 3.39718 3.39718 0 00-1.338.9144 3.39654 3.39654 0 00-.7619 1.4305 3.39566 3.39566 0 00.7281 3.0623.9193.9193 0 01.2134.4714.91936.91936 0 01-.0748.5119.9197.9197 0 01-.8358.5362l.0037-.0027z" fill="#fff"/></svg>