<svg width="69" height="69" fill="none" xmlns="http://www.w3.org/2000/svg"><path d="M60.803 13.0197h2.1031c.7336 0 1.3285-.5949 1.3285-1.3285s-.5949-1.3285-1.3285-1.3285h-5.0484c-.7336 0-1.3285.5949-1.3285 1.3285v5.0484c0 .7336.5949 1.3286 1.3285 1.3286s1.3285-.595 1.3285-1.3286v-1.4617c4.0311 5.3966 6.2222 11.9445 6.2222 18.7548 0 17.3007-14.075 31.3757-31.3757 31.3757-17.3006 0-31.37564-14.075-31.37564-31.3757 0-17.3006 14.07504-31.37564 31.37564-31.37564 1.2795 0 2.5673.07772 3.8278.2309.7274.08795 1.3907-.43004 1.4792-1.15848.0886-.7283-.4301-1.3907-1.1585-1.47918C36.8147.08422 35.4191 0 34.0327 0 24.9423 0 16.3958 3.54001 9.96797 9.96797 3.54001 16.3958 0 24.9423 0 34.0327c0 9.0905 3.54001 17.637 9.96797 24.0648 6.42783 6.428 14.97433 9.968 24.06473 9.968 9.0905 0 17.637-3.54 24.0648-9.968 6.428-6.4278 9.968-14.9743 9.968-24.0648 0-7.671-2.5628-15.0354-7.2625-21.013z" fill="#fff"/><path d="M14.4109 20.0625c-.6201-.3924-1.4407-.2077-1.8333.4119-3.03289 4.7901-4.37551 10.5509-3.78046 16.2212C9.40096 42.45 11.9909 47.8765 16.09 51.9757c4.9468 4.9468 11.4448 7.4203 17.9429 7.4203 6.4981 0 12.9959-2.4733 17.9429-7.4203 9.8937-9.8937 9.8937-25.992 0-35.8856-4.0929-4.0927-9.5105-6.68172-15.2553-7.29019-5.6598-.59983-11.4144.73229-16.2025 3.75029-.6208.3913-.8067 1.2116-.4156 1.8323.3913.6209 1.2116.8067 1.8323.4156 9.0258-5.68877 20.6062-4.3851 28.1621 3.1708 8.8577 8.8577 8.8577 23.2702 0 32.1279-8.8576 8.8579-23.2703 8.8579-32.1279 0-7.4514-7.4515-8.77466-19.3117-3.1462-28.2009.3923-.62.208-1.4408-.4118-1.8334z" fill="#fff"/><path d="M51.3038 35.3828h1.6384c.7336 0 1.3285-.5949 1.3285-1.3286 0-.7336-.5949-1.3285-1.3285-1.3285h-1.6384c-.7336 0-1.3285.5949-1.3285 1.3285 0 .7337.5948 1.3286 1.3285 1.3286zM13.7948 34.0112c0 .7336.5949 1.3285 1.3285 1.3285h1.6384c.7336 0 1.3285-.5949 1.3285-1.3285s-.5949-1.3285-1.3285-1.3285h-1.6384c-.7336 0-1.3285.5948-1.3285 1.3285zM35.3828 16.7617v-1.6384c0-.7336-.5949-1.3285-1.3285-1.3285s-1.3285.5949-1.3285 1.3285v1.6384c0 .7336.5949 1.3285 1.3285 1.3285s1.3285-.5949 1.3285-1.3285zM32.6827 51.3038v1.6383c0 .7336.5949 1.3285 1.3285 1.3285s1.3285-.5949 1.3285-1.3285v-1.6383c0-.7337-.5949-1.3286-1.3285-1.3286s-1.3285.5948-1.3285 1.3286zM27.3736 25.4946c-.5189-.5186-1.3599-.5186-1.8789 0-.5188.5188-.5188 1.36 0 1.879l4.5025 4.5025c-.345.643-.5412 1.3773-.5412 2.1566 0 2.5237 2.0531 4.5768 4.5768 4.5768 2.5236 0 4.5768-2.0531 4.5768-4.5768 0-.7793-.1964-1.5136-.5413-2.1566l9.0849-9.0849c.5188-.5188.5188-1.36 0-1.879-.5189-.5186-1.3599-.5186-1.8789 0l-9.0849 9.0849c-.643-.345-1.3773-.5412-2.1566-.5412-.7794 0-1.5136.1964-2.1566.5412l-4.5026-4.5025zm8.5789 8.5381c0 1.0586-.8612 1.9197-1.9197 1.9197-1.0586 0-1.9198-.8611-1.9198-1.9197s.8612-1.9197 1.9198-1.9197c1.0585 0 1.9197.8611 1.9197 1.9197zM17.9681 17.9681c.2485-.2471.3905-.5898.3905-.9393 0-.3494-.142-.6908-.3905-.9392-.2471-.247-.5887-.3893-.9393-.3893-.3494 0-.6921.1422-.9392.3893-.247.2471-.3893.5898-.3893.9392 0 .3508.1422.6922.3893.9393.2471.247.5898.3893.9392.3893.3506 0 .6922-.1423.9393-.3893zM43.2355 3.96938c.3509 0 .6936-.14096.9406-.38926.2471-.24711.3894-.58867.3894-.93927 0-.34941-.1421-.69217-.3894-.93927-.247-.24698-.5897-.38926-.9406-.38926-.3494 0-.6922.14215-.9391.38926-.2471.2471-.3894.58986-.3894.93927 0 .35073.1421.69216.3894.93927.2469.2483.5897.38926.9391.38926z" fill="#fff"/></svg>