<svg width="64" height="64" fill="none" xmlns="http://www.w3.org/2000/svg"><path d="M58.4938 22.2824h-3.2172c-.2865-6.0055-2.8739-11.6703-7.2254-15.81909C43.6996 2.31448 37.918 0 31.9057 0c-6.0124 0-11.794 2.31448-16.1455 6.46331-4.3515 4.14879-6.93888 9.81359-7.22543 15.81909H5.31761a5.32431 5.32431 0 00-3.75825 1.5593A5.32413 5.32413 0 000 27.6v8.5082c.00169 1.4098.56248 2.7614 1.55936 3.7582a5.32399 5.32399 0 003.75825 1.5594h4.2541a3.19049 3.19049 0 002.25609-.9345 3.19074 3.19074 0 00.9345-2.2561V25.473a3.19075 3.19075 0 00-.5763-1.8146 3.19042 3.19042 0 00-1.5072-1.1633c.2128-5.4873 2.5423-10.679 6.4998-14.48608 3.9576-3.80705 9.2357-5.93362 14.7271-5.93362 5.4914 0 10.7695 2.12657 14.727 5.93362 3.9576 3.80708 6.2871 8.99878 6.4998 14.48608a3.19064 3.19064 0 00-1.5071 1.1633 3.19 3.19 0 00-.5763 1.8146v12.7622a3.19 3.19 0 00.5893 1.8343c.3807.5361.9178.9414 1.5377 1.1606v3.3863c-.0054 3.508-1.3437 6.8829-3.7438 9.4414-2.4001 2.5585-5.6827 4.1094-9.1833 4.3386a4.25365 4.25365 0 00-1.5135-2.2629 4.25406 4.25406 0 00-2.5757-.8819h-8.5082c-1.1283 0-2.2103.4482-3.0081 1.246a4.25402 4.25402 0 00-1.246 3.0081 4.2542 4.2542 0 001.246 3.0081 4.25402 4.25402 0 003.0081 1.246h8.5082a4.25432 4.25432 0 002.6163-.9097 4.25408 4.25408 0 001.5016-2.3277c4.0596-.2379 7.8753-2.0166 10.6677-4.9727 2.7925-2.9561 4.3512-6.8668 4.3578-10.9333v-3.1906h3.1906a5.3239 5.3239 0 003.7582-1.5594c.9969-.9968 1.5577-2.3484 1.5594-3.7582V27.6a5.32414 5.32414 0 00-1.5594-3.7583c-.9969-.9968-2.3484-1.5576-3.7582-1.5593zM6.38114 39.2988H5.31761a3.19077 3.19077 0 01-2.25607-.9345 3.1907 3.1907 0 01-.93449-2.2561V27.6c0-.8462.33614-1.6577.93449-2.2561a3.19077 3.19077 0 012.25607-.9345h1.06353v14.8894zm4.25406-1.0636a1.06351 1.06351 0 01-1.06349 1.0636H8.50818V24.4094h1.06353a1.06351 1.06351 0 011.06349 1.0636v12.7622zm25.5246 23.3975h-8.5082c-.5641 0-1.1052-.2241-1.5041-.623a2.12688 2.12688 0 01-.6229-1.504c0-.5641.224-1.1052.6229-1.5041.3989-.3989.94-.623 1.5041-.623h8.5082c.5641 0 1.1051.2241 1.504.623.3989.3989.623.94.623 1.5041s-.2241 1.1051-.623 1.504c-.3989.3989-.9399.623-1.504.623zm19.1434-22.3339h-1.0635c-.2821 0-.5526-.1121-.7521-.3115a1.06393 1.06393 0 01-.3115-.7521V25.473c0-.2821.1121-.5526.3115-.7521.1995-.1994.47-.3115.7521-.3115h1.0635v14.8894zm6.3811-3.1906a3.1905 3.1905 0 01-.9345 2.2561 3.1905 3.1905 0 01-2.256.9345h-1.0636V24.4094h1.0636c.8462 0 1.6577.3362 2.256.9345a3.1905 3.1905 0 01.9345 2.2561v8.5082z" fill="#fff"/><path d="M46.795 31.8541c0-2.9448-.8732-5.8235-2.5093-8.2721a14.88967 14.88967 0 00-6.6821-5.4838 14.88899 14.88899 0 00-8.6027-.8473 14.88995 14.88995 0 00-7.6236 4.0749 14.8891 14.8891 0 00-4.0748 7.6235 14.88979 14.88979 0 00.8472 8.6027 14.88947 14.88947 0 0013.756 9.1914c3.9476-.0042 7.7323-1.5742 10.5237-4.3656 2.7913-2.7914 4.3614-6.5761 4.3656-10.5237zm-27.6516 0c0-2.5241.7485-4.9916 2.1508-7.0903a12.76286 12.76286 0 015.7276-4.7005 12.76203 12.76203 0 017.3737-.7262 12.7626 12.7626 0 016.5345 3.4927 12.7626 12.7626 0 013.4927 6.5345 12.76203 12.76203 0 01-.7262 7.3737 12.76286 12.76286 0 01-4.7005 5.7276 12.7624 12.7624 0 01-7.0903 2.1508c-3.3837-.0037-6.6277-1.3494-9.0203-3.742-2.3926-2.3926-3.7383-5.6366-3.742-9.0203z" fill="#fff"/><path d="M40.1023 25.1614l-1.5039-1.5039-6.6927 6.6928-3.5022-3.5022-1.5038 1.5038 5.006 5.006 8.1966-8.1965z" fill="#fff"/></svg>