<svg width="52" height="62" viewBox="0 0 52 62" fill="none" xmlns="http://www.w3.org/2000/svg">
<path d="M33.1303 27.7429L33.1302 27.7429L33.1247 27.7506C31.7094 29.7032 31.6994 32.3854 33.1314 34.2584C33.1317 34.2589 33.132 34.2593 33.1324 34.2598L51.036 57.997C51.0363 57.9973 51.0365 57.9976 51.0367 57.9979C52.4674 59.9134 50.2857 62.3411 48.2693 61.2048C48.2686 61.2044 48.2679 61.204 48.2672 61.2036L2.67415 34.8374C2.67397 34.8373 2.67379 34.8372 2.67361 34.8371C-0.224717 33.1528 -0.224538 28.8466 2.67415 27.1626L48.2672 0.796383C48.2678 0.796016 48.2685 0.795654 48.2691 0.795288C50.2856 -0.341278 52.4675 2.08666 51.0366 4.00219C51.0364 4.00245 51.0362 4.0027 51.0361 4.00295L33.1303 27.7429Z" stroke="#A634EC"/>
</svg>
