<svg width="45" height="65" fill="none" xmlns="http://www.w3.org/2000/svg"><path d="M6.38066 8.90519a.9198.9198 0 01-.68617-1.53147 21.3083 21.3083 0 012.04748-2.00058.92.92 0 01.66942-.21801.9198.9198 0 01.6275.31919.91982.91982 0 01-.10118 1.29692 19.56717 19.56717 0 00-1.87088 1.82673.91962.91962 0 01-.68617.30722zM32.7331 48.9626H11.688a.9197.9197 0 01-.6504-.2694.9198.9198 0 01-.2695-.6504v-.929c0-4.519-1.03933-5.5951-3.10889-7.7392a36.39961 36.39961 0 01-3.39867-3.9395A22.19233 22.19233 0 01.00001 23.8529l.9198-.0745h.9198a20.32793 20.32793 0 003.90641 10.5667 34.44427 34.44427 0 003.23955 3.7519c2.18363 2.2609 3.62583 3.7546 3.62583 9.0141v.0092h19.2019v-.8831c0-4.8896 1.3447-6.1553 3.3802-8.0703a26.72156 26.72156 0 003.2561-3.5247c2.7304-3.5452 4.2043-7.8976 4.1897-12.3723a20.43385 20.43385 0 00-1.7877-8.3549 20.43328 20.43328 0 00-5.0478-6.89344 20.43277 20.43277 0 00-7.4252-4.22684 20.4331 20.4331 0 00-8.5044-.82119 19.72733 19.72733 0 00-5.4222 1.39718.92.92 0 01-.7041.00174.91977.91977 0 01-.499-.49659.91953.91953 0 01-.0018-.70404.92007.92007 0 01.4966-.49907 21.56561 21.56561 0 015.9281-1.5278 22.2707 22.2707 0 019.2686.89682 22.27054 22.27054 0 018.0916 4.60821 22.27087 22.27087 0 017.447 16.61992c.0169 4.8796-1.5901 9.626-4.5678 13.4917a28.68694 28.68694 0 01-3.4566 3.7482c-1.9187 1.8092-2.8017 2.6352-2.8017 6.7302v1.8028a.9197.9197 0 01-.2694.6504.91987.91987 0 01-.6504.2694zM1.79085 16.9627a.93699.93699 0 01-.26766-.0396.91966.91966 0 01-.31654-.1694.91966.91966 0 01-.29605-.9785 21.23148 21.23148 0 011.05686-2.7594.9202.9202 0 01.51746-.4776.92002.92002 0 01.70358.0283.91974.91974 0 01.47754.5174.92002.92002 0 01-.02822.7036 19.25149 19.25149 0 00-.96671 2.5212.92019.92019 0 01-.33201.4725.91995.91995 0 01-.54825.1815z" fill="#fff"/><path d="M33.3401 54.8218H11.0855a3.85085 3.85085 0 01-1.49201-.2759 3.84924 3.84924 0 01-1.26964-.8307 3.8506 3.8506 0 01-.85024-1.2566 3.8512 3.8512 0 010-2.9751 3.85206 3.85206 0 01.85024-1.2567 3.85238 3.85238 0 011.26964-.8307 3.85076 3.85076 0 011.49201-.2758h22.2546a3.85067 3.85067 0 012.7616 1.1065c.364.3584.653.7856.8503 1.2567.1972.4711.2988.9768.2988 1.4875 0 .5108-.1016 1.0164-.2988 1.4876a3.85014 3.85014 0 01-.8503 1.2566 3.84887 3.84887 0 01-1.2696.8307c-.4741.19-.9813.2838-1.492.2759zm-22.25-5.8619a2.01242 2.01242 0 00-.783.1405 2.01213 2.01213 0 00-1.1144 1.0909 2.01119 2.01119 0 00-.15726.7797c0 .2678.05346.5329.15726.7798.1038.2468.25585.4705.44721.6578a2.01186 2.01186 0 001.45019.5736h22.25c.2677.0057.5339-.0421.7829-.1406s.4759-.2457.6673-.433c.1913-.1873.3434-.411.4472-.6578.1038-.2469.1572-.512.1572-.7798a2.01113 2.01113 0 00-.6044-1.4375 2.0129 2.0129 0 00-.6673-.4331 2.01193 2.01193 0 00-.7829-.1405h-22.25z" fill="#fff"/><path d="M22.2105 64.3877c-2.5183-.0029-4.9327-1.0046-6.7134-2.7853-1.7808-1.7808-2.7825-4.1951-2.7854-6.7135v-.9869c0-.244.0969-.4779.2694-.6504a.9197.9197 0 01.6504-.2694h17.158c.244 0 .4779.0969.6504.2694a.9197.9197 0 01.2694.6504v.9869c-.0029 2.5184-1.0046 4.9327-2.7853 6.7135-1.7808 1.7807-4.1951 2.7824-6.7135 2.7853zm-7.6592-9.5659v.0671c0 1.0059.1981 2.0018.583 2.9311a7.65964 7.65964 0 001.6603 2.4848 7.66006 7.66006 0 002.4849 1.6603 7.659 7.659 0 002.931.583c1.0058 0 2.0018-.1981 2.9311-.583a7.65964 7.65964 0 002.4848-1.6603 7.65964 7.65964 0 001.6603-2.4848 7.6595 7.6595 0 00.583-2.9311v-.0671H14.5513zM23.8432 36.7936h-3.2653a1.32546 1.32546 0 01-.8834-.3362 1.32523 1.32523 0 01-.4347-.8393l-.1389-1.2371a12.48665 12.48665 0 01-3.4272-1.4183l-.9713.7744a1.32196 1.32196 0 01-.9007.2881 1.32228 1.32228 0 01-.8626-.3874l-2.3096-2.3096a1.32363 1.32363 0 01-.3867-.8627c-.0184-.3253.084-.646.2874-.9006l.7744-.9713a12.48793 12.48793 0 01-1.4183-3.4272l-1.2353-.1389a1.32518 1.32518 0 01-.84042-.4342 1.32522 1.32522 0 01-.33693-.8839v-3.2653a1.32551 1.32551 0 01.33727-.8842 1.32568 1.32568 0 01.841-.4338l1.23438-.1389a12.48665 12.48665 0 011.4183-3.4272l-.7744-.9713a1.32341 1.32341 0 01-.2874-.9013c.0185-.3256.1565-.6329.3876-.8629l2.3087-2.3087c.2301-.2312.5376-.3692.8633-.3873.3256-.0182.6465.0847.9009.2889l.9704.7735a12.48456 12.48456 0 013.4272-1.41833l.1389-1.2353a1.3259 1.3259 0 01.4344-.84018 1.32633 1.32633 0 01.8837-.33717h3.2653a1.3254 1.3254 0 011.318 1.17551l.1389 1.23714a12.48456 12.48456 0 013.4272 1.41833l.9713-.7745c.2545-.2038.5752-.3063.9007-.288.3255.0183.6327.1563.8626.3874l2.3096 2.3096c.2307.2301.3684.5373.3868.8626.0183.3254-.084.6461-.2874.9007l-.7745.9713a12.48356 12.48356 0 011.4183 3.4272l1.2353.1389c.324.0364.6232.191.8404.4341.2172.2432.3372.5579.337.8839v3.2653a1.3255 1.3255 0 01-.3373.8842 1.32526 1.32526 0 01-.841.4339l-1.2344.1389a12.48484 12.48484 0 01-1.4183 3.4272l.7745.9713a1.32372 1.32372 0 01-.1003 1.7642l-2.3087 2.3087c-.2302.231-.5376.3688-.8633.387a1.32238 1.32238 0 01-.9009-.2886l-.9704-.7735a12.48665 12.48665 0 01-3.4272 1.4183l-.1389 1.2353c-.0366.3239-.1912.623-.4343.8402a1.3264 1.3264 0 01-.8837.3371zm-2.8064-1.8396h2.3474l.1619-1.4312a.91973.91973 0 01.7358-.8002 10.74142 10.74142 0 003.9883-1.6501.92013.92013 0 01.5511-.1568.9202.9202 0 01.537.2l1.1304.895 1.6557-1.6557-.8968-1.1249a.9202.9202 0 01-.2-.537.92013.92013 0 01.1568-.5511 10.74309 10.74309 0 001.6501-3.9883.91973.91973 0 01.2798-.4988.91926.91926 0 01.5204-.237l1.4331-.1674v-2.3474l-1.4313-.1619a.91973.91973 0 01-.8002-.7358 10.74142 10.74142 0 00-1.6501-3.9883.91936.91936 0 01-.1567-.5511.91942.91942 0 01.1999-.537l.895-1.1304-1.6557-1.6557-1.1249.8968a.91995.91995 0 01-.537.2.92013.92013 0 01-.5511-.1568 10.74142 10.74142 0 00-3.9883-1.6501.92008.92008 0 01-.4988-.2798.91926.91926 0 01-.237-.5204l-.1674-1.43307h-2.3474l-.1618 1.43117a.91997.91997 0 01-.7359.8003 10.74142 10.74142 0 00-3.9883 1.6501.91936.91936 0 01-.5511.1567.92034.92034 0 01-.537-.1999l-1.1304-.895-1.6557 1.6557.8968 1.1249a.91923.91923 0 01.2.5369.91946.91946 0 01-.1567.5512 10.7416 10.7416 0 00-1.6502 3.9883.91965.91965 0 01-.2797.4988.91984.91984 0 01-.5205.237l-1.43304.1674v2.3474l1.43124.1618a.91998.91998 0 01.8002.7359 10.74142 10.74142 0 001.6501 3.9883.92013.92013 0 01.1568.5511.92045.92045 0 01-.2.537l-.895 1.1304 1.6557 1.6557 1.1249-.8968a.91953.91953 0 01.537-.2.91936.91936 0 01.5511.1567 10.74327 10.74327 0 003.9883 1.6502.91895.91895 0 01.4988.2797.91984.91984 0 01.237.5205l.1674 1.433z" fill="#fff"/><path d="M22.2105 30.355a8.2781 8.2781 0 01-4.5991-1.3951 8.27851 8.27851 0 01-3.049-3.7152 8.2787 8.2787 0 01-.4711-4.7829 8.2787 8.2787 0 012.2656-4.2386 8.27762 8.27762 0 014.2386-2.2656 8.27787 8.27787 0 014.7829.4711 8.27777 8.27777 0 013.7152 3.0489 8.27866 8.27866 0 011.3951 4.5992c-.0026 2.1947-.8757 4.2987-2.4276 5.8506-1.5519 1.5519-3.6559 2.4249-5.8506 2.4276zm0-14.7169a6.4393 6.4393 0 00-3.5771 1.0851 6.43882 6.43882 0 00-2.3714 2.8896 6.4392 6.4392 0 00-.3664 3.7201 6.43853 6.43853 0 001.7621 3.2967 6.4396 6.4396 0 003.2967 1.7621 6.4392 6.4392 0 003.7201-.3664 6.4392 6.4392 0 002.8895-2.3714 6.43875 6.43875 0 001.0851-3.5771c-.0019-1.7071-.6809-3.3436-1.888-4.5507-1.207-1.207-2.8436-1.886-4.5506-1.888z" fill="#fff"/></svg>