<svg width="602" height="689" viewBox="0 0 602 689" fill="none" xmlns="http://www.w3.org/2000/svg">
<path d="M218.902 -183.232C273.871 -219.104 337.596 -244.711 403.129 -244.572C468.662 -244.433 536.214 -215.465 572.971 -161.124C603.692 -115.426 610.084 -54.3126 589.258 -3.40754C557.44 74.2401 474.247 117.256 426.238 186.26C379.834 253.159 370.868 337.96 358.498 418.504C346.127 499.048 326.066 584.436 265.59 638.91C228.863 671.949 179.063 690.132 129.572 688.633C47.8051 686.156 -24.1923 632.132 -74.7912 567.834C-92.4018 545.609 -107.961 521.754 -118.367 495.44C-145.748 426.614 -134.852 348.948 -120.728 276.303C-109.565 219.567 -96.5292 161.965 -67.1249 112.243C-41.7799 69.3203 -5.45097 34.2687 30.095 -0.34518C76.5785 -45.2426 124.013 -91.0342 181.547 -120.367C208.594 -134.162 238.144 -144.344 268.427 -143.58C298.71 -142.817 329.689 -129.879 347.222 -105.195C363.863 -81.4617 366.054 -48.3201 352.483 -22.7325C341.852 -2.594 323.402 11.7695 308.098 28.8435C270.169 70.7694 252.69 127.775 246.316 183.887C239.942 239.999 243.236 296.865 241.155 353.415C238.844 417.341 229.611 481.212 213.515 543.183C208.258 563.638 201.753 584.671 188.163 601.028C160.499 634.496 108.962 639.396 68.6901 623.561C28.4179 607.727 -2.71716 575.247 -30.9176 542.395C-54.959 514.283 -78.8944 482.79 -82.5075 445.914C-84.8203 421.537 -77.9112 397.44 -71.0213 373.958C-45.3983 287.815 -13.4348 195.711 60.9263 144.889C77.1184 133.842 97.5563 124.769 115.788 132.09C129.774 137.436 138.74 150.784 144.93 164.356C163.816 204.772 165.445 250.973 164.97 295.571C164.402 357.859 160.751 420.36 153.727 482.452C149.901 516.181 141.766 554.855 111.884 570.719C93.1129 580.611 69.4917 578.357 50.5638 568.707C31.6359 559.058 16.9161 542.767 5.00135 525.33C-5.58309 509.625 -14.4238 492.281 -17.8418 473.717C-22.7144 447.571 -16.6312 420.372 -9.51537 394.589C0.367936 359.044 15.1171 320.416 48.2405 304.189C60.2727 298.246 75.4121 296.243 86.7323 303.201C99.4116 310.969 103.522 327.093 105.677 341.773C111.134 378.706 109.949 416.514 102.337 453.205C98.8824 470.176 93.4149 487.548 81.3292 500.104C69.2435 512.661 48.7531 518.501 33.9605 509.438C14.1875 497.302 15.2517 468.258 21.1809 445.978C24.8373 432.397 31.6255 417.065 45.4154 413.944C61.0593 410.572 75.1546 427.152 75.5758 443.164C75.9969 459.176 67.2347 473.679 58.8089 487.269C55.0859 493.156 48.7164 500.04 42.3478 497.078C37.497 494.777 36.6282 488.136 37.4165 482.621C38.8633 470.82 43.9893 459.437 51.6558 450.439C59.9213 456.689 60.8662 470.717 53.2574 477.871" stroke="#5A609B" stroke-width="0.5" stroke-miterlimit="10"/>
</svg>
