<svg width="651" height="519" viewBox="0 0 651 519" fill="none" xmlns="http://www.w3.org/2000/svg">
<path d="M575.537 118.77C584.078 118.77 591.001 111.846 591.001 103.305C591.001 94.7642 584.078 87.8403 575.537 87.8403C566.997 87.8403 560.074 94.7642 560.074 103.305C560.074 111.846 566.997 118.77 575.537 118.77Z" fill="url(#paint0_radial)"/>
<path d="M445.024 170.732C462.104 170.732 475.951 156.884 475.951 139.802C475.951 122.72 462.104 108.873 445.024 108.873C427.943 108.873 414.096 122.72 414.096 139.802C414.096 156.884 427.943 170.732 445.024 170.732Z" fill="url(#paint1_radial)"/>
<path d="M621.928 285.172C637.984 285.172 651 272.155 651 256.098C651 240.041 637.984 227.024 621.928 227.024C605.872 227.024 592.857 240.041 592.857 256.098C592.857 272.155 605.872 285.172 621.928 285.172Z" fill="url(#paint2_radial)"/>
<path d="M519.249 403.632C529.498 403.632 537.806 395.324 537.806 385.075C537.806 374.825 529.498 366.517 519.249 366.517C509.001 366.517 500.693 374.825 500.693 385.075C500.693 395.324 509.001 403.632 519.249 403.632Z" fill="url(#paint3_radial)"/>
<path d="M167.296 83.5101C175.836 83.5101 182.76 76.5863 182.76 68.0453C182.76 59.5043 175.836 52.5804 167.296 52.5804C158.756 52.5804 151.832 59.5043 151.832 68.0453C151.832 76.5863 158.756 83.5101 167.296 83.5101Z" fill="url(#paint4_radial)"/>
<path d="M379.149 21.6508C385.127 21.6508 389.973 16.8041 389.973 10.8254C389.973 4.84669 385.127 0 379.149 0C373.17 0 368.324 4.84669 368.324 10.8254C368.324 16.8041 373.17 21.6508 379.149 21.6508Z" fill="url(#paint5_radial)"/>
<path d="M569.352 519C575.33 519 580.176 514.153 580.176 508.175C580.176 502.196 575.33 497.349 569.352 497.349C563.374 497.349 558.527 502.196 558.527 508.175C558.527 514.153 563.374 519 569.352 519Z" fill="url(#paint6_radial)"/>
<path d="M113.482 303.111C130.563 303.111 144.41 289.263 144.41 272.181C144.41 255.099 130.563 241.251 113.482 241.251C96.4017 241.251 82.5551 255.099 82.5551 272.181C82.5551 289.263 96.4017 303.111 113.482 303.111Z" fill="url(#paint7_radial)"/>
<path d="M68.3285 472.296C78.5769 472.296 86.8849 463.988 86.8849 453.738C86.8849 443.489 78.5769 435.181 68.3285 435.181C58.0801 435.181 49.7721 443.489 49.7721 453.738C49.7721 463.988 58.0801 472.296 68.3285 472.296Z" fill="url(#paint8_radial)"/>
<path d="M-10.5363 228.261C-1.99596 228.261 4.92737 221.337 4.92737 212.796C4.92737 204.255 -1.99596 197.331 -10.5363 197.331C-19.0767 197.331 -26 204.255 -26 212.796C-26 221.337 -19.0767 228.261 -10.5363 228.261Z" fill="url(#paint9_radial)"/>
<defs>
<radialGradient id="paint0_radial" cx="0" cy="0" r="1" gradientUnits="userSpaceOnUse" gradientTransform="translate(575.447 103.246) scale(15.4637 15.4648)">
<stop offset="0.0858586" stop-color="#1BB0D4"/>
<stop offset="0.0975314" stop-color="#1B89B4" stop-opacity="0.7111"/>
<stop offset="0.1263" stop-color="#1B2B69" stop-opacity="0"/>
<stop offset="0.1594" stop-color="#172458" stop-opacity="0"/>
<stop offset="0.2234" stop-color="#10193D" stop-opacity="0"/>
<stop offset="0.2966" stop-color="#0A1026" stop-opacity="0"/>
<stop offset="0.3813" stop-color="#050915" stop-opacity="0"/>
<stop offset="0.4852" stop-color="#020409" stop-opacity="0"/>
<stop offset="0.6284" stop-color="#000102" stop-opacity="0"/>
<stop offset="1" stop-opacity="0"/>
</radialGradient>
<radialGradient id="paint1_radial" cx="0" cy="0" r="1" gradientUnits="userSpaceOnUse" gradientTransform="translate(445.127 139.699) scale(30.9274 30.9297)">
<stop offset="0.0858586" stop-color="#1BB0D4"/>
<stop offset="0.0975314" stop-color="#1B89B4" stop-opacity="0.7111"/>
<stop offset="0.1263" stop-color="#1B2B69" stop-opacity="0"/>
<stop offset="0.1594" stop-color="#172458" stop-opacity="0"/>
<stop offset="0.2234" stop-color="#10193D" stop-opacity="0"/>
<stop offset="0.2966" stop-color="#0A1026" stop-opacity="0"/>
<stop offset="0.3813" stop-color="#050915" stop-opacity="0"/>
<stop offset="0.4852" stop-color="#020409" stop-opacity="0"/>
<stop offset="0.6284" stop-color="#000102" stop-opacity="0"/>
<stop offset="1" stop-opacity="0"/>
</radialGradient>
<radialGradient id="paint2_radial" cx="0" cy="0" r="1" gradientUnits="userSpaceOnUse" gradientTransform="translate(621.928 256.201) scale(29.1753 29.1775)">
<stop offset="0.0858586" stop-color="#1BB0D4"/>
<stop offset="0.0975314" stop-color="#1B89B4" stop-opacity="0.7111"/>
<stop offset="0.1263" stop-color="#1B2B69" stop-opacity="0"/>
<stop offset="0.1594" stop-color="#172458" stop-opacity="0"/>
<stop offset="0.2234" stop-color="#10193D" stop-opacity="0"/>
<stop offset="0.2966" stop-color="#0A1026" stop-opacity="0"/>
<stop offset="0.3813" stop-color="#050915" stop-opacity="0"/>
<stop offset="0.4852" stop-color="#020409" stop-opacity="0"/>
<stop offset="0.6284" stop-color="#000102" stop-opacity="0"/>
<stop offset="1" stop-opacity="0"/>
</radialGradient>
<radialGradient id="paint3_radial" cx="0" cy="0" r="1" gradientUnits="userSpaceOnUse" gradientTransform="translate(519.353 385.075) scale(18.5564 18.5578)">
<stop offset="0.0858586" stop-color="#1BB0D4"/>
<stop offset="0.0975314" stop-color="#1B89B4" stop-opacity="0.7111"/>
<stop offset="0.1263" stop-color="#1B2B69" stop-opacity="0"/>
<stop offset="0.1594" stop-color="#172458" stop-opacity="0"/>
<stop offset="0.2234" stop-color="#10193D" stop-opacity="0"/>
<stop offset="0.2966" stop-color="#0A1026" stop-opacity="0"/>
<stop offset="0.3813" stop-color="#050915" stop-opacity="0"/>
<stop offset="0.4852" stop-color="#020409" stop-opacity="0"/>
<stop offset="0.6284" stop-color="#000102" stop-opacity="0"/>
<stop offset="1" stop-opacity="0"/>
</radialGradient>
<radialGradient id="paint4_radial" cx="0" cy="0" r="1" gradientUnits="userSpaceOnUse" gradientTransform="translate(167.205 68.1922) scale(15.4637 15.4648)">
<stop offset="0.0858586" stop-color="#1BB0D4"/>
<stop offset="0.0975314" stop-color="#1B89B4" stop-opacity="0.7111"/>
<stop offset="0.1263" stop-color="#1B2B69" stop-opacity="0"/>
<stop offset="0.1594" stop-color="#172458" stop-opacity="0"/>
<stop offset="0.2234" stop-color="#10193D" stop-opacity="0"/>
<stop offset="0.2966" stop-color="#0A1026" stop-opacity="0"/>
<stop offset="0.3813" stop-color="#050915" stop-opacity="0"/>
<stop offset="0.4852" stop-color="#020409" stop-opacity="0"/>
<stop offset="0.6284" stop-color="#000102" stop-opacity="0"/>
<stop offset="1" stop-opacity="0"/>
</radialGradient>
<radialGradient id="paint5_radial" cx="0" cy="0" r="1" gradientUnits="userSpaceOnUse" gradientTransform="translate(379.149 10.8254) scale(10.8246 10.8254)">
<stop offset="0.0858586" stop-color="#1BB0D4"/>
<stop offset="0.0975314" stop-color="#1B89B4" stop-opacity="0.7111"/>
<stop offset="0.1263" stop-color="#1B2B69" stop-opacity="0"/>
<stop offset="0.1594" stop-color="#172458" stop-opacity="0"/>
<stop offset="0.2234" stop-color="#10193D" stop-opacity="0"/>
<stop offset="0.2966" stop-color="#0A1026" stop-opacity="0"/>
<stop offset="0.3813" stop-color="#050915" stop-opacity="0"/>
<stop offset="0.4852" stop-color="#020409" stop-opacity="0"/>
<stop offset="0.6284" stop-color="#000102" stop-opacity="0"/>
<stop offset="1" stop-opacity="0"/>
</radialGradient>
<radialGradient id="paint6_radial" cx="0" cy="0" r="1" gradientUnits="userSpaceOnUse" gradientTransform="translate(569.352 508.278) scale(10.8246 10.8254)">
<stop offset="0.0858586" stop-color="#1BB0D4"/>
<stop offset="0.0975314" stop-color="#1B89B4" stop-opacity="0.7111"/>
<stop offset="0.1263" stop-color="#1B2B69" stop-opacity="0"/>
<stop offset="0.1594" stop-color="#172458" stop-opacity="0"/>
<stop offset="0.2234" stop-color="#10193D" stop-opacity="0"/>
<stop offset="0.2966" stop-color="#0A1026" stop-opacity="0"/>
<stop offset="0.3813" stop-color="#050915" stop-opacity="0"/>
<stop offset="0.4852" stop-color="#020409" stop-opacity="0"/>
<stop offset="0.6284" stop-color="#000102" stop-opacity="0"/>
<stop offset="1" stop-opacity="0"/>
</radialGradient>
<radialGradient id="paint7_radial" cx="0" cy="0" r="1" gradientUnits="userSpaceOnUse" gradientTransform="translate(113.598 272.328) scale(30.9274 30.9297)">
<stop offset="0.0858586" stop-color="#1BB0D4"/>
<stop offset="0.0975314" stop-color="#1B89B4" stop-opacity="0.7111"/>
<stop offset="0.1263" stop-color="#1B2B69" stop-opacity="0"/>
<stop offset="0.1594" stop-color="#172458" stop-opacity="0"/>
<stop offset="0.2234" stop-color="#10193D" stop-opacity="0"/>
<stop offset="0.2966" stop-color="#0A1026" stop-opacity="0"/>
<stop offset="0.3813" stop-color="#050915" stop-opacity="0"/>
<stop offset="0.4852" stop-color="#020409" stop-opacity="0"/>
<stop offset="0.6284" stop-color="#000102" stop-opacity="0"/>
<stop offset="1" stop-opacity="0"/>
</radialGradient>
<radialGradient id="paint8_radial" cx="0" cy="0" r="1" gradientUnits="userSpaceOnUse" gradientTransform="translate(68.2379 453.782) scale(18.5564 18.5578)">
<stop offset="0.0858586" stop-color="#1BB0D4"/>
<stop offset="0.0975314" stop-color="#1B89B4" stop-opacity="0.7111"/>
<stop offset="0.1263" stop-color="#1B2B69" stop-opacity="0"/>
<stop offset="0.1594" stop-color="#172458" stop-opacity="0"/>
<stop offset="0.2234" stop-color="#10193D" stop-opacity="0"/>
<stop offset="0.2966" stop-color="#0A1026" stop-opacity="0"/>
<stop offset="0.3813" stop-color="#050915" stop-opacity="0"/>
<stop offset="0.4852" stop-color="#020409" stop-opacity="0"/>
<stop offset="0.6284" stop-color="#000102" stop-opacity="0"/>
<stop offset="1" stop-opacity="0"/>
</radialGradient>
<radialGradient id="paint9_radial" cx="0" cy="0" r="1" gradientUnits="userSpaceOnUse" gradientTransform="translate(-10.5363 212.899) scale(15.4637 15.4648)">
<stop offset="0.0858586" stop-color="#1BB0D4"/>
<stop offset="0.0975314" stop-color="#1B89B4" stop-opacity="0.7111"/>
<stop offset="0.1263" stop-color="#1B2B69" stop-opacity="0"/>
<stop offset="0.1594" stop-color="#172458" stop-opacity="0"/>
<stop offset="0.2234" stop-color="#10193D" stop-opacity="0"/>
<stop offset="0.2966" stop-color="#0A1026" stop-opacity="0"/>
<stop offset="0.3813" stop-color="#050915" stop-opacity="0"/>
<stop offset="0.4852" stop-color="#020409" stop-opacity="0"/>
<stop offset="0.6284" stop-color="#000102" stop-opacity="0"/>
<stop offset="1" stop-opacity="0"/>
</radialGradient>
</defs>
</svg>
