<svg width="1920" height="1020" viewBox="0 0 1920 1020" fill="none" xmlns="http://www.w3.org/2000/svg">
<path d="M1063.82 180.578C921.831 146.091 947.83 92.6354 965.829 -16H1923.77C1922.44 107.005 1920.57 370.949 1923.77 442.683C1927.77 532.35 1879.77 661.678 1733.78 644.434C1587.79 627.19 1525.8 722.031 1537.79 766.864C1549.79 811.698 1577.79 870.327 1433.8 970.34C1289.81 1070.35 1005.83 997.93 945.83 939.301C885.833 880.673 747.842 880.673 701.844 911.711C655.847 942.75 567.852 975.513 465.858 970.34C363.864 965.167 331.866 877.224 247.871 889.295C163.876 901.365 199.874 975.513 141.878 996.206C83.8811 1016.9 39.8837 1020.35 -4.11369 1006.55C-83.074 981.795 -90.1086 953.096 -4.11369 939.301C81.8812 925.506 87.8809 758.242 227.873 756.518C367.864 754.794 473.858 816.871 527.855 778.935C581.852 740.999 613.85 634.088 747.842 625.466C881.834 616.844 937.83 677.197 1063.82 680.646C1189.82 684.095 1241.81 620.293 1183.82 532.35C1125.82 444.407 1247.81 421.99 1255.81 339.22C1263.81 256.451 1205.81 215.066 1063.82 180.578Z" fill="#201D52"/>
</svg>
