<svg width="1920" height="1020" viewBox="0 0 1920 1020" fill="none" xmlns="http://www.w3.org/2000/svg">
<path d="M1619.75 403.022C1766.7 391.677 1645.75 216.79 1843.76 180.578L1923.77 -16C1922.44 107.005 1920.57 370.949 1923.77 442.683C1927.77 532.35 1879.77 661.678 1733.76 644.434C1587.74 627.19 1525.74 722.031 1537.74 766.864C1549.74 811.698 1577.74 870.327 1433.73 970.34C1289.72 1070.35 1005.69 997.93 945.689 939.301C885.684 880.673 747.672 880.673 701.668 911.711C655.664 942.75 567.657 975.513 465.648 970.34C363.64 965.167 331.637 877.224 247.63 889.295C163.623 901.365 199.626 975.513 141.621 996.206C83.6162 1016.9 39.6124 1020.35 -4.39132 1006.55C-83.363 981.795 -78.7985 951.923 3.60938 977.238C177.624 1030.69 119.619 832.39 259.631 830.666C399.643 828.942 394.154 919.201 543.655 903.09C671.666 889.295 651.664 796.179 785.675 787.557C919.687 778.935 973.692 715.133 1065.7 746.172C1147.34 773.712 1127.7 839.288 1273.72 839.288C1391.06 839.288 1383.73 646.158 1391.73 563.389C1399.73 480.619 1485.73 413.368 1619.75 403.022Z" fill="url(#paint0_linear)"/>
<defs>
<linearGradient id="paint0_linear" x1="1003.69" y1="739.274" x2="1086.06" y2="1027.67" gradientUnits="userSpaceOnUse">
<stop stop-color="#6D22C1" stop-opacity="0.46"/>
<stop offset="0.619792" stop-color="#6D22C1" stop-opacity="0"/>
</linearGradient>
</defs>
</svg>
