<svg width="1920" height="513" viewBox="0 0 1920 513" fill="none" xmlns="http://www.w3.org/2000/svg">
<path d="M334.926 102.9C262.211 34.7884 61.342 29.5967 -45.3885 54.943C-152.303 81.574 -245.518 380.258 -112.734 380.935C20.0497 381.612 78.7593 291.694 212.35 318.709C345.941 345.724 287.416 434.358 501.237 461.073C715.058 487.787 737.699 409.744 870.115 412.99C1002.53 416.237 974.146 518.368 1117.75 507.486C1261.36 496.603 1361.09 426.758 1462 474C1562.91 521.242 2068.66 534.792 1884 526C1624 513.621 1542 402.99 1410.01 392.532C1284.36 382.576 1239.28 410.839 1135.8 381.583C1032.31 352.327 1058.71 280.066 984.702 220.948C910.698 161.829 771.766 172.071 647.884 221.181C524.001 270.29 407.641 171.012 334.926 102.9Z" fill="url(#paint0_linear)"/>
<defs>
<linearGradient id="paint0_linear" x1="780.182" y1="245.931" x2="720.015" y2="607.641" gradientUnits="userSpaceOnUse">
<stop stop-color="#6D22C1" stop-opacity="0.46"/>
<stop offset="0.619792" stop-color="#6D22C1" stop-opacity="0"/>
</linearGradient>
</defs>
</svg>
