<svg width="870" height="529" viewBox="0 0 870 529" fill="none" xmlns="http://www.w3.org/2000/svg">
<path d="M654.862 559.152C711.311 547.679 766.902 524.398 807.754 483.918C848.606 443.439 872.951 383.707 862.418 327.104C853.443 279.622 819.767 237.506 775.381 218.542C707.645 189.648 629.162 214.054 556.64 200.539C486.418 187.35 428.549 139.902 371.176 97.212C313.803 54.5219 248.641 13.546 177.287 16.7925C133.979 18.7905 91.6627 38.1269 61.6705 69.5676C12.1181 121.513 0.440937 199.638 8.46396 270.992C11.1613 295.73 16.1447 320.223 25.8633 343.074C51.181 402.945 105.858 444.746 159.457 481.422C201.401 509.984 245.048 537.932 294.064 550.869C336.353 562.061 380.651 561.565 424.191 561.279C480.902 560.675 538.759 560.043 592.779 542.905C618.178 534.851 642.913 522.998 661.36 503.856C679.807 484.714 691.184 457.537 686.923 431.311C682.69 406.228 663.631 384.174 639.382 376.554C620.328 370.527 599.95 372.926 579.866 371.693C530.33 368.881 484.275 344.043 445.707 312.919C407.14 281.796 374.147 244.242 337.993 210.198C297.146 171.689 252.011 137.48 203.759 108.689C187.867 99.1509 170.84 90.0217 152.269 88.1799C114.359 84.324 79.1438 113.029 63.7461 147.743C48.3484 182.457 48.9183 221.937 51.551 259.842C53.8596 292.221 58.3184 326.647 78.791 351.91C92.3711 368.564 111.54 379.358 130.318 389.781C199.419 427.8 276.156 465.635 353.934 451.549C370.858 448.47 389.218 441.54 396.094 425.73C401.536 413.769 398.91 399.905 394.411 387.611C381.298 350.723 353.839 320.858 326.053 293.29C287.307 254.73 246.502 217.937 203.843 183.478C180.663 164.767 151.744 145.621 123.3 154.13C105.476 159.52 92.1093 175.487 86.233 193.182C80.3568 210.876 81.2028 230.126 84.5074 248.363C87.5751 264.697 92.7426 280.981 102.05 294.684C115.122 314.021 135.686 327.262 156.023 338.982C184.106 355.095 217.129 370.135 247.822 359.855C259.001 356.152 269.693 348.071 272.476 336.747C275.609 324.08 268.238 311.474 260.536 300.975C241.181 274.54 217.137 251.652 189.767 233.423C177.149 224.951 163.026 217.469 147.736 217.075C132.447 216.68 116.047 225.661 112.393 240.44C107.521 260.209 126.087 277.696 143.524 287.96C154.179 294.19 167.87 299.584 178.408 293.034C190.259 285.498 188.845 266.453 179.239 256.191C169.632 245.929 155.22 242.27 141.58 238.973C135.625 237.591 127.404 237.216 125.251 242.992C123.639 247.419 127.189 252.103 131.081 255.062C139.259 261.543 149.477 265.494 159.812 266.39C161.123 257.391 153.067 248.045 143.905 248.266" stroke="#5A609B" stroke-width="0.5" stroke-miterlimit="10"/>
</svg>
