<svg width="72" height="60" viewBox="0 0 72 60" fill="none" xmlns="http://www.w3.org/2000/svg">
<path d="M59.8164 56.9297H6.67969C4.15955 56.9297 2.10938 54.8795 2.10938 52.3593V15.7265H48.6562C49.2389 15.7265 49.7109 15.2545 49.7109 14.6718C49.7109 14.0892 49.2389 13.6172 48.6562 13.6172H2.10938V7.64059C2.10938 5.12045 4.15955 3.07028 6.67969 3.07028H11.3638C11.9464 3.07028 12.4185 2.5982 12.4185 2.01559C12.4185 1.43299 11.9464 0.960907 11.3638 0.960907H6.67969C2.99658 0.960907 0 3.95749 0 7.64059V52.3593C0 56.0425 2.99658 59.039 6.67969 59.039H59.8164C60.399 59.039 60.8711 58.567 60.8711 57.9843C60.8711 57.4017 60.399 56.9297 59.8164 56.9297Z" fill="white"/>
<path d="M65.3203 0.960907H16.2856C15.703 0.960907 15.231 1.43299 15.231 2.01559C15.231 2.5982 15.703 3.07028 16.2856 3.07028H65.3203C67.8405 3.07028 69.8906 5.12045 69.8906 7.64059V13.6172H53.5781C52.9955 13.6172 52.5234 14.0892 52.5234 14.6718C52.5234 15.2545 52.9955 15.7265 53.5781 15.7265H69.8906V52.3593C69.8906 54.8795 67.8405 56.9297 65.3203 56.9297H64.6606C64.078 56.9297 63.606 57.4017 63.606 57.9843C63.606 58.567 64.078 59.039 64.6606 59.039H65.3203C69.0034 59.039 72 56.0425 72 52.3593V7.64059C72 3.95749 69.0034 0.960907 65.3203 0.960907Z" fill="white"/>
<path d="M4.32422 8.30856C4.32422 10.0532 5.74369 11.4726 7.48828 11.4726C9.23287 11.4726 10.6523 10.0532 10.6523 8.30856C10.6523 6.56397 9.23287 5.1445 7.48828 5.1445C5.74369 5.1445 4.32422 6.56397 4.32422 8.30856ZM8.54297 8.30856C8.54297 8.89019 8.06991 9.36325 7.48828 9.36325C6.90666 9.36325 6.43359 8.89019 6.43359 8.30856C6.43359 7.72694 6.90666 7.25388 7.48828 7.25388C8.06991 7.25388 8.54297 7.72694 8.54297 8.30856Z" fill="white"/>
<path d="M16.5234 11.5078C18.268 11.5078 19.6875 10.0883 19.6875 8.34372C19.6875 6.59913 18.268 5.17966 16.5234 5.17966C14.7788 5.17966 13.3594 6.59913 13.3594 8.34372C13.3594 10.0883 14.7788 11.5078 16.5234 11.5078ZM16.5234 7.28903C17.1051 7.28903 17.5781 7.76209 17.5781 8.34372C17.5781 8.92534 17.1051 9.39841 16.5234 9.39841C15.9418 9.39841 15.4688 8.92534 15.4688 8.34372C15.4688 7.76209 15.9418 7.28903 16.5234 7.28903Z" fill="white"/>
<path d="M28.6875 8.34372C28.6875 6.59913 27.268 5.17966 25.5234 5.17966C23.7788 5.17966 22.3594 6.59913 22.3594 8.34372C22.3594 10.0883 23.7788 11.5078 25.5234 11.5078C27.268 11.5078 28.6875 10.0883 28.6875 8.34372ZM24.4688 8.34372C24.4688 7.76209 24.9418 7.28903 25.5234 7.28903C26.1051 7.28903 26.5781 7.76209 26.5781 8.34372C26.5781 8.92534 26.1051 9.39841 25.5234 9.39841C24.9418 9.39841 24.4688 8.92534 24.4688 8.34372Z" fill="white"/>
<path d="M64.6172 11.5078C66.3618 11.5078 67.7812 10.0883 67.7812 8.34372C67.7812 6.59913 66.3618 5.17966 64.6172 5.17966H34.6641C32.9195 5.17966 31.5 6.59913 31.5 8.34372C31.5 10.0883 32.9195 11.5078 34.6641 11.5078H64.6172ZM33.6094 8.34372C33.6094 7.76209 34.0824 7.28903 34.6641 7.28903H64.6172C65.1988 7.28903 65.6719 7.76209 65.6719 8.34372C65.6719 8.92534 65.1988 9.39841 64.6172 9.39841H34.6641C34.0824 9.39841 33.6094 8.92534 33.6094 8.34372Z" fill="white"/>
<path d="M64.0278 23.0959H43.9185C43.3358 23.0959 42.8638 23.5679 42.8638 24.1505C42.8638 24.7332 43.3358 25.2052 43.9185 25.2052H64.0278C64.6104 25.2052 65.0825 24.7332 65.0825 24.1505C65.0825 23.5679 64.6103 23.0959 64.0278 23.0959Z" fill="white"/>
<path d="M64.0278 28.7209H43.9185C43.3358 28.7209 42.8638 29.1929 42.8638 29.7755C42.8638 30.3582 43.3358 30.8302 43.9185 30.8302H64.0278C64.6104 30.8302 65.0825 30.3582 65.0825 29.7755C65.0825 29.1929 64.6103 28.7209 64.0278 28.7209Z" fill="white"/>
<path d="M65.0825 35.4005C65.0825 34.8179 64.6104 34.3459 64.0278 34.3459H43.9185C43.3358 34.3459 42.8638 34.8179 42.8638 35.4005C42.8638 35.9832 43.3358 36.4552 43.9185 36.4552H64.0278C64.6103 36.4552 65.0825 35.9832 65.0825 35.4005Z" fill="white"/>
<path d="M25.0312 52.838H46.9688C49.7215 52.838 51.9609 50.5986 51.9609 47.8459C51.9609 45.0931 49.7215 42.8537 46.9688 42.8537H25.0312C22.2785 42.8537 20.0391 45.0931 20.0391 47.8459C20.0391 50.5986 22.2785 52.838 25.0312 52.838ZM25.0312 44.963H46.9688C48.5584 44.963 49.8516 46.2562 49.8516 47.8459C49.8516 49.4355 48.5584 50.7287 46.9688 50.7287H25.0312C23.4416 50.7287 22.1484 49.4355 22.1484 47.8459C22.1484 46.2562 23.4416 44.963 25.0312 44.963Z" fill="white"/>
<path d="M27.606 20.7755H12.1372C9.22936 20.7755 6.86377 23.1411 6.86377 26.049V33.5021C6.86377 36.4099 9.22936 38.7755 12.1372 38.7755H27.606C30.5138 38.7755 32.8794 36.4099 32.8794 33.5021V33.2133C32.8794 33.2131 32.8794 33.2128 32.8794 33.2126V26.0491C32.8794 23.1413 30.5137 20.7755 27.606 20.7755ZM12.1199 36.6657L13.9805 33.8059C14.2982 33.3176 14.1598 32.6644 13.6716 32.3466C13.1833 32.0291 12.53 32.1673 12.2123 32.6555L10.0925 35.9138C9.40838 35.333 8.97314 34.4675 8.97314 33.502V26.0488C8.97314 24.3042 10.3926 22.8848 12.1372 22.8848H27.606C29.3506 22.8848 30.77 24.3042 30.77 26.0488V30.3179L27.5709 26.497C27.3741 26.2617 27.0845 26.1241 26.7778 26.1194C26.4739 26.1092 26.1775 26.2442 25.9739 26.4734L22.391 30.504L18.9335 25.0617C18.7411 24.7587 18.408 24.5744 18.0491 24.5724C18.0471 24.5724 18.0453 24.5724 18.0433 24.5724C17.6867 24.5724 17.354 24.7527 17.1593 25.0519L14.9009 28.5234C14.5831 29.0117 14.7215 29.6649 15.2097 29.9825C15.6978 30.3004 16.3513 30.1618 16.6688 29.6737L18.0328 27.5774L23.807 36.6663H12.1372C12.1314 36.6662 12.1257 36.6657 12.1199 36.6657ZM27.606 36.6662H26.3059L23.5673 32.3556L26.7382 28.7885L30.7673 33.6012C30.7149 35.3 29.3174 36.6662 27.606 36.6662Z" fill="white"/>
</svg>
