<svg width="48" height="80" viewBox="0 0 48 80" fill="none" xmlns="http://www.w3.org/2000/svg">
<path d="M45.1297 -3.05176e-05H2.87036C1.3627 -3.05176e-05 0.135986 1.22669 0.135986 2.73434V77.2656C0.135986 78.7733 1.3627 80 2.87036 80H10.4025C11.0499 80 11.5744 79.4753 11.5744 78.8281C11.5744 78.1809 11.0499 77.6562 10.4025 77.6562H2.87036C2.65489 77.6562 2.47974 77.4809 2.47974 77.2656V69.7665H45.5204V77.2656C45.5204 77.4809 45.3452 77.6562 45.1297 77.6562H15.5057C14.8583 77.6562 14.3338 78.1809 14.3338 78.8281C14.3338 79.4753 14.8583 80 15.5057 80H45.1297C46.6374 80 47.8641 78.7733 47.8641 77.2656V49.9518C47.8641 49.3047 47.3396 48.78 46.6922 48.78C46.0449 48.78 45.5204 49.3047 45.5204 49.9518V67.4226H2.47974V39.1237H45.5204V44.8487C45.5204 45.4959 46.0449 46.0206 46.6922 46.0206C47.3396 46.0206 47.8641 45.4959 47.8641 44.8487V2.73434C47.8641 1.22669 46.6374 -3.05176e-05 45.1297 -3.05176e-05ZM2.47974 22.0442H11.3085C11.9558 22.0442 12.4804 21.5195 12.4804 20.8723C12.4804 20.2251 11.9558 19.7004 11.3085 19.7004H2.47974V9.33575H45.5204V19.7006H16.4118C15.7644 19.7006 15.2399 20.2253 15.2399 20.8725C15.2399 21.5197 15.7644 22.0443 16.4118 22.0443H45.5204V26.2968C40.3649 29.4104 31.9574 32.3428 20.3949 29.5743C13.6644 27.9633 7.6488 28.2295 2.47974 30.3595V22.0442ZM2.87036 2.34372H45.1297C45.3452 2.34372 45.5204 2.51903 45.5204 2.73434V6.992H2.47974V2.73434C2.47974 2.51903 2.65489 2.34372 2.87036 2.34372ZM2.47974 36.78V32.9198C7.37583 30.6259 13.2144 30.2656 19.8493 31.8537C31.318 34.5998 39.9165 32.0607 45.5204 28.9993V36.78H2.47974Z" fill="white"/>
<path d="M6.71289 5.84779C7.36023 5.84779 7.88477 5.32311 7.88477 4.67592V4.65967C7.88477 4.01248 7.36023 3.48779 6.71289 3.48779C6.06555 3.48779 5.54102 4.01248 5.54102 4.65967V4.67592C5.54102 5.32311 6.06555 5.84779 6.71289 5.84779Z" fill="white"/>
<path d="M10.2615 5.84779C10.9088 5.84779 11.4333 5.32311 11.4333 4.67592V4.65967C11.4333 4.01248 10.9088 3.48779 10.2615 3.48779C9.61413 3.48779 9.0896 4.01248 9.0896 4.65967V4.67592C9.0896 5.32311 9.61413 5.84779 10.2615 5.84779Z" fill="white"/>
<path d="M13.8102 5.84779C14.4575 5.84779 14.9821 5.32311 14.9821 4.67592V4.65967C14.9821 4.01248 14.4575 3.48779 13.8102 3.48779C13.1628 3.48779 12.6383 4.01248 12.6383 4.65967V4.67592C12.6383 5.32311 13.1628 5.84779 13.8102 5.84779Z" fill="white"/>
<path d="M24 75.2751C24.3108 75.2751 24.6088 75.1517 24.8286 74.932L25.9235 73.8373C26.3813 73.3797 26.3813 72.6376 25.9236 72.18C25.466 71.7225 24.7239 71.7223 24.2664 72.18L24 72.4459L23.7341 72.1798C23.2764 71.7223 22.5344 71.7222 22.0769 72.1798C21.6191 72.6375 21.6191 73.3795 22.0767 73.8372L23.1714 74.9318C23.391 75.1515 23.6891 75.2751 24 75.2751Z" fill="white"/>
<path d="M20.9832 15.4037V13.514C20.9832 12.2648 19.9667 11.2484 18.7175 11.2484H7.28284C6.03362 11.2484 5.01721 12.2648 5.01721 13.514V15.4037C5.01721 16.6529 6.03362 17.6694 7.28284 17.6694H18.7175C19.9667 17.6694 20.9832 16.6529 20.9832 15.4037ZM18.6394 15.3256H7.36096V13.5922H18.6394V15.3256Z" fill="white"/>
<path d="M24.0488 13.8942H26.9935C27.6409 13.8942 28.1654 13.3695 28.1654 12.7223C28.1654 12.0751 27.6409 11.5504 26.9935 11.5504H24.0488C23.4015 11.5504 22.877 12.0751 22.877 12.7223C22.877 13.3695 23.4015 13.8942 24.0488 13.8942Z" fill="white"/>
<path d="M31.4575 13.8942H34.4022C35.0496 13.8942 35.5741 13.3695 35.5741 12.7223C35.5741 12.0751 35.0496 11.5504 34.4022 11.5504H31.4575C30.8102 11.5504 30.2856 12.0751 30.2856 12.7223C30.2856 13.3695 30.8102 13.8942 31.4575 13.8942Z" fill="white"/>
<path d="M38.8663 13.8942H41.811C42.4584 13.8942 42.9829 13.3695 42.9829 12.7223C42.9829 12.0751 42.4584 11.5504 41.811 11.5504H38.8663C38.219 11.5504 37.6945 12.0751 37.6945 12.7223C37.6945 13.3695 38.219 13.8942 38.8663 13.8942Z" fill="white"/>
<path d="M5.55066 48.8739V56.8089C5.55066 58.1394 6.633 59.2215 7.96332 59.2215H13.6477C14.9782 59.2215 16.0603 58.1392 16.0603 56.8089V48.8739C16.0603 47.5434 14.978 46.4612 13.6477 46.4612H7.96332C6.633 46.4612 5.55066 47.5436 5.55066 48.8739ZM13.7168 48.8739V56.8089C13.7168 56.8469 13.6858 56.8778 13.6478 56.8778H7.96347C7.9255 56.8778 7.89457 56.8469 7.89457 56.8089V48.8739C7.89457 48.8359 7.9255 48.805 7.96347 48.805H13.6478C13.6858 48.805 13.7168 48.8359 13.7168 48.8739Z" fill="white"/>
<path d="M18.7454 56.809C18.7454 58.1395 19.8277 59.2217 21.158 59.2217H26.8425C28.173 59.2217 29.2552 58.1393 29.2552 56.809V48.874C29.2552 47.5436 28.1729 46.4614 26.8425 46.4614H21.158C19.8276 46.4614 18.7454 47.5437 18.7454 48.874V56.809ZM21.0891 48.8739C21.0891 48.8359 21.1201 48.805 21.158 48.805H26.8425C26.8805 48.805 26.9115 48.8359 26.9115 48.8739V56.8089C26.9115 56.8468 26.8805 56.8778 26.8425 56.8778H21.158C21.1201 56.8778 21.0891 56.8468 21.0891 56.8089V48.8739Z" fill="white"/>
<path d="M42.4499 56.809V48.874C42.4499 47.5436 41.3676 46.4614 40.0372 46.4614H34.3527C33.0222 46.4614 31.9401 47.5437 31.9401 48.874V56.809C31.9401 58.1395 33.0224 59.2217 34.3527 59.2217H40.0372C41.3676 59.2217 42.4499 58.1393 42.4499 56.809ZM34.2837 56.809V48.874C34.2837 48.8361 34.3146 48.8051 34.3526 48.8051H40.0371C40.0751 48.8051 40.106 48.8361 40.106 48.874V56.809C40.106 56.847 40.0751 56.8779 40.0371 56.8779H34.3526C34.3146 56.8779 34.2837 56.847 34.2837 56.809Z" fill="white"/>
<path d="M21.2936 42.1906V42.1745C21.2936 41.5273 20.7691 41.0026 20.1218 41.0026C19.4744 41.0026 18.9499 41.5273 18.9499 42.1745V42.1906C18.9499 42.8378 19.4744 43.3625 20.1218 43.3625C20.7691 43.3625 21.2936 42.8378 21.2936 42.1906Z" fill="white"/>
<path d="M25.1757 42.1906V42.1745C25.1757 41.5273 24.6511 41.0026 24.0038 41.0026C23.3564 41.0026 22.8319 41.5273 22.8319 42.1745V42.1906C22.8319 42.8378 23.3564 43.3625 24.0038 43.3625C24.6511 43.3625 25.1757 42.8378 25.1757 42.1906Z" fill="white"/>
<path d="M27.886 43.3625C28.5333 43.3625 29.0579 42.8378 29.0579 42.1906V42.1745C29.0579 41.5273 28.5333 41.0026 27.886 41.0026C27.2386 41.0026 26.7141 41.5273 26.7141 42.1745V42.1906C26.7141 42.8378 27.2386 43.3625 27.886 43.3625Z" fill="white"/>
<path d="M32.9399 42.1906V42.1745C32.9399 41.5273 32.4153 41.0026 31.768 41.0026C31.1207 41.0026 30.5961 41.5273 30.5961 42.1745V42.1906C30.5961 42.8378 31.1207 43.3625 31.768 43.3625C32.4153 43.3625 32.9399 42.8378 32.9399 42.1906Z" fill="white"/>
<path d="M36.8219 42.1906V42.1745C36.8219 41.5273 36.2974 41.0026 35.65 41.0026C35.0027 41.0026 34.4781 41.5273 34.4781 42.1745V42.1906C34.4781 42.8378 35.0027 43.3625 35.65 43.3625C36.2974 43.3625 36.8219 42.8378 36.8219 42.1906Z" fill="white"/>
<path d="M15.8799 43.3625C16.5272 43.3625 17.0517 42.8378 17.0517 42.1906C17.0517 41.5434 16.5272 41.0187 15.8799 41.0187H12.3503C11.703 41.0187 11.1785 41.5434 11.1785 42.1906C11.1785 42.8378 11.703 43.3625 12.3503 43.3625H15.8799Z" fill="white"/>
<path d="M9.82758 64.7134H38.1729C38.8202 64.7134 39.3448 64.1887 39.3448 63.5415C39.3448 62.8943 38.8202 62.3697 38.1729 62.3697H9.82758C9.18023 62.3697 8.6557 62.8943 8.6557 63.5415C8.6557 64.1887 9.18039 64.7134 9.82758 64.7134Z" fill="white"/>
</svg>
