<svg width="1442" height="721" viewBox="0 0 1442 721" fill="none" xmlns="http://www.w3.org/2000/svg">
<path d="M324.692 106.388C284.772 30.9509 115.59 -5.92951 -11.7716 0.77602C-34.5827 231.558 -66.5182 686.752 -11.7716 661.271C56.6616 629.42 90.8782 629.42 280.97 661.271C471.063 693.122 480.567 527.16 642.146 527.16C803.724 527.16 763.805 688.093 927.284 693.122C1090.76 698.151 1104.07 639.478 1265.65 661.271C1427.23 683.064 1461.44 773.589 1432.93 678.035C1404.42 582.481 1303.67 540.571 1153.49 527.16C1003.32 513.749 1009.02 408.137 953.897 290.79C898.77 173.443 752.399 148.298 604.127 181.825C455.855 215.353 364.611 181.825 324.692 106.388Z" fill="#201D52"/>
</svg>
