<svg width="627" height="416" viewBox="0 0 627 416" fill="none" xmlns="http://www.w3.org/2000/svg">
<path d="M155.331 403.746C114.648 395.477 74.5838 378.698 45.1419 349.525C15.6999 320.352 -1.84496 277.303 5.74566 236.51C12.2143 202.289 36.4841 171.936 68.473 158.269C117.29 137.446 173.853 155.035 226.119 145.294C276.728 135.789 318.435 101.593 359.783 70.8268C401.131 40.0602 448.093 10.5289 499.518 12.8687C530.73 14.3086 561.227 28.2443 582.843 50.9036C618.555 88.3406 626.971 144.645 621.188 196.07C619.244 213.899 615.653 231.55 608.649 248.019C590.402 291.168 550.997 321.294 512.368 347.726C482.139 368.311 450.683 388.453 415.357 397.777C384.88 405.842 352.954 405.485 321.575 405.278C280.703 404.843 239.006 404.388 200.074 392.037C181.769 386.233 163.943 377.69 150.648 363.894C137.353 350.098 129.154 330.512 132.225 311.611C135.276 293.534 149.011 277.64 166.487 272.148C180.219 267.804 194.906 269.533 209.381 268.645C245.081 266.618 278.273 248.717 306.068 226.287C333.864 203.856 357.641 176.791 383.698 152.256C413.136 124.502 445.665 99.8481 480.44 79.0983C491.893 72.2241 504.165 65.6448 517.549 64.3174C544.87 61.5385 570.25 82.2259 581.347 107.244C592.444 132.262 592.033 160.716 590.136 188.034C588.472 211.369 585.258 236.18 570.504 254.387C560.717 266.389 546.902 274.169 533.369 281.68C483.567 309.081 428.263 336.348 372.209 326.197C360.012 323.978 346.78 318.983 341.824 307.589C337.903 298.969 339.795 288.977 343.037 280.117C352.488 253.532 372.277 232.008 392.303 212.14C420.227 184.35 449.635 157.833 480.379 132.998C497.085 119.513 517.927 105.715 538.427 111.847C551.272 115.732 560.905 127.24 565.14 139.992C569.375 152.744 568.766 166.618 566.384 179.761C564.173 191.533 560.449 203.268 553.741 213.144C544.321 227.08 529.5 236.623 514.843 245.07C494.604 256.683 470.804 267.522 448.684 260.113C440.627 257.444 432.921 251.621 430.915 243.459C428.658 234.33 433.97 225.245 439.521 217.679C453.47 198.627 470.798 182.131 490.523 168.994C499.618 162.888 509.796 157.496 520.815 157.211C531.834 156.927 543.653 163.4 546.287 174.051C549.798 188.299 536.417 200.901 523.851 208.299C516.172 212.789 506.305 216.676 498.71 211.955C490.169 206.524 491.188 192.798 498.112 185.403C505.035 178.007 515.422 175.37 525.252 172.994C529.544 171.997 535.469 171.728 537.02 175.89C538.182 179.081 535.623 182.457 532.819 184.589C526.925 189.26 519.561 192.107 512.112 192.753C511.167 186.267 516.973 179.532 523.577 179.691" stroke="#5A609B" stroke-width="0.5" stroke-miterlimit="10"/>
</svg>
