<svg width="72" height="70" viewBox="0 0 72 70" fill="none" xmlns="http://www.w3.org/2000/svg">
<path d="M68.4001 0.200043H3.60018C2.64574 0.201154 1.73071 0.580795 1.05582 1.25568C0.380936 1.93057 0.00129467 2.8456 0.000183105 3.80004V66.1999C0.00129467 67.1544 0.380936 68.0694 1.05582 68.7443C1.73071 69.4192 2.64574 69.7988 3.60018 69.7999H68.4001C69.3545 69.7988 70.2695 69.4192 70.9444 68.7443C71.6193 68.0694 71.999 67.1544 72.0001 66.1999V3.80004C71.999 2.8456 71.6193 1.93057 70.9444 1.25568C70.2695 0.580795 69.3545 0.201154 68.4001 0.200043ZM3.60018 2.60004H68.4001C68.7182 2.6004 69.0232 2.72694 69.2482 2.9519C69.4732 3.17687 69.5997 3.48189 69.6001 3.80004V9.80003H2.40018V3.80004C2.40054 3.48189 2.52708 3.17687 2.75204 2.9519C2.97701 2.72694 3.28203 2.6004 3.60018 2.60004ZM68.4001 67.3999H3.60018C3.28203 67.3996 2.97701 67.273 2.75204 67.0481C2.52708 66.8231 2.40054 66.5181 2.40018 66.1999V12.2H69.6001V66.1999C69.5997 66.5181 69.4732 66.8231 69.2482 67.0481C69.0232 67.273 68.7182 67.3996 68.4001 67.3999Z" fill="white"/>
<path d="M15.6002 7.40004C16.2629 7.40004 16.8002 6.86278 16.8002 6.20004C16.8002 5.5373 16.2629 5.00005 15.6002 5.00005C14.9374 5.00005 14.4002 5.5373 14.4002 6.20004C14.4002 6.86278 14.9374 7.40004 15.6002 7.40004Z" fill="white"/>
<path d="M10.8002 7.40004C11.4629 7.40004 12.0002 6.86278 12.0002 6.20004C12.0002 5.5373 11.4629 5.00005 10.8002 5.00005C10.1374 5.00005 9.60019 5.5373 9.60019 6.20004C9.60019 6.86278 10.1374 7.40004 10.8002 7.40004Z" fill="white"/>
<path d="M6.00018 7.40004C6.66292 7.40004 7.20018 6.86278 7.20018 6.20004C7.20018 5.5373 6.66292 5.00005 6.00018 5.00005C5.33744 5.00005 4.80019 5.5373 4.80019 6.20004C4.80019 6.86278 5.33744 7.40004 6.00018 7.40004Z" fill="white"/>
<path d="M63.6001 17H8.40018C8.08192 17 7.77669 17.1265 7.55165 17.3515C7.32661 17.5766 7.20018 17.8818 7.20018 18.2V37.4C7.20018 37.7183 7.32661 38.0235 7.55165 38.2485C7.77669 38.4736 8.08192 38.6 8.40018 38.6H63.6001C63.9183 38.6 64.2236 38.4736 64.4486 38.2485C64.6737 38.0235 64.8001 37.7183 64.8001 37.4V18.2C64.8001 17.8818 64.6737 17.5766 64.4486 17.3515C64.2236 17.1265 63.9183 17 63.6001 17ZM43.9275 34.7698L46.8001 31.897L51.1032 36.2H45.0001L43.9275 34.7698ZM42.0001 36.2H32.4001L37.2001 29.8L42.0001 36.2ZM29.4001 36.2H20.3049L26.4001 27.4925L31.0011 34.0654L29.4001 36.2ZM62.4001 36.2H54.4971L47.6487 29.3515C47.5372 29.24 47.4049 29.1516 47.2593 29.0913C47.1138 29.031 46.9577 29 46.8001 29C46.6425 29 46.4865 29.031 46.3409 29.0913C46.1953 29.1516 46.063 29.24 45.9516 29.3515L42.4728 32.8303L38.1601 27.08C38.0484 26.931 37.9034 26.81 37.7368 26.7267C37.5702 26.6434 37.3864 26.6 37.2001 26.6C37.0138 26.6 36.8301 26.6434 36.6635 26.7267C36.4969 26.81 36.3519 26.931 36.2401 27.08L32.5164 32.045L27.3832 24.7118C27.2726 24.5538 27.1255 24.4247 26.9543 24.3356C26.7832 24.2465 26.5931 24.2 26.4001 24.2C26.2072 24.2 26.0171 24.2465 25.846 24.3356C25.6748 24.4247 25.5277 24.5538 25.417 24.7118L17.3754 36.2H9.60018V19.4H62.4001V36.2Z" fill="white"/>
<path d="M43.2001 26.6C43.8629 26.6 44.4001 26.0628 44.4001 25.4C44.4001 24.7373 43.8629 24.2001 43.2001 24.2001C42.5374 24.2001 42.0001 24.7373 42.0001 25.4C42.0001 26.0628 42.5374 26.6 43.2001 26.6Z" fill="white"/>
<path d="M40.8001 43.3999C41.4629 43.3999 42.0001 42.8627 42.0001 42.1999C42.0001 41.5372 41.4629 40.9999 40.8001 40.9999C40.1374 40.9999 39.6001 41.5372 39.6001 42.1999C39.6001 42.8627 40.1374 43.3999 40.8001 43.3999Z" fill="white"/>
<path d="M36.0001 43.3999C36.6629 43.3999 37.2001 42.8627 37.2001 42.1999C37.2001 41.5372 36.6629 40.9999 36.0001 40.9999C35.3374 40.9999 34.8001 41.5372 34.8001 42.1999C34.8001 42.8627 35.3374 43.3999 36.0001 43.3999Z" fill="white"/>
<path d="M31.2001 43.3999C31.8629 43.3999 32.4001 42.8627 32.4001 42.1999C32.4001 41.5372 31.8629 40.9999 31.2001 40.9999C30.5374 40.9999 30.0001 41.5372 30.0001 42.1999C30.0001 42.8627 30.5374 43.3999 31.2001 43.3999Z" fill="white"/>
<path d="M22.8002 45.7999H8.40018C8.08192 45.7999 7.77669 45.9263 7.55165 46.1514C7.32661 46.3764 7.20018 46.6817 7.20018 46.9999V56.5999C7.20018 56.9182 7.32661 57.2234 7.55165 57.4484C7.77669 57.6735 8.08192 57.7999 8.40018 57.7999H22.8002C23.1184 57.7999 23.4236 57.6735 23.6487 57.4484C23.8737 57.2234 24.0002 56.9182 24.0002 56.5999V46.9999C24.0002 46.6817 23.8737 46.3764 23.6487 46.1514C23.4236 45.9263 23.1184 45.7999 22.8002 45.7999ZM21.6002 48.1999V55.0632L16.3502 50.8632C16.1373 50.6928 15.8728 50.5999 15.6002 50.5999C15.3275 50.5999 15.063 50.6928 14.8502 50.8632L9.60018 55.0632V48.1999H21.6002ZM18.1793 55.3999H13.0211L15.6002 53.3367L18.1793 55.3999Z" fill="white"/>
<path d="M43.2001 45.7999H28.8001C28.4819 45.7999 28.1766 45.9263 27.9516 46.1514C27.7266 46.3764 27.6001 46.6817 27.6001 46.9999V56.5999C27.6001 56.9182 27.7266 57.2234 27.9516 57.4484C28.1766 57.6735 28.4819 57.7999 28.8001 57.7999H43.2001C43.5184 57.7999 43.8236 57.6735 44.0486 57.4484C44.2737 57.2234 44.4001 56.9182 44.4001 56.5999V46.9999C44.4001 46.6817 44.2737 46.3764 44.0486 46.1514C43.8236 45.9263 43.5184 45.7999 43.2001 45.7999ZM42.0001 48.1999V55.0632L36.7501 50.8632C36.5373 50.6928 36.2728 50.5999 36.0001 50.5999C35.7275 50.5999 35.4629 50.6928 35.2501 50.8632L30.0001 55.0632V48.1999H42.0001ZM38.5792 55.3999H33.421L36.0001 53.3367L38.5792 55.3999Z" fill="white"/>
<path d="M63.6001 45.7999H49.2001C48.8819 45.7999 48.5766 45.9263 48.3516 46.1514C48.1265 46.3764 48.0001 46.6817 48.0001 46.9999V56.5999C48.0001 56.9182 48.1265 57.2234 48.3516 57.4484C48.5766 57.6735 48.8819 57.7999 49.2001 57.7999H63.6001C63.9184 57.7999 64.2236 57.6735 64.4486 57.4484C64.6737 57.2234 64.8001 56.9182 64.8001 56.5999V46.9999C64.8001 46.6817 64.6737 46.3764 64.4486 46.1514C64.2236 45.9263 63.9184 45.7999 63.6001 45.7999ZM62.4001 48.1999V55.0632L57.1501 50.8632C56.9373 50.6928 56.6728 50.5999 56.4001 50.5999C56.1275 50.5999 55.8629 50.6928 55.6501 50.8632L50.4001 55.0632V48.1999H62.4001ZM58.9792 55.3999H53.821L56.4001 53.3367L58.9792 55.3999Z" fill="white"/>
<path d="M20.4002 60.1999H10.8002C10.4819 60.1999 10.1767 60.3263 9.95166 60.5514C9.72662 60.7764 9.60019 61.0817 9.60019 61.3999C9.60019 61.7182 9.72662 62.0234 9.95166 62.2484C10.1767 62.4735 10.4819 62.5999 10.8002 62.5999H20.4002C20.7184 62.5999 21.0237 62.4735 21.2487 62.2484C21.4737 62.0234 21.6002 61.7182 21.6002 61.3999C21.6002 61.0817 21.4737 60.7764 21.2487 60.5514C21.0237 60.3263 20.7184 60.1999 20.4002 60.1999Z" fill="white"/>
<path d="M40.8001 60.1999H31.2001C30.8819 60.1999 30.5766 60.3263 30.3516 60.5514C30.1265 60.7764 30.0001 61.0817 30.0001 61.3999C30.0001 61.7182 30.1265 62.0234 30.3516 62.2484C30.5766 62.4735 30.8819 62.5999 31.2001 62.5999H40.8001C41.1184 62.5999 41.4236 62.4735 41.6486 62.2484C41.8737 62.0234 42.0001 61.7182 42.0001 61.3999C42.0001 61.0817 41.8737 60.7764 41.6486 60.5514C41.4236 60.3263 41.1184 60.1999 40.8001 60.1999Z" fill="white"/>
<path d="M61.2 60.1999H51.6001C51.2818 60.1999 50.9766 60.3263 50.7515 60.5514C50.5265 60.7764 50.4001 61.0817 50.4001 61.3999C50.4001 61.7182 50.5265 62.0234 50.7515 62.2484C50.9766 62.4735 51.2818 62.5999 51.6001 62.5999H61.2C61.5183 62.5999 61.8235 62.4735 62.0486 62.2484C62.2736 62.0234 62.4 61.7182 62.4 61.3999C62.4 61.0817 62.2736 60.7764 62.0486 60.5514C61.8235 60.3263 61.5183 60.1999 61.2 60.1999Z" fill="white"/>
</svg>
