<svg width="517" height="440" viewBox="0 0 517 440" fill="none" xmlns="http://www.w3.org/2000/svg">
<path opacity="0.2" d="M447.51 259.356C447.51 261.217 446.181 263.21 443.391 264.804L404.062 302.272C399.146 305.196 391.573 305.461 387.321 302.937L315.839 261.482C313.713 260.286 312.783 258.692 312.916 256.965C312.916 257.098 312.916 257.098 312.916 257.231C312.916 257.231 312.916 262.545 312.916 262.678C312.916 264.272 313.846 265.734 315.839 266.797L387.321 308.384C391.573 310.909 399.146 310.51 404.062 307.72L443.391 270.251C446.181 268.657 447.51 266.664 447.51 264.671C447.51 264.272 447.643 260.685 447.51 259.356Z" fill="url(#paint0_linear)"/>
<g opacity="0.2">
<path opacity="0.090909" d="M314.377 244.076L377.09 219.895C380.678 217.902 385.062 216.706 389.58 216.839C391.44 216.839 393.3 217.104 395.027 217.503C396.622 217.902 398.482 218.699 399.811 219.363L446.181 246.601L447.51 247.398C451.23 249.657 452.824 252.979 452.692 256.699C452.426 260.552 449.636 264.671 445.517 267.062L406.985 303.867C403.531 305.86 399.146 306.923 394.762 306.923C390.908 306.923 387.454 306.125 384.664 304.531L313.181 263.076C309.594 260.951 307.468 257.762 307.601 254.041C307.601 250.321 310.125 246.601 314.377 244.076Z" fill="black"/>
<path opacity="0.1818" d="M314.643 244.608L377.357 220.426C380.811 218.433 385.329 217.37 389.713 217.37C391.573 217.37 393.434 217.769 395.028 218.168C396.489 218.566 398.615 219.496 399.678 220.161L445.783 247.133C445.916 247.133 447.112 247.93 447.112 247.93C450.699 250.189 451.895 253.643 451.496 257.23C451.098 260.685 447.909 265.202 444.322 267.328L406.454 303.468C403.133 305.461 398.881 306.524 394.496 306.524C390.776 306.524 387.322 305.727 384.664 304.132L313.182 262.678C309.727 260.685 307.734 257.629 307.867 254.175C308.133 250.454 310.525 247 314.643 244.608Z" fill="black"/>
<path opacity="0.2727" d="M314.908 245.007L377.621 220.825C381.076 218.832 385.593 217.769 389.978 217.902C391.838 217.902 393.698 218.3 395.293 218.699C396.621 219.098 398.88 220.161 399.943 220.692L445.782 247.531C445.915 247.664 446.978 248.328 447.111 248.328C450.565 250.587 451.363 253.909 450.698 257.629C450.167 260.685 446.712 265.468 443.391 267.461L406.188 302.937C402.866 304.797 398.747 305.86 394.628 305.86C391.041 305.86 387.719 305.063 385.062 303.601L313.58 262.147C310.258 260.286 308.398 257.23 308.531 254.042C308.664 250.72 310.922 247.398 314.908 245.007Z" fill="black"/>
<path opacity="0.3636" d="M315.174 245.538L377.887 221.356C381.342 219.363 385.859 218.3 390.111 218.566C391.971 218.699 393.831 219.098 395.426 219.496C396.489 219.762 399.146 221.091 400.076 221.622L445.649 248.328C445.782 248.461 446.845 248.993 446.978 249.126C450.433 251.384 451.495 254.972 449.901 258.293C449.901 260.951 445.384 266.132 442.593 267.86L406.188 302.671C402.999 304.531 398.88 305.594 394.894 305.594C391.307 305.594 388.118 304.93 385.593 303.468L314.111 262.014C310.922 260.153 309.195 257.363 309.328 254.307C309.328 250.853 311.454 247.664 315.174 245.538Z" fill="black"/>
<path opacity="0.4545" d="M315.44 245.937L378.153 221.888C381.608 219.895 386.125 218.965 390.377 219.098C392.237 219.23 393.964 219.629 395.559 220.16C396.489 220.426 399.279 221.888 400.076 222.286L445.384 248.86C445.65 248.993 446.58 249.524 446.713 249.657C450.034 252.049 450.831 255.503 448.838 258.825C448.838 261.083 443.922 266.664 441.398 267.993L405.657 302.139C402.468 304 398.615 304.93 394.629 304.93C391.174 304.93 387.985 304.265 385.594 302.804L314.244 261.349C311.188 259.622 309.594 256.965 309.727 254.042C309.86 250.986 311.853 248.063 315.44 245.937Z" fill="black"/>
<path opacity="0.5455" d="M315.706 246.468L378.419 222.286C381.873 220.293 386.391 219.363 390.51 219.629C392.37 219.762 394.097 220.293 395.691 220.692C396.489 220.958 399.545 222.552 400.209 222.818L445.251 249.258C445.517 249.391 446.314 249.923 446.58 250.056C449.901 252.447 450.3 256.035 447.908 259.091C447.908 260.951 442.461 266.797 440.468 267.993L405.391 301.475C402.335 303.202 398.482 304.132 394.761 304.265C391.44 304.265 388.384 303.601 385.992 302.272L314.51 260.818C311.587 259.223 310.125 256.699 310.258 254.042C310.391 251.251 312.384 248.461 315.706 246.468Z" fill="black"/>
<path opacity="0.6364" d="M316.105 247L378.818 222.818C382.272 220.825 386.79 219.895 390.909 220.293C392.769 220.426 394.496 220.958 396.091 221.489C396.755 221.755 399.944 223.482 400.475 223.748L445.384 250.056C445.65 250.189 446.447 250.72 446.713 250.853C449.902 253.244 450.167 256.832 447.244 259.888C447.244 261.349 441.398 267.594 439.671 268.524L405.391 301.209C402.468 302.937 398.615 303.867 395.028 303.867C391.839 303.867 388.783 303.202 386.391 301.874L314.776 260.419C312.119 258.825 310.657 256.566 310.79 254.042C310.923 251.384 312.783 248.86 316.105 247Z" fill="black"/>
<path opacity="0.7273" d="M316.371 247.398L379.084 223.216C382.538 221.223 387.056 220.426 391.175 220.692C393.035 220.825 394.762 221.489 396.224 222.021C396.755 222.154 400.21 224.147 400.608 224.279L445.252 250.454C445.65 250.72 446.315 251.119 446.58 251.384C449.636 253.776 449.636 257.496 446.447 260.419C446.447 261.615 440.07 267.993 438.874 268.79L405.259 300.811C402.336 302.538 398.748 303.335 395.161 303.335C391.972 303.335 389.049 302.671 386.79 301.475L315.308 260.021C312.783 258.559 311.455 256.433 311.587 254.042C311.587 251.517 313.315 249.126 316.371 247.398Z" fill="black"/>
<path opacity="0.8182" d="M316.636 247.93L379.349 223.748C382.804 221.755 387.321 220.958 391.307 221.356C393.168 221.489 394.762 222.154 396.356 222.685C396.622 222.818 400.342 224.944 400.608 225.077L444.986 251.119C445.384 251.384 445.916 251.783 446.314 252.049C449.37 254.573 448.972 258.161 445.384 260.951C445.384 261.748 438.475 268.524 437.678 268.923L404.727 300.279C401.937 301.874 398.349 302.804 394.895 302.804C391.839 302.804 388.916 302.272 386.79 300.944L315.308 259.489C312.916 258.028 311.72 256.035 311.853 254.042C312.119 251.783 313.713 249.524 316.636 247.93Z" fill="black"/>
<path opacity="0.9091" d="M316.901 248.328L379.614 224.146C383.069 222.153 387.586 221.356 391.573 221.888C393.433 222.153 395.027 222.818 396.489 223.349C396.621 223.349 400.607 225.741 400.74 225.741L444.852 251.517C445.251 251.783 445.782 252.048 446.181 252.447C449.104 254.972 448.44 258.692 444.454 261.349C444.454 261.748 437.146 268.79 436.747 269.055L404.593 299.748C401.936 301.342 398.482 302.139 395.16 302.139C392.237 302.139 389.447 301.608 387.321 300.412L315.838 258.958C313.58 257.629 312.517 255.769 312.65 253.909C312.65 251.916 314.111 249.923 316.901 248.328Z" fill="black"/>
<path opacity="0.2" d="M387.321 300.013L315.839 258.559C311.587 256.034 312.118 251.783 317.034 248.86L379.748 224.678C384.664 221.755 392.237 221.489 396.489 224.014L444.454 252.181C448.705 254.706 448.174 258.958 443.258 261.881L403.929 299.349C399.146 302.139 391.706 302.538 387.321 300.013Z" fill="black"/>
</g>
<path d="M387.322 299.881L315.839 258.426C313.979 257.363 312.916 255.902 312.916 254.307C312.916 254.307 312.916 248.993 312.916 248.86C312.916 247 314.378 250.189 317.035 248.727L379.881 224.545C384.797 221.622 392.371 221.356 396.622 223.881L444.587 252.049C446.049 252.846 447.112 249.391 447.377 250.454C447.51 250.853 447.377 255.769 447.377 256.168C447.377 258.161 446.049 260.154 443.259 261.748L403.93 299.216C399.147 302.14 391.706 302.405 387.322 299.881Z" fill="url(#paint1_linear)"/>
<path d="M387.321 294.566L315.839 253.112C311.587 250.587 312.118 246.335 317.034 243.412L379.748 219.231C384.664 216.307 392.237 216.042 396.489 218.566L444.454 246.734C448.705 249.258 448.174 253.51 443.258 256.433L403.929 293.902C399.146 296.825 391.706 297.091 387.321 294.566Z" fill="url(#paint2_linear)"/>
<path opacity="0.6" d="M443.391 255.503L404.063 292.972C399.147 295.895 391.573 296.161 387.322 293.636L315.839 252.182C314.112 251.119 313.049 249.79 312.916 248.328C312.65 250.056 313.58 251.783 315.839 252.979L387.322 294.566C391.573 297.091 399.147 296.692 404.063 293.902L443.391 256.433C446.315 254.706 447.643 252.58 447.51 250.587C447.245 252.314 445.916 254.042 443.391 255.503Z" fill="url(#paint3_radial)"/>
<path d="M480.727 294.832L305.21 193.454C296.308 188.273 289 174.322 289 162.364V28.1679C289 16.2099 296.308 10.7623 305.21 15.9441L480.727 117.322C489.762 122.503 496.937 136.454 496.937 148.412V282.608C496.937 294.566 489.762 300.014 480.727 294.832Z" fill="url(#paint4_linear)"/>
<path d="M482.853 285.531L309.861 185.482C302.686 180.832 298.168 171.664 298.168 162.364V27.2378C298.168 24.9791 300.56 23.6504 302.553 24.7133C302.819 24.8462 302.952 24.9791 303.084 24.9791L476.343 125.028C484.979 129.944 488.035 138.846 488.035 148.147V283.007C488.035 285.398 485.511 286.86 483.385 285.664C483.119 285.664 482.986 285.531 482.853 285.531Z" fill="url(#paint5_linear)"/>
<path d="M476.209 125.161L302.951 25.1118C302.818 25.1118 302.685 24.9789 302.419 24.846C300.559 23.7831 298.035 25.1118 298.035 27.3705V162.496C298.035 171.93 302.552 181.098 309.727 185.615L482.72 285.531C482.853 285.531 482.986 285.664 483.118 285.797C485.244 286.993 487.769 285.531 487.769 283.139V148.412C487.902 138.979 484.713 130.21 476.209 125.161ZM486.041 283.007C486.041 283.804 485.377 284.335 484.713 284.335C484.447 284.335 484.314 284.335 484.048 284.202L310.79 184.021C304.279 179.902 300.028 171.398 300.028 162.496V27.2376C300.028 26.5733 300.559 26.1747 301.091 26.1747C301.224 26.1747 301.489 26.1747 301.622 26.3076L475.412 126.755C484.314 131.937 486.174 141.37 486.174 148.279V283.007H486.041Z" fill="#BCBEC0"/>
<path d="M485.377 114.797L309.86 13.4195C306.272 11.4265 302.951 11.0279 300.293 12.0908C299.895 12.2237 295.377 14.6153 295.111 14.7482C297.902 13.4195 301.356 13.6852 305.209 15.8111L480.727 117.189C489.761 122.37 496.936 136.321 496.936 148.28V282.475C496.936 289.916 494.146 294.832 489.761 296.293C490.16 296.293 490.559 296.16 491.223 295.762C491.489 295.629 496.405 292.839 496.538 292.706C499.594 290.58 501.587 286.063 501.587 279.951V145.755C501.587 133.93 494.279 119.979 485.377 114.797Z" fill="url(#paint6_linear)"/>
<path opacity="0.6" d="M481.525 116.923L306.007 15.5454C302.287 13.4195 298.966 13.1538 296.175 14.3496C298.434 13.951 301.224 14.4824 304.014 16.2097L479.532 117.587C488.567 122.769 495.742 136.72 495.742 148.678V282.874C495.742 289.916 493.217 294.699 489.231 296.426C494.28 295.629 497.602 290.447 497.602 282.342V148.147C497.735 136.056 490.56 122.105 481.525 116.923Z" fill="url(#paint7_radial)"/>
<g opacity="0.2">
<path opacity="0.090909" d="M382.67 242.881L389.712 239.028C389.978 238.895 403.132 231.72 403.398 231.853L407.915 229.594C409.908 228.399 412.964 228 415.489 228C417.747 228 420.139 228.664 421.733 229.594L453.356 247.531L459.999 251.385L498.265 273.175C499.461 273.839 500.656 275.035 501.188 276.098C501.719 277.028 501.985 277.958 501.985 278.888C502.118 281.412 500.524 283.804 497.733 285.398L490.691 289.252C490.426 289.384 477.272 296.559 477.006 296.426L472.489 298.685C470.496 299.881 467.44 300.28 464.915 300.28C462.656 300.28 460.265 299.615 458.67 298.685L427.048 280.748L420.405 276.895L382.139 255.105C380.943 254.44 379.747 253.245 379.216 252.182C378.684 251.252 378.419 250.322 378.419 249.392C378.286 247 379.88 244.608 382.67 242.881Z" fill="black"/>
<path opacity="0.1818" d="M383.335 243.545L390.111 239.825C390.643 239.559 402.999 233.049 403.398 233.314L407.782 231.454C409.643 230.391 412.831 230.391 415.09 230.391C417.083 230.391 419.74 231.188 421.069 232.119L451.761 249.524L458.272 253.244L495.475 274.37C496.538 275.035 497.866 276.098 498.398 277.16C498.929 277.958 499.195 278.888 499.328 279.818C499.461 282.209 497.999 284.601 495.209 286.195L488.433 289.916C487.901 290.181 475.545 296.692 475.146 296.426L470.761 298.286C468.901 299.349 465.712 299.349 463.454 299.349C461.461 299.349 458.803 298.552 457.475 297.622L426.782 280.216L420.272 276.496L383.069 255.37C382.006 254.706 380.678 253.643 380.146 252.58C379.615 251.783 379.349 250.853 379.216 249.923C379.083 247.398 380.545 245.14 383.335 243.545Z" fill="black"/>
<path opacity="0.2727" d="M383.999 244.077L390.642 240.489C391.439 239.958 402.999 234.245 403.663 234.643L407.915 233.182C409.509 232.252 412.964 232.517 414.957 232.517C416.817 232.517 419.474 233.58 420.803 234.245L450.565 251.252L456.81 254.839L492.817 275.433C493.747 275.965 495.208 277.161 495.74 278.091C496.271 278.888 496.537 279.685 496.67 280.615C496.936 282.874 495.474 285.266 492.817 286.727L486.173 290.315C485.376 290.846 473.817 296.559 473.153 296.161L468.901 297.622C467.306 298.552 463.852 298.287 461.859 298.287C459.999 298.287 457.341 297.224 456.013 296.559L426.25 279.552L420.006 275.965L383.999 255.371C383.069 254.839 381.607 253.643 381.076 252.713C380.544 251.916 380.278 251.119 380.146 250.189C379.88 247.93 381.341 245.671 383.999 244.077Z" fill="black"/>
<path opacity="0.3636" d="M384.664 244.608L391.041 241.154C392.237 240.489 402.734 235.44 403.797 235.972L407.915 234.909C409.377 234.112 412.831 234.643 414.692 234.643C416.286 234.643 419.209 235.839 420.272 236.503L449.104 252.979L455.216 256.433L490.16 276.364C490.957 276.895 492.552 278.091 492.95 278.755C493.482 279.552 493.88 280.35 494.013 281.147C494.279 283.405 492.95 285.531 490.293 287.126L483.915 290.58C482.72 291.245 472.223 296.294 471.16 295.762L467.041 296.825C465.58 297.622 462.125 297.091 460.265 297.091C458.671 297.091 455.748 295.895 454.685 295.231L425.852 278.888L419.741 275.433L384.797 255.503C383.999 254.972 382.405 253.776 382.006 253.112C381.475 252.315 381.076 251.517 380.943 250.72C380.811 248.329 382.006 246.07 384.664 244.608Z" fill="black"/>
<path opacity="0.4545" d="M385.461 245.14L391.706 241.818C393.167 241.021 402.866 236.636 404.062 237.301L408.048 236.636C409.244 235.972 412.964 236.769 414.559 236.769C415.887 236.769 418.943 238.098 419.873 238.629L447.775 254.573L453.622 257.895L487.37 277.294C488.167 277.692 489.761 279.021 490.16 279.552C490.691 280.349 491.09 281.014 491.223 281.811C491.621 283.937 490.293 286.063 487.768 287.657L481.524 290.979C480.062 291.776 470.363 296.161 469.167 295.496L465.181 296.161C463.985 296.825 460.265 296.028 458.67 296.028C457.342 296.028 454.286 294.699 453.356 294.168L425.454 278.224L419.608 274.902L385.859 255.503C385.062 255.105 383.468 253.776 383.069 253.245C382.538 252.447 382.139 251.783 382.006 250.986C381.608 248.86 382.803 246.601 385.461 245.14Z" fill="black"/>
<path opacity="0.5455" d="M386.125 245.671L392.237 242.482C393.964 241.552 402.866 237.832 404.328 238.629L408.181 238.364C409.244 237.832 413.097 239.028 414.426 239.028C415.488 239.028 418.81 240.489 419.607 241.021L446.579 256.433L452.293 259.755L484.978 278.489C485.642 278.888 487.37 280.217 487.768 280.615C488.3 281.28 488.698 281.944 488.964 282.741C489.363 284.734 488.3 286.86 485.642 288.322L479.53 291.51C477.803 292.44 468.901 296.161 467.439 295.363L463.586 295.629C462.523 296.161 458.67 294.965 457.342 294.965C456.279 294.965 452.957 293.503 452.16 292.972L425.188 277.559L419.474 274.238L386.789 255.503C386.125 255.105 384.398 253.776 383.999 253.378C383.468 252.713 383.069 252.049 382.803 251.252C382.405 249.259 383.6 247.133 386.125 245.671Z" fill="black"/>
<path opacity="0.6364" d="M386.789 246.203L392.635 243.147C394.628 241.951 402.733 239.028 404.461 239.958L408.181 240.224C408.978 239.692 413.097 241.287 414.16 241.287C415.09 241.287 418.412 243.014 419.076 243.28L445.118 258.161L450.565 261.35L482.188 279.42C482.719 279.685 484.579 281.014 484.845 281.413C485.377 282.077 485.908 282.741 486.041 283.406C486.572 285.266 485.509 287.392 482.985 288.853L477.139 291.909C475.146 293.105 467.041 296.028 465.314 295.098L461.593 294.832C460.796 295.364 456.677 293.769 455.614 293.769C454.684 293.769 451.363 292.042 450.698 291.776L424.656 276.895L419.209 273.706L387.586 255.636C387.055 255.371 385.195 254.042 384.929 253.643C384.398 252.979 383.866 252.315 383.733 251.65C383.202 249.79 384.265 247.664 386.789 246.203Z" fill="black"/>
<path opacity="0.7273" d="M387.454 246.867L393.167 243.944C395.426 242.615 402.734 240.357 404.727 241.42L408.314 242.084C408.978 241.685 413.23 243.545 414.027 243.545C414.692 243.545 418.279 245.406 418.678 245.671L443.79 260.021L449.104 263.077L479.531 280.615C479.929 280.881 482.055 282.21 482.188 282.475C482.852 283.007 483.251 283.671 483.517 284.336C484.048 286.196 483.118 288.189 480.594 289.517L474.88 292.44C472.622 293.769 465.314 296.028 463.321 294.965L459.734 294.301C459.069 294.699 454.818 292.839 454.02 292.839C453.356 292.839 449.769 290.979 449.37 290.713L424.391 276.364L419.076 273.308L388.65 255.769C388.251 255.503 386.125 254.175 385.992 253.909C385.328 253.378 384.93 252.713 384.664 252.049C383.999 250.189 385.062 248.196 387.454 246.867Z" fill="black"/>
<path opacity="0.8182" d="M388.251 247.399L393.699 244.608C396.223 243.147 402.734 241.552 404.86 242.881L408.314 243.944C408.713 243.678 413.23 245.937 413.762 245.937C414.16 245.937 417.88 247.93 418.279 248.063L442.461 262.014L447.51 264.937L476.873 281.811C477.139 281.944 479.398 283.405 479.531 283.538C480.195 284.07 480.594 284.601 480.859 285.266C481.524 286.993 480.594 288.853 478.202 290.315L472.755 293.105C470.23 294.566 463.72 296.161 461.594 294.832L458.139 293.769C457.741 294.035 453.223 291.776 452.692 291.776C452.293 291.776 448.573 289.783 448.174 289.65L423.992 275.699L418.943 272.776L389.58 255.902C389.314 255.769 387.055 254.308 386.922 254.175C386.258 253.643 385.86 253.112 385.594 252.447C384.797 250.72 385.86 248.727 388.251 247.399Z" fill="black"/>
<path opacity="0.9091" d="M388.914 247.93L394.229 245.272C397.019 243.678 402.6 242.748 405.124 244.21L408.446 245.671C408.712 245.538 413.362 248.063 413.628 248.063C413.893 248.063 417.747 250.189 417.88 250.321L441.131 263.741L446.047 266.531L474.215 282.741C474.348 282.874 476.74 284.202 476.872 284.335C477.537 284.734 478.068 285.265 478.334 285.93C479.131 287.524 478.201 289.384 475.81 290.846L470.495 293.503C467.705 295.098 462.124 296.028 459.6 294.566L456.278 293.105C456.012 293.237 451.362 290.713 451.096 290.713C450.831 290.713 446.977 288.587 446.845 288.454L423.593 275.035L418.677 272.244L390.509 256.035C390.376 255.902 387.984 254.573 387.852 254.44C387.187 254.042 386.656 253.51 386.39 252.846C385.726 251.119 386.523 249.258 388.914 247.93Z" fill="black"/>
<path opacity="0.2" d="M457.474 294.3L423.195 274.37L388.915 254.573C386.258 252.979 386.523 250.321 389.712 248.461L394.761 245.937C397.95 244.077 402.6 243.944 405.391 245.538L439.67 265.335L473.95 285.133C476.607 286.727 476.342 289.384 473.153 291.244L468.104 293.769C464.915 295.629 460.265 295.762 457.474 294.3Z" fill="black"/>
</g>
<g opacity="0.8">
<path opacity="0.7" d="M428.378 210.063V207.804L410.84 197.839V200.098L428.378 210.063Z" fill="#D1B4E3"/>
<path opacity="0.8" d="M416.685 194.783L379.35 173.259V175.517L416.685 197.042V194.783Z" fill="#D1B4E3"/>
<path opacity="0.8" d="M438.608 195.049L379.349 161.035V164.224L438.608 198.238V195.049Z" fill="#D1B4E3"/>
<path opacity="0.8" d="M407.783 184.951L379.35 168.608V170.867L407.783 187.21V184.951Z" fill="#D1B4E3"/>
<path opacity="0.8" d="M410.042 186.147V188.405L461.195 217.503V215.244L410.042 186.147Z" fill="#D1B4E3"/>
<path opacity="0.8" d="M418.944 196.112V198.37L444.853 213.119V210.86L418.944 196.112Z" fill="#D1B4E3"/>
<path opacity="0.8" d="M440.867 199.434L479.93 221.622V218.433L440.867 196.378V199.434Z" fill="#D1B4E3"/>
<path opacity="0.8" d="M463.322 218.832L479.93 228.266V226.007L463.322 216.573V218.832Z" fill="#D1B4E3"/>
<path opacity="0.8" d="M446.98 214.447L479.931 232.916V230.657L446.98 212.189V214.447Z" fill="#D1B4E3"/>
<path opacity="0.7" d="M408.713 196.643L379.35 179.769V182.028L408.713 198.902V196.643Z" fill="#D1B4E3"/>
<path opacity="0.7" d="M430.504 211.259L448.441 221.489V219.231L430.504 209V211.259Z" fill="#D1B4E3"/>
</g>
<g opacity="0.8">
<path opacity="0.7" d="M428.378 241.153V238.895L410.84 229.063V231.321L428.378 241.153Z" fill="#D1B4E3"/>
<path opacity="0.8" d="M416.685 225.874L379.35 204.482V206.741L416.685 228.132V225.874Z" fill="#D1B4E3"/>
<path opacity="0.8" d="M413.363 211.79L379.349 192.258V195.314L413.363 214.979V211.79Z" fill="#D1B4E3"/>
<path opacity="0.8" d="M401.007 212.189L379.35 199.699V201.958L401.007 214.447V212.189Z" fill="#D1B4E3"/>
<path opacity="0.8" d="M403.134 213.517V215.776L461.196 248.594V246.335L403.134 213.517Z" fill="#D1B4E3"/>
<path opacity="0.8" d="M418.944 227.203V229.461L437.545 240.223V237.965L418.944 227.203Z" fill="#D1B4E3"/>
<path opacity="0.8" d="M463.322 249.923L479.93 259.356V257.097L463.322 247.664V249.923Z" fill="#D1B4E3"/>
<path opacity="0.8" d="M439.804 241.552L466.245 256.3V254.041L439.804 239.293V241.552Z" fill="#D1B4E3"/>
<path opacity="0.7" d="M408.713 227.734L379.35 210.993V213.252L408.713 229.993V227.734Z" fill="#D1B4E3"/>
<path opacity="0.7" d="M430.504 242.482L448.441 252.58V250.321L430.504 240.224V242.482Z" fill="#D1B4E3"/>
<g opacity="0.8">
<path opacity="0.8" d="M452.559 234.112L415.622 213.119V216.307L452.559 237.3V234.112Z" fill="#D1B4E3"/>
<path opacity="0.8" d="M454.818 235.44V238.629L479.93 252.713V249.657L454.818 235.44Z" fill="#D1B4E3"/>
</g>
</g>
<path d="M369.253 207.538L310.127 173.524V69.8879L369.253 104.035V207.538Z" fill="url(#paint8_linear)"/>
<path opacity="0.9" d="M311.323 70.4192L369.386 103.769V158.51L311.323 70.4192Z" fill="url(#paint9_linear)"/>
<path opacity="0.8" d="M314.246 71.8808L369.385 103.769V120.909L314.246 71.8808Z" fill="url(#paint10_linear)"/>
<path d="M479.931 209.133L379.218 151.336V108.552L479.931 166.482V209.133Z" fill="url(#paint11_linear)"/>
<path opacity="0.9" d="M406.854 124.496L479.931 166.615V203.951L406.854 124.496Z" fill="url(#paint12_linear)"/>
<path opacity="0.8" d="M406.588 124.363L479.931 166.615V177.112L406.588 124.363Z" fill="url(#paint13_linear)"/>
<path d="M347.197 74.2725V70.1537C347.197 68.4264 348.26 67.6292 349.456 68.4264L433.029 117.056C434.358 117.853 435.288 119.846 435.288 121.44V125.559C435.288 127.286 434.225 128.084 433.029 127.286L349.456 78.6571C348.127 77.9928 347.197 75.9998 347.197 74.2725Z" fill="url(#paint14_linear)"/>
<path d="M434.358 126.623L350.785 77.9935C349.456 77.1963 348.526 75.2033 348.526 73.6089V69.49C348.526 68.9585 348.659 68.5599 348.792 68.1613C347.862 68.0285 347.198 68.8257 347.198 70.1543V74.2732C347.198 76.0005 348.26 77.9935 349.456 78.6578L433.03 127.287C433.96 127.819 434.624 127.553 435.023 126.889C434.89 126.889 434.624 126.756 434.358 126.623Z" fill="#9F79C8"/>
<path opacity="0.8" d="M335.903 66.035C335.903 68.028 334.574 68.8252 332.847 67.7622C331.119 66.8322 329.791 64.4406 329.791 62.4476C329.791 60.4546 331.119 59.6574 332.847 60.7203C334.574 61.7832 335.903 64.1748 335.903 66.035Z" fill="url(#paint15_linear)"/>
<path d="M326.204 60.5873C326.204 62.5803 324.875 63.3775 323.148 62.3146C321.42 61.3845 320.092 58.9929 320.092 56.9999C320.092 55.0069 321.42 54.2097 323.148 55.2726C324.742 56.3356 326.204 58.7272 326.204 60.5873Z" fill="url(#paint16_linear)"/>
<path d="M316.239 55.0069C316.239 56.9999 314.91 57.7971 313.183 56.7341C311.455 55.8041 310.127 53.4125 310.127 51.4195C310.127 49.4264 311.455 48.6292 313.183 49.6922C314.91 50.7551 316.239 53.1467 316.239 55.0069Z" fill="url(#paint17_linear)"/>
<path d="M389.581 122.37L394.763 125.293L398.616 155.189L394.896 153.063L394.232 147.217V147.349L389.98 144.825L389.315 149.874L385.861 147.881L389.581 122.37ZM393.7 143.231L391.973 128.615H391.84L390.246 141.37L393.7 143.231Z" fill="white"/>
<path d="M400.344 128.615L406.057 131.937C407.918 133 409.379 134.461 410.309 136.056C411.239 137.783 411.771 139.776 411.771 141.902V155.853C411.771 158.111 411.239 159.573 410.309 160.104C409.379 160.769 407.918 160.503 406.057 159.44L400.344 156.118V128.615ZM406.057 155.587C406.722 155.986 407.12 155.986 407.519 155.72C407.785 155.454 408.05 154.923 408.05 153.993V139.643C408.05 138.713 407.918 137.916 407.519 137.251C407.12 136.587 406.722 136.188 406.057 135.79L404.197 134.727V154.391L406.057 155.587Z" fill="white"/>
<path d="M326.867 135.126L333.909 139.245L339.224 180.301L334.042 177.245L333.112 169.14V169.273L327.266 165.818L326.336 172.727L321.553 169.937L326.867 135.126ZM332.581 163.692L330.322 143.629H330.189L327.93 161.035L332.581 163.692Z" fill="white"/>
<path d="M341.881 143.762L349.853 148.279C352.377 149.741 354.37 151.734 355.699 153.993C357.028 156.384 357.692 159.042 357.692 162.098V181.23C357.692 184.286 357.028 186.279 355.699 187.077C354.37 187.874 352.51 187.608 349.853 186.147L341.881 181.629V143.762ZM349.72 180.699C350.517 181.23 351.182 181.23 351.713 180.965C352.112 180.699 352.377 179.902 352.377 178.573V158.909C352.377 157.58 352.112 156.517 351.713 155.72C351.314 154.923 350.65 154.259 349.72 153.727L347.063 152.265V179.37L349.72 180.699Z" fill="white"/>
<path d="M462.924 141.37L480.329 151.335V146.685L462.924 136.72V141.37Z" fill="#9F79C8"/>
<path d="M440.868 128.482L458.141 138.447V133.664L440.868 123.699V128.482Z" fill="#9F79C8"/>
<path d="M517 271.713H516.07V135.126C516.07 123.168 508.762 109.217 499.727 104.035L321.154 0.797202L321.686 0L500.259 103.105C509.559 108.419 517 122.769 517 135.126V271.713Z" fill="url(#paint18_radial)"/>
<path d="M302.275 371.878L247.64 340.29C241.404 336.765 236.523 327.14 236.523 319.006V289.994C236.523 285.791 233.134 284.842 235.168 283.351C235.303 283.351 240.048 281.046 240.184 281.046C242.488 280.232 244.793 279.826 247.776 281.453L302.275 313.041C308.511 316.565 313.392 326.191 313.392 334.325V363.337C313.392 367.675 312.036 370.794 309.731 372.285C309.596 372.42 303.766 375.132 303.631 375.132C301.733 375.81 304.986 373.369 302.275 371.878Z" fill="url(#paint19_linear)"/>
<path opacity="0.6" d="M298.073 373.776L243.438 342.188C237.202 338.663 232.321 329.038 232.321 320.904V291.891C232.321 283.622 237.337 279.826 243.438 283.486L298.073 315.074C304.309 318.599 309.19 328.224 309.19 336.359V365.371C309.325 373.505 304.309 377.301 298.073 373.776Z" fill="url(#paint20_radial)"/>
<path d="M297.124 374.318L242.489 342.73C236.253 339.206 231.372 329.58 231.372 321.446V292.298C231.372 284.028 236.388 280.232 242.489 283.893L297.124 315.481C303.36 319.006 308.241 328.631 308.241 336.765V365.777C308.241 374.047 303.224 377.843 297.124 374.318Z" fill="url(#paint21_linear)"/>
<path d="M232.728 322.395V293.247C232.728 286.062 237.066 282.673 242.489 285.791L296.853 317.243C302.275 320.361 306.614 328.767 306.614 335.952V365.1C306.614 372.285 302.275 375.674 296.853 372.556L242.624 341.104C237.202 337.986 232.728 329.58 232.728 322.395Z" fill="url(#paint22_linear)"/>
<path d="M234.896 323.208V294.739C234.896 288.638 238.557 285.926 243.031 288.502L296.31 319.277C300.784 321.853 304.444 328.902 304.444 335.003V363.473C304.444 369.573 300.784 372.285 296.31 369.709L243.031 338.934C238.557 336.223 234.896 329.309 234.896 323.208Z" fill="url(#paint23_linear)"/>
<path d="M243.71 290.129C239.507 287.689 235.982 289.587 235.982 294.467V324.564C235.982 329.444 239.507 335.41 243.71 337.85L295.769 367.811C299.971 370.251 303.496 368.353 303.496 363.473V333.376C303.496 328.495 299.971 322.53 295.769 320.09L243.71 290.129Z" fill="url(#paint24_linear)"/>
<g opacity="0.5">
<g opacity="0.5">
<path opacity="0.5" d="M240.591 317.379V319.819L271.908 337.579V335.003L240.591 317.379Z" fill="#D1B4E3"/>
<path opacity="0.6" d="M255.639 303.415L240.591 294.874V297.315L255.639 305.855V303.415Z" fill="#D1B4E3"/>
<path opacity="0.6" d="M257.943 304.771V307.211L277.466 318.328V315.888L257.943 304.771Z" fill="#D1B4E3"/>
<path opacity="0.6" d="M275.839 334.461V331.885L258.893 322.124V324.564L275.839 334.461Z" fill="#D1B4E3"/>
<path opacity="0.6" d="M265.265 320.09L240.591 305.991V308.567L265.265 322.666V320.09Z" fill="#D1B4E3"/>
<path opacity="0.6" d="M255.639 309.109L240.591 300.568V303.008L255.639 311.549V309.109Z" fill="#D1B4E3"/>
<path opacity="0.6" d="M257.943 310.465V312.905L277.466 324.158V321.717L257.943 310.465Z" fill="#D1B4E3"/>
<path opacity="0.6" d="M267.705 321.582V324.022L279.635 331.072V328.631L267.705 321.582Z" fill="#D1B4E3"/>
<path opacity="0.6" d="M279.906 325.513L299.428 337.172V334.732L279.906 323.073V325.513Z" fill="#D1B4E3"/>
<path opacity="0.6" d="M281.94 332.427L299.428 342.595V340.155L281.94 329.987V332.427Z" fill="#D1B4E3"/>
<path opacity="0.6" d="M256.452 320.768L240.591 311.685V314.125L256.452 323.208V320.768Z" fill="#D1B4E3"/>
<path opacity="0.6" d="M278.279 335.816L299.292 348.56V346.12L278.279 333.376V335.816Z" fill="#D1B4E3"/>
</g>
</g>
<g opacity="0.3">
<path opacity="0.090909" d="M250.894 97.7543C239.777 90.8402 225.813 95.0429 225.813 111.718V182.486C225.813 191.705 232.321 202.957 240.319 207.566L293.056 238.205C301.055 242.815 310.545 238.612 310.545 229.393V146.695C310.545 137.476 301.055 126.766 293.056 122.157L250.894 97.7543Z" fill="url(#paint25_linear)"/>
<path opacity="0.1818" d="M250.488 99.2456C239.778 92.6026 226.627 96.6697 226.627 112.531V183.435C226.627 192.518 232.999 203.635 240.998 208.244L292.921 238.476C300.92 243.086 310.003 239.019 310.003 229.8V148.186C310.003 139.103 300.92 128.393 292.921 123.784L250.488 99.2456Z" fill="url(#paint26_linear)"/>
<path opacity="0.2727" d="M250.081 100.601C239.777 94.2294 227.44 98.2966 227.44 113.345V184.384C227.44 193.467 233.812 204.448 241.675 208.922L292.921 238.748C300.784 243.221 309.46 239.29 309.46 230.207V149.678C309.46 140.595 300.784 130.02 292.921 125.546L250.081 100.601Z" fill="url(#paint27_linear)"/>
<path opacity="0.3636" d="M249.675 102.093C239.778 95.9922 228.255 99.9237 228.255 114.159V185.333C228.255 194.281 234.491 205.126 242.354 209.6L292.786 239.155C300.514 243.628 308.919 239.697 308.919 230.749V151.034C308.919 142.086 300.514 131.512 292.786 127.038L249.675 102.093Z" fill="url(#paint28_linear)"/>
<path opacity="0.4545" d="M249.267 103.448C239.778 97.6188 229.067 101.55 229.067 114.972V186.282C229.067 195.094 235.304 205.94 243.031 210.413L292.786 239.29C300.513 243.764 308.512 239.832 308.512 231.02V152.389C308.512 143.577 300.513 133.003 292.786 128.529L249.267 103.448Z" fill="url(#paint29_linear)"/>
<path opacity="0.5455" d="M248.861 104.94C239.778 99.3813 229.745 103.177 229.745 115.65V187.095C229.745 195.907 235.982 206.482 243.574 210.956L292.65 239.561C300.242 243.899 307.969 240.239 307.969 231.427V154.016C307.969 145.204 300.242 134.765 292.65 130.427L248.861 104.94Z" fill="url(#paint30_linear)"/>
<path opacity="0.6364" d="M248.454 106.431C239.777 101.144 230.558 104.804 230.558 116.463V188.044C230.558 196.721 236.659 207.295 244.251 211.634L292.649 239.832C300.241 244.171 307.562 240.51 307.562 231.834V155.372C307.562 146.695 300.241 136.392 292.649 131.918L248.454 106.431Z" fill="url(#paint31_linear)"/>
<path opacity="0.7273" d="M248.183 107.787C239.777 102.771 231.507 106.431 231.507 117.277V188.993C231.507 197.534 237.608 207.973 245.065 212.311L292.65 240.103C300.106 244.442 307.02 240.781 307.02 232.24V156.863C307.02 148.322 300.106 138.019 292.65 133.681L248.183 107.787Z" fill="url(#paint32_linear)"/>
<path opacity="0.8182" d="M247.777 109.278C239.778 104.533 232.322 108.058 232.322 118.09V189.942C232.322 198.483 238.287 208.787 245.743 212.989L292.651 240.375C300.107 244.577 306.614 241.188 306.614 232.647V158.354C306.614 149.814 299.971 139.646 292.651 135.308L247.777 109.278Z" fill="url(#paint33_linear)"/>
<path opacity="0.9091" d="M247.37 110.634C239.778 106.16 233 109.549 233 118.768V190.756C233 199.161 238.965 209.329 246.285 213.667L292.515 240.646C299.836 244.848 306.072 241.459 306.072 233.054V159.846C306.072 151.44 299.836 141.273 292.515 137.07L247.37 110.634Z" fill="url(#paint34_linear)"/>
<path opacity="0.3" d="M246.963 112.125C239.778 107.922 233.812 111.312 233.812 119.581V191.705C233.812 199.975 239.642 210.142 246.963 214.345L292.379 240.781C299.564 244.984 305.529 241.595 305.529 233.325V161.202C305.529 152.932 299.7 142.764 292.379 138.561L246.963 112.125Z" fill="url(#paint35_linear)"/>
</g>
<path d="M302.953 314.532L247.776 282.673C241.54 279.148 236.524 269.387 236.524 261.117V114.294C236.524 110.091 232.999 109.142 235.168 107.651C235.304 107.651 240.049 105.346 240.184 105.346C242.489 104.533 244.929 104.126 247.776 105.753L302.953 137.612C309.189 141.137 314.206 150.898 314.206 159.168V306.126C314.206 310.6 312.714 313.718 310.545 315.074C310.41 315.209 304.58 317.921 304.445 317.921C302.411 318.599 305.665 316.158 302.953 314.532Z" fill="url(#paint36_linear)"/>
<path d="M302.411 137.748L247.234 105.889C244.251 104.126 299.293 138.697 299.293 138.697C305.529 142.222 310.545 151.983 310.545 160.252C310.545 160.252 313.528 310.6 313.528 306.126V159.303C313.663 151.034 308.647 141.408 302.411 137.748Z" fill="url(#paint37_radial)"/>
<path opacity="0.6" d="M298.615 316.565L243.438 284.706C237.201 281.181 232.185 271.42 232.185 263.151V116.192C232.185 107.922 237.201 104.126 243.438 107.651L298.615 139.51C304.851 143.035 309.867 152.796 309.867 161.066V308.024C309.867 316.294 304.851 320.09 298.615 316.565Z" fill="url(#paint38_radial)"/>
<path d="M297.666 317.107L242.488 285.248C236.252 281.724 231.236 271.962 231.236 263.693V116.734C231.236 108.464 236.252 104.668 242.488 108.193L297.666 140.052C303.902 143.577 308.918 153.338 308.918 161.608V308.566C308.918 316.836 303.902 320.632 297.666 317.107Z" fill="url(#paint39_linear)"/>
<path d="M232.728 264.642V117.548C232.728 110.227 237.202 106.973 242.625 110.091L297.531 141.815C302.954 144.933 307.427 153.474 307.427 160.659V307.753C307.427 315.074 302.954 318.327 297.531 315.209L242.625 283.486C237.202 280.368 232.728 271.962 232.728 264.642Z" fill="url(#paint40_linear)"/>
<path d="M235.033 265.591V119.174C235.033 113.074 238.693 110.227 243.303 112.938L296.989 143.984C301.598 146.56 305.259 153.745 305.259 159.846V306.126C305.259 312.227 301.598 315.074 296.989 312.362L243.303 281.317C238.693 278.741 235.033 271.691 235.033 265.591Z" fill="url(#paint41_linear)"/>
<path d="M243.845 114.565C239.507 112.125 236.117 114.023 236.117 119.039V267.082C236.117 271.963 239.642 278.063 243.845 280.504L296.311 310.736C300.649 313.176 304.038 311.278 304.038 306.262V158.355C304.038 153.474 300.513 147.373 296.311 144.933L243.845 114.565Z" fill="url(#paint42_linear)"/>
<path d="M292.108 151.847L298.886 155.779C299.158 155.914 299.293 155.779 299.293 155.508C299.293 155.237 299.022 154.83 298.886 154.694L292.108 150.763C291.837 150.627 291.701 150.763 291.701 151.034C291.701 151.441 291.837 151.712 292.108 151.847ZM298.886 157.135L292.108 153.203C291.837 153.067 291.701 153.203 291.701 153.474C291.701 153.745 291.972 154.152 292.108 154.288L298.886 158.219C299.158 158.355 299.293 158.219 299.293 157.948C299.293 157.677 299.158 157.27 298.886 157.135ZM298.886 159.575L292.108 155.643C291.837 155.508 291.701 155.643 291.701 155.914C291.701 156.186 291.972 156.592 292.108 156.728L298.886 160.659C299.158 160.795 299.293 160.659 299.293 160.388C299.429 160.117 299.158 159.71 298.886 159.575Z" fill="white"/>
<path d="M250.353 128.394C250.353 129.071 249.81 129.343 249.268 129.071C248.59 128.665 248.183 127.851 248.183 127.173C248.183 126.496 248.726 126.224 249.268 126.496C249.946 126.767 250.353 127.716 250.353 128.394Z" fill="white"/>
<path d="M246.963 126.36C246.963 127.038 246.421 127.309 245.879 127.038C245.201 126.631 244.794 125.818 244.794 125.14C244.794 124.462 245.336 124.191 245.879 124.462C246.421 124.733 246.963 125.682 246.963 126.36Z" fill="white"/>
<path d="M243.574 124.462C243.574 125.14 243.032 125.411 242.49 125.14C241.812 124.733 241.405 123.92 241.405 123.242C241.405 122.564 241.947 122.293 242.49 122.564C243.032 122.835 243.574 123.649 243.574 124.462Z" fill="white"/>
<path d="M296.31 144.798L243.845 114.565C239.506 112.125 236.117 114.023 236.117 119.039V267.082C236.117 271.963 239.642 278.063 243.845 280.504L296.31 310.736C300.649 313.176 304.038 311.278 304.038 306.262V158.355C304.038 153.339 300.649 147.373 296.31 144.798ZM303.36 306.262C303.36 307.753 302.953 309.109 302.275 309.922C301.598 310.736 300.784 311.143 299.7 311.143C298.751 311.143 297.666 310.871 296.581 310.194L244.116 279.961C240.049 277.521 236.659 271.827 236.659 267.082V119.039C236.659 116.057 238.015 114.159 240.32 114.159C241.269 114.159 242.353 114.43 243.438 115.108L295.904 145.34C299.971 147.78 303.36 153.474 303.36 158.219V306.262Z" fill="#BCBEC0"/>
<path d="M260.927 135.579L259.436 134.766V133.681C259.842 133.952 260.113 134.088 260.385 134.088C260.656 134.088 260.791 134.088 260.927 134.088C261.062 133.952 261.198 133.817 261.334 133.545L262.283 134.088V144.12L260.927 143.307V135.579Z" fill="white"/>
<path d="M264.452 144.662C264.045 143.984 263.909 143.306 263.909 142.493V137.206C263.909 136.392 264.045 135.85 264.452 135.715C264.858 135.443 265.265 135.579 265.943 135.986C266.621 136.392 267.163 136.935 267.434 137.477C267.841 138.155 267.977 138.833 267.977 139.646V144.933C267.977 145.747 267.841 146.289 267.434 146.425C267.028 146.696 266.621 146.56 265.943 146.153C265.265 145.882 264.723 145.34 264.452 144.662ZM266.621 144.255V138.833C266.621 138.155 266.35 137.748 265.943 137.477C265.536 137.206 265.265 137.341 265.265 138.019V143.442C265.265 144.12 265.536 144.527 265.943 144.798C266.485 145.069 266.621 144.933 266.621 144.255Z" fill="white"/>
<path d="M268.926 140.866L270.282 141.68V143.171L268.926 142.357V140.866ZM268.926 146.289L270.282 147.102V148.594L268.926 147.78V146.289Z" fill="white"/>
<path d="M271.773 148.865C271.366 148.187 271.231 147.509 271.231 146.696V145.882L272.586 146.696V147.645C272.586 148.323 272.858 148.729 273.264 149.001C273.535 149.136 273.671 149.136 273.807 149.001C273.942 148.865 273.942 148.594 273.942 148.187V147.374C273.942 146.967 273.807 146.56 273.671 146.289C273.535 146.018 273.264 145.747 272.993 145.611L272.586 145.34V143.849L273.129 144.12C273.4 144.256 273.671 144.256 273.807 144.256C273.942 144.12 274.078 143.984 274.078 143.578V142.9C274.078 142.493 274.078 142.222 273.942 142.086C273.807 141.815 273.671 141.68 273.4 141.544C272.993 141.273 272.722 141.409 272.722 142.086V142.764L271.366 141.951V141.409C271.366 140.595 271.502 140.053 271.909 139.917C272.315 139.646 272.722 139.782 273.4 140.189C274.078 140.595 274.62 141.002 274.891 141.68C275.298 142.358 275.433 143.035 275.433 143.849V144.256C275.433 144.798 275.298 145.205 275.162 145.476C275.027 145.747 274.756 145.747 274.484 145.747C274.891 146.154 275.162 146.56 275.298 146.967C275.433 147.374 275.569 147.916 275.569 148.458V149.407C275.569 150.221 275.433 150.763 275.027 150.899C274.62 151.17 274.213 151.034 273.535 150.627C272.586 150.085 272.044 149.543 271.773 148.865Z" fill="white"/>
<path d="M276.789 151.847C276.383 151.17 276.247 150.492 276.247 149.678V144.391C276.247 143.578 276.383 143.035 276.789 142.9C277.196 142.629 277.603 142.764 278.281 143.171C278.959 143.578 279.501 144.12 279.772 144.662C280.179 145.34 280.314 146.018 280.314 146.831V152.119C280.314 152.932 280.179 153.474 279.772 153.61C279.365 153.881 278.959 153.745 278.281 153.339C277.603 152.932 277.061 152.39 276.789 151.847ZM278.959 151.305V145.882C278.959 145.205 278.687 144.798 278.281 144.527C277.874 144.256 277.603 144.391 277.603 145.069V150.492C277.603 151.17 277.874 151.576 278.281 151.847C278.687 152.119 278.959 151.983 278.959 151.305Z" fill="white"/>
<path d="M299.428 268.574L240.591 234.545V141.544L299.428 175.572V268.574Z" fill="url(#paint43_linear)"/>
<path opacity="0.9" d="M240.997 141.815L299.564 175.572V214.616L240.997 141.815Z" fill="url(#paint44_linear)"/>
<path opacity="0.8" d="M243.98 143.442L299.564 175.572V188.994L243.98 143.442Z" fill="url(#paint45_linear)"/>
<path d="M256.859 193.739L264.045 197.941L269.603 240.104L264.316 236.986L263.367 228.716V228.851L257.266 225.327L256.317 232.376L251.436 229.529L256.859 193.739ZM262.689 223.157L260.249 202.551H260.113L257.808 220.446L262.689 223.157Z" fill="white"/>
<path d="M272.179 202.551L280.313 207.296C283.024 208.787 284.922 210.82 286.278 213.125C287.634 215.565 288.311 218.277 288.311 221.395V241.053C288.311 244.171 287.634 246.204 286.278 247.018C284.922 247.831 283.024 247.56 280.313 246.069L272.179 241.324V202.551ZM280.177 240.646C280.991 241.188 281.668 241.188 282.211 240.917C282.617 240.646 282.889 239.832 282.889 238.477V218.141C282.889 216.785 282.617 215.701 282.211 214.887C281.804 214.074 281.126 213.396 280.177 212.854L277.466 211.227V239.019L280.177 240.646Z" fill="white"/>
<g opacity="0.5">
<g opacity="0.5">
<path opacity="0.5" d="M240.591 242.137V244.577L271.908 262.202V259.761L240.591 242.137Z" fill="#D1B4E3"/>
<path opacity="0.6" d="M255.639 273.183L240.591 264.642V267.082L255.639 275.623V273.183Z" fill="#D1B4E3"/>
<path opacity="0.6" d="M257.944 274.538V276.979L277.466 288.231V285.791L257.944 274.538Z" fill="#D1B4E3"/>
<path opacity="0.6" d="M275.839 281.724V279.283L258.893 269.522V271.963L275.839 281.724Z" fill="#D1B4E3"/>
<path opacity="0.6" d="M265.265 267.489L240.591 253.39V255.83L265.265 269.929V267.489Z" fill="#D1B4E3"/>
<path opacity="0.6" d="M255.639 256.372L240.591 247.831V250.407L255.639 258.812V256.372Z" fill="#D1B4E3"/>
<path opacity="0.6" d="M257.944 257.864V260.304L277.466 271.421V268.98L257.944 257.864Z" fill="#D1B4E3"/>
<path opacity="0.6" d="M267.705 268.845V271.285L279.635 278.47V276.03L267.705 268.845Z" fill="#D1B4E3"/>
<path opacity="0.6" d="M279.906 272.776L299.429 284.435V281.995L279.906 270.336V272.776Z" fill="#D1B4E3"/>
<path opacity="0.6" d="M281.94 279.826L299.429 289.994V287.553L281.94 277.386V279.826Z" fill="#D1B4E3"/>
<path opacity="0.6" d="M256.453 268.167L240.591 259.084V261.524L256.453 270.607V268.167Z" fill="#D1B4E3"/>
<path opacity="0.6" d="M278.279 283.079L299.293 295.823V293.383L278.279 280.639V283.079Z" fill="#D1B4E3"/>
</g>
</g>
<g opacity="0.2">
<path opacity="0.2" d="M17.4236 354.732L188.754 254.838C191.223 253.386 190.932 250.918 188.028 249.175L183.382 246.852C180.478 245.255 176.122 244.965 173.654 246.416L2.32327 346.311C-0.145057 347.763 0.145334 350.231 3.04924 351.974L7.6955 354.297C10.5994 356.039 14.9553 356.184 17.4236 354.732Z" fill="black"/>
</g>
<path d="M11.7608 349.651L177.429 253.676C183.963 249.901 189.19 239.883 189.19 231.171V77.9898C189.19 73.6339 192.82 72.6176 190.642 71.0204C190.497 71.0204 185.56 68.6973 185.415 68.6973C183.092 67.8261 180.478 67.3905 177.429 69.1329L11.7608 165.107C5.22704 168.882 0 178.901 0 187.467V340.648C0 345.295 1.45196 348.489 3.92028 350.086C4.06547 350.231 10.1637 353.135 10.3089 353.135C12.3416 353.861 8.85693 351.248 11.7608 349.651Z" fill="url(#paint46_linear)"/>
<path d="M5.51743 196.76L0 195.163V187.612C0 178.901 5.22704 168.882 11.7608 165.107L177.429 69.1329C180.478 67.3905 182.946 67.8261 185.415 68.6973C185.56 68.6973 190.497 71.0204 190.642 71.0204C192.82 72.6176 189.19 73.6339 189.19 77.9898V90.3314L5.51743 196.76Z" fill="url(#paint47_linear)"/>
<path d="M17.278 352.264L182.946 256.145C189.48 252.37 194.707 242.351 194.707 233.639V80.6034C194.707 71.8917 189.48 67.9714 182.946 71.7465L17.278 167.721C10.7442 171.496 5.51715 181.514 5.51715 190.226V343.407C5.51715 351.974 10.7442 355.894 17.278 352.264Z" fill="url(#paint48_linear)"/>
<path d="M17.278 167.721L182.946 71.7465C189.48 67.9714 194.707 72.0369 194.707 80.6034V87.1372L5.51715 196.76V190.081C5.51715 181.514 10.7442 171.496 17.278 167.721Z" fill="url(#paint49_linear)"/>
<path d="M16.2619 167.14L181.93 71.1655C184.979 69.4232 187.883 69.4232 189.916 70.7299C187.883 69.8587 185.56 70.1491 182.946 71.6011L17.2783 167.721C10.7445 171.496 5.51743 181.514 5.51743 190.226V343.407C5.51743 347.908 6.96939 351.102 9.14732 352.7C6.24341 351.538 4.35587 348.053 4.35587 342.826V189.645C4.50106 180.933 9.7281 170.915 16.2619 167.14Z" fill="url(#paint50_radial)"/>
<path d="M139.678 107.9C139.678 112.982 143.163 114.87 147.519 112.401C151.875 109.933 155.359 103.835 155.359 98.7529C155.359 93.671 151.875 91.7835 147.519 94.2518C143.163 96.7201 139.678 102.818 139.678 107.9Z" fill="url(#paint51_linear)"/>
<path d="M120.368 119.225C120.368 124.307 123.852 126.195 128.208 123.726C132.564 121.258 136.049 115.16 136.049 110.078C136.049 104.996 132.564 103.108 128.208 105.577C123.852 108.19 120.368 114.288 120.368 119.225Z" fill="url(#paint52_linear)"/>
<path d="M150.423 107.319L142.582 111.82V102.818L150.423 98.3172V107.319ZM143.744 109.933L149.261 106.739V100.35L143.744 103.544V109.933Z" fill="white"/>
<path d="M152.455 103.254L151.294 103.834V96.865L145.196 100.35V99.0429L152.455 94.8323V103.254Z" fill="white"/>
<path d="M132.564 117.628L124.868 122.129V120.096L132.564 115.595V117.628Z" fill="white"/>
<path opacity="0.9" d="M178.881 252.66L20.3279 344.133C15.9721 346.746 10.4546 343.552 10.4546 338.47V216.506L190.642 112.401V232.187C190.642 240.608 186.286 248.449 178.881 252.66Z" fill="white"/>
<path d="M190.642 165.543L10.4546 269.503V214.619L190.642 110.514V165.543Z" fill="url(#paint53_linear)"/>
<path d="M182.221 241.915L21.1996 334.841V324.386L182.221 231.316V241.915Z" fill="#D1B4E3"/>
<path d="M108.026 154.362L89.1509 165.397V160.17L108.026 149.281V154.362Z" fill="#D1B4E3"/>
<path d="M155.359 126.775L136.484 137.81V132.583L155.359 121.694V126.775Z" fill="#D1B4E3"/>
<path d="M132.273 140.278L113.253 151.168V146.086L132.273 135.051V140.278Z" fill="#D1B4E3"/>
<path opacity="0.9" d="M54.5946 189.064L190.933 110.368V155.524L54.5946 189.064Z" fill="url(#paint54_linear)"/>
<path opacity="0.8" d="M72.7441 178.61L190.933 110.368V128.953L72.7441 178.61Z" fill="url(#paint55_linear)"/>
<path opacity="0.9" d="M33.6862 205.762L50.9644 195.743V182.095L21.6349 198.937V232.623L33.6862 225.653V205.762Z" fill="white"/>
<path opacity="0.9" d="M37.8972 223.185V208.23L50.9647 200.68V215.635L37.8972 223.185Z" fill="white"/>
<path d="M22.3609 312.916V272.697L57.4982 252.514V292.588L22.3609 312.916Z" fill="#D1B4E3"/>
<path d="M61.999 289.83V249.756L96.9911 229.429V269.648L61.999 289.83Z" fill="#D1B4E3"/>
<path d="M101.492 266.889V226.67L136.485 206.488V246.707L101.492 266.889Z" fill="#D1B4E3"/>
<path d="M144.179 243.077V241.044L170.46 226.234V228.267L144.179 243.077Z" fill="#D1B4E3"/>
<path d="M173.799 186.451V188.483L159.569 196.759V194.581L173.799 186.451Z" fill="#D1B4E3"/>
<path d="M164.942 198.357L144.179 210.263V208.23L164.942 196.324V198.357Z" fill="#D1B4E3"/>
<path d="M156.811 207.649L144.179 214.909V212.876L156.811 205.616V207.649Z" fill="#D1B4E3"/>
<path d="M158.844 206.487V204.455L175.251 195.017V197.195L158.844 206.487Z" fill="#D1B4E3"/>
<path d="M166.975 197.195V195.162L176.994 189.209V191.242L166.975 197.195Z" fill="#D1B4E3"/>
<path d="M177.284 193.856L182.365 190.952V192.984L177.284 196.034V193.856Z" fill="#D1B4E3"/>
<path d="M179.026 188.048L182.366 186.305V188.338L179.026 190.08V188.048Z" fill="#D1B4E3"/>
<path d="M157.537 197.921L144.179 205.471V203.438L157.537 195.743V197.921Z" fill="#D1B4E3"/>
<path d="M175.832 185.289L182.365 181.369V183.401L175.832 187.322V185.289Z" fill="#D1B4E3"/>
<path d="M164.942 207.649L144.179 219.555V217.522L164.942 205.616V207.649Z" fill="#D1B4E3"/>
<path d="M156.811 216.942L144.179 224.201V222.169L156.811 214.909V216.942Z" fill="#D1B4E3"/>
<path d="M158.844 215.78V213.747L175.251 204.31V206.488L158.844 215.78Z" fill="#D1B4E3"/>
<path d="M166.975 206.488V204.455L176.994 198.502V200.535L166.975 206.488Z" fill="#D1B4E3"/>
<path d="M177.284 203.148L182.365 200.244V202.277L177.284 205.181V203.148Z" fill="#D1B4E3"/>
<path d="M179.026 197.34L182.366 195.598V197.631L179.026 199.373V197.34Z" fill="#D1B4E3"/>
<path d="M173.799 209.827V211.86L159.569 220.136V217.958L173.799 209.827Z" fill="#D1B4E3"/>
<path d="M164.942 221.733L144.179 233.639V231.606L164.942 219.7V221.733Z" fill="#D1B4E3"/>
<path d="M156.811 231.026L144.179 238.285V236.253L156.811 228.993V231.026Z" fill="#D1B4E3"/>
<path d="M158.844 229.864V227.831L175.251 218.394V220.571L158.844 229.864Z" fill="#D1B4E3"/>
<path d="M166.975 220.571V218.539L176.994 212.586V214.618L166.975 220.571Z" fill="#D1B4E3"/>
<path d="M177.284 217.232L182.365 214.328V216.361L177.284 219.41V217.232Z" fill="#D1B4E3"/>
<path d="M179.026 211.424L182.366 209.682V211.715L179.026 213.457V211.424Z" fill="#D1B4E3"/>
<path d="M157.537 221.297L144.179 228.848V226.815L157.537 219.119V221.297Z" fill="#D1B4E3"/>
<path d="M175.832 208.666L182.365 204.745V206.778L175.832 210.698V208.666Z" fill="#D1B4E3"/>
<path opacity="0.8" d="M48.3504 272.987L34.9924 280.683L34.1212 278.505C33.976 278.214 33.6856 278.214 33.3952 278.36L29.7653 280.392C29.3298 280.683 29.0394 281.263 29.0394 281.699C29.0394 282.135 29.3298 282.425 29.7653 282.135L32.8145 280.392L37.3155 292.589C37.4607 292.879 37.7511 292.879 38.0415 292.734L39.2031 292.008C38.6223 293.17 38.6223 294.331 39.2031 294.621C39.7838 294.912 40.8002 294.331 41.5262 293.315C42.107 292.153 42.107 290.992 41.5262 290.701L44.1397 289.249C43.5589 290.411 43.5589 291.572 44.1397 291.863C44.7205 292.153 45.7369 291.572 46.4628 290.556C47.0436 289.394 47.0436 288.233 46.4628 287.942L46.8984 287.652C47.334 287.362 47.6244 286.781 47.6244 286.345C47.6244 285.91 47.334 285.619 46.8984 285.91L38.6223 290.701L37.7511 288.378L47.334 282.861C48.2052 282.28 49.0764 281.118 49.2215 280.102L50.0927 274.73C50.3831 273.133 49.5119 272.407 48.3504 272.987Z" fill="white"/>
<path opacity="0.8" d="M87.8438 250.046L74.4859 257.742L73.6147 255.564C73.4695 255.273 73.1791 255.273 72.8887 255.419L69.2588 257.451C68.8232 257.742 68.5328 258.322 68.5328 258.758C68.5328 259.194 68.8232 259.484 69.2588 259.194L72.3079 257.451L76.809 269.648C76.9542 269.938 77.2446 269.938 77.535 269.793L78.6965 269.067C78.1157 270.228 78.1157 271.39 78.6965 271.68C79.2773 271.971 80.2937 271.39 81.0196 270.374C81.6004 269.212 81.6004 268.051 81.0196 267.76L83.6332 266.308C83.0524 267.47 83.0524 268.631 83.6332 268.922C84.214 269.212 85.2303 268.631 85.9563 267.615C86.5371 266.453 86.5371 265.292 85.9563 265.001L86.3919 264.711C86.8275 264.421 87.1179 263.84 87.1179 263.404C87.1179 262.969 86.8275 262.678 86.3919 262.969L78.1157 267.76L77.2446 265.437L86.8275 259.92C87.6986 259.339 88.5698 258.177 88.715 257.161L89.5862 251.789C89.8766 250.191 89.0054 249.32 87.8438 250.046Z" fill="white"/>
<path opacity="0.8" d="M126.611 228.122L113.253 235.817L112.382 233.639C112.237 233.349 111.947 233.349 111.656 233.494L108.026 235.527C107.591 235.817 107.3 236.398 107.3 236.833C107.3 237.269 107.591 237.559 108.026 237.269L111.075 235.527L115.576 247.723C115.722 248.013 116.012 248.013 116.302 247.868L117.464 247.142C116.883 248.304 116.883 249.465 117.464 249.756C118.045 250.046 119.061 249.465 119.787 248.449C120.368 247.287 120.368 246.126 119.787 245.836L122.401 244.384C121.82 245.545 121.82 246.707 122.401 246.997C122.981 247.287 123.998 246.707 124.724 245.69C125.305 244.529 125.305 243.367 124.724 243.077L125.159 242.786C125.595 242.496 125.885 241.915 125.885 241.48C125.885 241.044 125.595 240.754 125.159 241.044L116.883 245.836L116.012 243.512L125.595 237.995C126.466 237.414 127.337 236.253 127.483 235.236L128.354 229.864C128.789 228.122 127.773 227.396 126.611 228.122Z" fill="white"/>
<path d="M146.938 110.949C146.938 124.742 156.666 130.26 168.717 123.291C180.768 116.321 190.496 99.6236 190.496 85.8301C190.496 72.0365 180.768 66.5191 168.717 73.4884C156.666 80.4578 146.938 97.1553 146.938 110.949Z" fill="url(#paint56_radial)"/>
<path d="M154.488 106.303C154.488 112.982 156.811 117.773 160.586 120.096C160.732 120.096 166.975 124.162 167.12 124.162C171.041 126.34 168.572 121.403 174.525 117.918C186.576 110.949 196.305 94.2516 196.305 80.458C196.305 73.6338 202.548 73.6338 198.773 71.3107C198.628 71.3107 191.513 67.2452 191.513 67.1C187.593 64.9221 182.221 65.3576 176.268 68.8423C164.216 75.6665 154.488 92.5092 154.488 106.303Z" fill="url(#paint57_linear)"/>
<path d="M161.602 110.513C161.602 124.307 171.33 129.824 183.381 122.855C195.433 115.885 205.161 99.188 205.161 85.3944C205.161 71.6008 195.433 66.0834 183.381 73.0528C171.33 80.0222 161.602 96.7197 161.602 110.513Z" fill="url(#paint58_linear)"/>
<path d="M199.062 119.515L198.191 118.935C207.048 105.867 212.13 91.0572 212.13 78.28C212.13 67.3903 208.5 59.2594 201.821 55.3391C195.142 51.4188 186.14 52.4352 176.557 57.9526C168.281 62.744 160.15 70.7298 153.761 80.4579L152.89 79.8771C159.424 70.0038 167.555 61.8729 176.122 57.0814C185.995 51.4188 195.433 50.4024 202.402 54.4679C209.371 58.5334 213.292 66.9547 213.292 78.28C213.146 91.2024 208.065 106.303 199.062 119.515Z" fill="url(#paint59_radial)"/>
<path d="M182.365 72.4721C188.173 69.1326 193.4 68.697 197.175 70.5846C193.545 69.5682 189.044 70.2942 184.108 73.1981C172.056 80.1675 162.328 96.865 162.328 110.659C162.328 117.773 164.942 122.71 169.152 124.888C163.78 123.436 160.441 118.064 160.441 109.933C160.586 96.2842 170.314 79.4415 182.365 72.4721Z" fill="url(#paint60_radial)"/>
<path d="M197.612 81.1837L192.53 78.2798L184.544 92.0734L176.558 87.5723L171.476 96.4293L179.462 100.93L171.476 114.724L176.558 117.773L184.544 103.834L192.53 108.48L197.612 99.6236L189.626 95.1225L197.612 81.1837Z" fill="white"/>
<g opacity="0.3">
<path opacity="0.3" d="M152.746 297.09L159.716 301.155L173.074 293.46L166.104 289.394L152.746 297.09Z" fill="#27043D"/>
<path opacity="0.3" d="M165.234 304.35L173.22 308.996L186.578 301.3L178.447 296.654L165.234 304.35Z" fill="#27043D"/>
<path opacity="0.3" d="M83.0534 345.44L96.8469 337.454L89.8776 333.389L75.9388 341.374L83.0534 345.44Z" fill="#27043D"/>
<path opacity="0.3" d="M110.35 345.295L102.219 340.648L88.425 348.634L96.556 353.28L110.35 345.295Z" fill="#27043D"/>
<path opacity="0.3" d="M162.04 330.92L153.038 325.693L139.825 333.243L148.827 338.616L162.04 330.92Z" fill="#27043D"/>
<path opacity="0.3" d="M190.934 303.769L177.576 311.464L186.723 316.691L199.936 308.996L190.934 303.769Z" fill="#27043D"/>
<path opacity="0.3" d="M229.12 325.984L215.762 318.143L202.404 325.839L229.265 341.375L265.854 320.321L277.324 327L291.554 296.509L238.848 304.785L252.496 312.626L229.12 325.984Z" fill="#27043D"/>
<path opacity="0.3" d="M127.483 326.129L135.469 330.775L148.682 323.08L140.696 318.433L127.483 326.129Z" fill="#27043D"/>
<path opacity="0.3" d="M122.111 322.935L135.469 315.239L128.5 311.174L115.142 318.869L122.111 322.935Z" fill="#27043D"/>
<path opacity="0.3" d="M123.852 352.99L114.705 347.763L100.911 355.749L110.059 360.976L123.852 352.99Z" fill="#27043D"/>
<path opacity="0.3" d="M217.359 406.858L139.679 362.137L125.741 370.123L203.565 414.843L191.805 421.668L246.688 430.379L231.443 398.727L217.359 406.858Z" fill="#27043D"/>
<path opacity="0.3" d="M83.3432 329.759L79.7133 327.581L65.9197 335.567L69.5496 337.745L83.3432 329.759Z" fill="#27043D"/>
<path opacity="0.3" d="M355.294 387.547L369.088 395.532L319.721 423.991L177.72 340.213L164.362 347.763L319.866 439.381L382.446 403.228L393.771 409.761L408 379.416L355.294 387.547Z" fill="#27043D"/>
<path opacity="0.3" d="M122.11 307.399L118.19 305.076L104.832 312.771L108.752 315.094L122.11 307.399Z" fill="#27043D"/>
<path opacity="0.3" d="M137.355 360.831L127.192 354.878L113.253 363.009L123.562 368.816L137.355 360.831Z" fill="#27043D"/>
<path opacity="0.3" d="M165.379 332.953L152.166 340.503L162.185 346.456L175.398 338.761L165.379 332.953Z" fill="#27043D"/>
<path opacity="0.3" d="M203.275 311.029L190.062 318.724L200.226 324.532L213.438 316.837L203.275 311.029Z" fill="#27043D"/>
<path opacity="0.3" d="M159.57 285.619L155.505 283.296L142.292 290.992L146.358 293.315L159.57 285.619Z" fill="#27043D"/>
</g>
<defs>
<linearGradient id="paint0_linear" x1="318.413" y1="283.551" x2="460.321" y2="283.551" gradientUnits="userSpaceOnUse">
<stop offset="0.0555556" stop-color="#200041"/>
<stop offset="0.2576" stop-color="#210243"/>
<stop offset="0.3572" stop-color="#25084B"/>
<stop offset="0.4341" stop-color="#2C1358"/>
<stop offset="0.4697" stop-color="#311B61"/>
<stop offset="0.482" stop-color="#351F65"/>
<stop offset="0.4954" stop-color="#422C73"/>
<stop offset="0.5093" stop-color="#584188"/>
<stop offset="0.5235" stop-color="#765FA7"/>
<stop offset="0.5303" stop-color="#8770B8"/>
<stop offset="0.5366" stop-color="#7E67AE"/>
<stop offset="0.5617" stop-color="#5C468D"/>
<stop offset="0.5857" stop-color="#442E75"/>
<stop offset="0.6078" stop-color="#362066"/>
<stop offset="0.6263" stop-color="#311B61"/>
<stop offset="0.6724" stop-color="#2A1155"/>
<stop offset="0.7491" stop-color="#230446"/>
<stop offset="0.8131" stop-color="#200041"/>
<stop offset="1" stop-color="#200041"/>
</linearGradient>
<linearGradient id="paint1_linear" x1="318.413" y1="261.91" x2="460.322" y2="261.91" gradientUnits="userSpaceOnUse">
<stop offset="0.0555556" stop-color="#200041"/>
<stop offset="0.2576" stop-color="#210243"/>
<stop offset="0.3572" stop-color="#25084B"/>
<stop offset="0.4341" stop-color="#2C1358"/>
<stop offset="0.4697" stop-color="#311B61"/>
<stop offset="0.482" stop-color="#351F65"/>
<stop offset="0.4954" stop-color="#422C73"/>
<stop offset="0.5093" stop-color="#584188"/>
<stop offset="0.5235" stop-color="#765FA7"/>
<stop offset="0.5303" stop-color="#8770B8"/>
<stop offset="0.5366" stop-color="#7E67AE"/>
<stop offset="0.5617" stop-color="#5C468D"/>
<stop offset="0.5857" stop-color="#442E75"/>
<stop offset="0.6078" stop-color="#362066"/>
<stop offset="0.6263" stop-color="#311B61"/>
<stop offset="0.6724" stop-color="#2A1155"/>
<stop offset="0.7491" stop-color="#230446"/>
<stop offset="0.8131" stop-color="#200041"/>
<stop offset="1" stop-color="#200041"/>
</linearGradient>
<linearGradient id="paint2_linear" x1="356.386" y1="271.035" x2="420.714" y2="235.45" gradientUnits="userSpaceOnUse">
<stop stop-color="#311B61"/>
<stop offset="0.2031" stop-color="#290F52"/>
<stop offset="0.4949" stop-color="#200041"/>
<stop offset="1" stop-color="#0F001F"/>
</linearGradient>
<radialGradient id="paint3_radial" cx="0" cy="0" r="1" gradientUnits="userSpaceOnUse" gradientTransform="translate(390.922 282.985) scale(50.4876)">
<stop stop-color="#AF8AFC"/>
<stop offset="1" stop-color="#10054D"/>
</radialGradient>
<linearGradient id="paint4_linear" x1="494.642" y1="296.028" x2="277.479" y2="-4.47222" gradientUnits="userSpaceOnUse">
<stop stop-color="#311B61"/>
<stop offset="0.2031" stop-color="#290F52"/>
<stop offset="0.4949" stop-color="#200041"/>
<stop offset="1" stop-color="#0F001F"/>
</linearGradient>
<linearGradient id="paint5_linear" x1="306.847" y1="25.4563" x2="491.608" y2="303.282" gradientUnits="userSpaceOnUse">
<stop offset="0.010101" stop-color="#9F19AB"/>
<stop offset="0.4293" stop-color="#5F27BD"/>
<stop offset="0.904" stop-color="#3D065F"/>
</linearGradient>
<linearGradient id="paint6_linear" x1="540.784" y1="302.555" x2="369.852" y2="29.4288" gradientUnits="userSpaceOnUse">
<stop offset="0.0555556" stop-color="#200041"/>
<stop offset="0.2576" stop-color="#210243"/>
<stop offset="0.3572" stop-color="#25084B"/>
<stop offset="0.4341" stop-color="#2C1358"/>
<stop offset="0.4697" stop-color="#311B61"/>
<stop offset="0.482" stop-color="#351F65"/>
<stop offset="0.4954" stop-color="#422C73"/>
<stop offset="0.5093" stop-color="#584188"/>
<stop offset="0.5235" stop-color="#765FA7"/>
<stop offset="0.5303" stop-color="#8770B8"/>
<stop offset="0.5366" stop-color="#7E67AE"/>
<stop offset="0.5617" stop-color="#5C468D"/>
<stop offset="0.5857" stop-color="#442E75"/>
<stop offset="0.6078" stop-color="#362066"/>
<stop offset="0.6263" stop-color="#311B61"/>
<stop offset="0.6724" stop-color="#2A1155"/>
<stop offset="0.7491" stop-color="#230446"/>
<stop offset="0.8131" stop-color="#200041"/>
<stop offset="1" stop-color="#200041"/>
</linearGradient>
<radialGradient id="paint7_radial" cx="0" cy="0" r="1" gradientUnits="userSpaceOnUse" gradientTransform="translate(492.292 147.017) scale(29.0953)">
<stop stop-color="#AF8AFC"/>
<stop offset="1" stop-color="#10054D"/>
</radialGradient>
<linearGradient id="paint8_linear" x1="379.808" y1="183.836" x2="228.728" y2="127.2" gradientUnits="userSpaceOnUse">
<stop offset="0.0353535" stop-color="#138BBD"/>
<stop offset="0.2257" stop-color="#169AC7"/>
<stop offset="0.5946" stop-color="#1FC3DF"/>
<stop offset="1" stop-color="#2AF6FF"/>
</linearGradient>
<linearGradient id="paint9_linear" x1="375.448" y1="137.837" x2="287.655" y2="106.781" gradientUnits="userSpaceOnUse">
<stop offset="0.0353535" stop-color="#9F19AB"/>
<stop offset="0.2438" stop-color="#AE25B1"/>
<stop offset="0.6455" stop-color="#D744BF"/>
<stop offset="1" stop-color="#FF63CE"/>
</linearGradient>
<linearGradient id="paint10_linear" x1="370.241" y1="113.755" x2="313.878" y2="101.866" gradientUnits="userSpaceOnUse">
<stop offset="0.0353535" stop-color="#FFA98C"/>
<stop offset="0.3169" stop-color="#FFB892"/>
<stop offset="0.8601" stop-color="#FEE1A3"/>
<stop offset="1" stop-color="#FEECA8"/>
</linearGradient>
<linearGradient id="paint11_linear" x1="479.711" y1="215.265" x2="290.891" y2="144.482" gradientUnits="userSpaceOnUse">
<stop offset="0.0353535" stop-color="#138BBD"/>
<stop offset="0.2257" stop-color="#169AC7"/>
<stop offset="0.5946" stop-color="#1FC3DF"/>
<stop offset="1" stop-color="#2AF6FF"/>
</linearGradient>
<linearGradient id="paint12_linear" x1="483.644" y1="189.743" x2="384.048" y2="154.512" gradientUnits="userSpaceOnUse">
<stop offset="0.0353535" stop-color="#9F19AB"/>
<stop offset="0.2438" stop-color="#AE25B1"/>
<stop offset="0.6455" stop-color="#D744BF"/>
<stop offset="1" stop-color="#FF63CE"/>
</linearGradient>
<linearGradient id="paint13_linear" x1="478.971" y1="178.008" x2="406.122" y2="162.641" gradientUnits="userSpaceOnUse">
<stop offset="0.0353535" stop-color="#FFA98C"/>
<stop offset="0.3169" stop-color="#FFB892"/>
<stop offset="0.8601" stop-color="#FEE1A3"/>
<stop offset="1" stop-color="#FEECA8"/>
</linearGradient>
<linearGradient id="paint14_linear" x1="359.435" y1="151.84" x2="394.424" y2="92.4922" gradientUnits="userSpaceOnUse">
<stop stop-color="#9F79C8"/>
<stop offset="0.1367" stop-color="#A580CB"/>
<stop offset="0.3288" stop-color="#B492D3"/>
<stop offset="0.5529" stop-color="#CDB0E1"/>
<stop offset="0.5808" stop-color="#D1B4E3"/>
<stop offset="0.7644" stop-color="#DBC4E9"/>
<stop offset="1" stop-color="#EBDEF3"/>
</linearGradient>
<linearGradient id="paint15_linear" x1="330.883" y1="67.6286" x2="334.359" y2="61.6872" gradientUnits="userSpaceOnUse">
<stop offset="0.0353535" stop-color="#FFA98C"/>
<stop offset="0.3169" stop-color="#FFB892"/>
<stop offset="0.8601" stop-color="#FEE1A3"/>
<stop offset="1" stop-color="#FEECA8"/>
</linearGradient>
<linearGradient id="paint16_linear" x1="321.106" y1="62.1785" x2="324.582" y2="56.2372" gradientUnits="userSpaceOnUse">
<stop offset="0.0353535" stop-color="#9F19AB"/>
<stop offset="0.2438" stop-color="#AE25B1"/>
<stop offset="0.6455" stop-color="#D744BF"/>
<stop offset="1" stop-color="#FF63CE"/>
</linearGradient>
<linearGradient id="paint17_linear" x1="311.248" y1="56.5952" x2="314.724" y2="50.6537" gradientUnits="userSpaceOnUse">
<stop offset="0.0353535" stop-color="#138BBD"/>
<stop offset="0.2257" stop-color="#169AC7"/>
<stop offset="0.5946" stop-color="#1FC3DF"/>
<stop offset="1" stop-color="#2AF6FF"/>
</linearGradient>
<radialGradient id="paint18_radial" cx="0" cy="0" r="1" gradientUnits="userSpaceOnUse" gradientTransform="translate(457.874 123.152) scale(118.406)">
<stop stop-color="#FA45C1"/>
<stop offset="0.2052" stop-color="#CB389D"/>
<stop offset="0.6676" stop-color="#571843"/>
<stop offset="1"/>
</radialGradient>
<linearGradient id="paint19_linear" x1="275.623" y1="375.462" x2="273.571" y2="292.793" gradientUnits="userSpaceOnUse">
<stop offset="0.0555556" stop-color="#200041"/>
<stop offset="0.2576" stop-color="#210243"/>
<stop offset="0.3572" stop-color="#25084B"/>
<stop offset="0.4341" stop-color="#2C1358"/>
<stop offset="0.4697" stop-color="#311B61"/>
<stop offset="0.482" stop-color="#351F65"/>
<stop offset="0.4954" stop-color="#422C73"/>
<stop offset="0.5093" stop-color="#584188"/>
<stop offset="0.5235" stop-color="#765FA7"/>
<stop offset="0.5303" stop-color="#8770B8"/>
<stop offset="0.5366" stop-color="#7E67AE"/>
<stop offset="0.5617" stop-color="#5C468D"/>
<stop offset="0.5857" stop-color="#442E75"/>
<stop offset="0.6078" stop-color="#362066"/>
<stop offset="0.6263" stop-color="#311B61"/>
<stop offset="0.6724" stop-color="#2A1155"/>
<stop offset="0.7491" stop-color="#230446"/>
<stop offset="0.8131" stop-color="#200041"/>
<stop offset="1" stop-color="#200041"/>
</linearGradient>
<radialGradient id="paint20_radial" cx="0" cy="0" r="1" gradientUnits="userSpaceOnUse" gradientTransform="translate(307.008 302.278) scale(35.0706)">
<stop stop-color="#AF8AFC"/>
<stop offset="1" stop-color="#10054D"/>
</radialGradient>
<linearGradient id="paint21_linear" x1="301.854" y1="339.141" x2="141.203" y2="288.85" gradientUnits="userSpaceOnUse">
<stop offset="0.1869" stop-color="#3D065F"/>
<stop offset="0.9343" stop-color="#3D065F"/>
</linearGradient>
<linearGradient id="paint22_linear" x1="293.29" y1="378.796" x2="237.147" y2="260.165" gradientUnits="userSpaceOnUse">
<stop stop-color="#311B61"/>
<stop offset="0.2031" stop-color="#290F52"/>
<stop offset="0.4949" stop-color="#200041"/>
<stop offset="1" stop-color="#0F001F"/>
</linearGradient>
<linearGradient id="paint23_linear" x1="234.952" y1="329.097" x2="304.587" y2="329.097" gradientUnits="userSpaceOnUse">
<stop stop-color="#311B61"/>
<stop offset="0.2031" stop-color="#290F52"/>
<stop offset="0.4949" stop-color="#200041"/>
<stop offset="1" stop-color="#0F001F"/>
</linearGradient>
<linearGradient id="paint24_linear" x1="168.131" y1="401.047" x2="288.054" y2="316.153" gradientUnits="userSpaceOnUse">
<stop offset="0.010101" stop-color="#9F19AB"/>
<stop offset="0.4293" stop-color="#5F27BD"/>
<stop offset="0.904" stop-color="#3D065F"/>
</linearGradient>
<linearGradient id="paint25_linear" x1="202.731" y1="40.9545" x2="286.299" y2="200.304" gradientUnits="userSpaceOnUse">
<stop offset="0.010101" stop-color="#9F19AB"/>
<stop offset="0.4293" stop-color="#5F27BD"/>
<stop offset="0.904" stop-color="#3D065F"/>
</linearGradient>
<linearGradient id="paint26_linear" x1="203.366" y1="42.9761" x2="286.181" y2="200.889" gradientUnits="userSpaceOnUse">
<stop offset="0.010101" stop-color="#9F19AB"/>
<stop offset="0.4293" stop-color="#5F27BD"/>
<stop offset="0.904" stop-color="#3D065F"/>
</linearGradient>
<linearGradient id="paint27_linear" x1="204.001" y1="44.9964" x2="286.063" y2="201.473" gradientUnits="userSpaceOnUse">
<stop offset="0.010101" stop-color="#9F19AB"/>
<stop offset="0.4293" stop-color="#5F27BD"/>
<stop offset="0.904" stop-color="#3D065F"/>
</linearGradient>
<linearGradient id="paint28_linear" x1="204.639" y1="47.0154" x2="285.948" y2="202.057" gradientUnits="userSpaceOnUse">
<stop offset="0.010101" stop-color="#9F19AB"/>
<stop offset="0.4293" stop-color="#5F27BD"/>
<stop offset="0.904" stop-color="#3D065F"/>
</linearGradient>
<linearGradient id="paint29_linear" x1="205.277" y1="49.0326" x2="285.833" y2="202.639" gradientUnits="userSpaceOnUse">
<stop offset="0.010101" stop-color="#9F19AB"/>
<stop offset="0.4293" stop-color="#5F27BD"/>
<stop offset="0.904" stop-color="#3D065F"/>
</linearGradient>
<linearGradient id="paint30_linear" x1="205.917" y1="51.048" x2="285.722" y2="203.221" gradientUnits="userSpaceOnUse">
<stop offset="0.010101" stop-color="#9F19AB"/>
<stop offset="0.4293" stop-color="#5F27BD"/>
<stop offset="0.904" stop-color="#3D065F"/>
</linearGradient>
<linearGradient id="paint31_linear" x1="206.558" y1="53.0615" x2="285.612" y2="203.802" gradientUnits="userSpaceOnUse">
<stop offset="0.010101" stop-color="#9F19AB"/>
<stop offset="0.4293" stop-color="#5F27BD"/>
<stop offset="0.904" stop-color="#3D065F"/>
</linearGradient>
<linearGradient id="paint32_linear" x1="207.202" y1="55.0728" x2="285.505" y2="204.381" gradientUnits="userSpaceOnUse">
<stop offset="0.010101" stop-color="#9F19AB"/>
<stop offset="0.4293" stop-color="#5F27BD"/>
<stop offset="0.904" stop-color="#3D065F"/>
</linearGradient>
<linearGradient id="paint33_linear" x1="207.849" y1="57.0816" x2="285.401" y2="204.96" gradientUnits="userSpaceOnUse">
<stop offset="0.010101" stop-color="#9F19AB"/>
<stop offset="0.4293" stop-color="#5F27BD"/>
<stop offset="0.904" stop-color="#3D065F"/>
</linearGradient>
<linearGradient id="paint34_linear" x1="208.497" y1="59.0875" x2="285.3" y2="205.537" gradientUnits="userSpaceOnUse">
<stop offset="0.010101" stop-color="#9F19AB"/>
<stop offset="0.4293" stop-color="#5F27BD"/>
<stop offset="0.904" stop-color="#3D065F"/>
</linearGradient>
<linearGradient id="paint35_linear" x1="209.146" y1="61.0903" x2="285.201" y2="206.112" gradientUnits="userSpaceOnUse">
<stop offset="0.010101" stop-color="#9F19AB"/>
<stop offset="0.4293" stop-color="#5F27BD"/>
<stop offset="0.904" stop-color="#3D065F"/>
</linearGradient>
<linearGradient id="paint36_linear" x1="218.286" y1="111.327" x2="290.34" y2="236.128" gradientUnits="userSpaceOnUse">
<stop offset="0.0555556" stop-color="#200041"/>
<stop offset="0.2576" stop-color="#210243"/>
<stop offset="0.3572" stop-color="#25084B"/>
<stop offset="0.4341" stop-color="#2C1358"/>
<stop offset="0.4697" stop-color="#311B61"/>
<stop offset="0.482" stop-color="#351F65"/>
<stop offset="0.4954" stop-color="#422C73"/>
<stop offset="0.5093" stop-color="#584188"/>
<stop offset="0.5235" stop-color="#765FA7"/>
<stop offset="0.5303" stop-color="#8770B8"/>
<stop offset="0.5366" stop-color="#7E67AE"/>
<stop offset="0.5617" stop-color="#5C468D"/>
<stop offset="0.5857" stop-color="#442E75"/>
<stop offset="0.6078" stop-color="#362066"/>
<stop offset="0.6263" stop-color="#311B61"/>
<stop offset="0.6724" stop-color="#2A1155"/>
<stop offset="0.7491" stop-color="#230446"/>
<stop offset="0.8131" stop-color="#200041"/>
<stop offset="1" stop-color="#200041"/>
</linearGradient>
<radialGradient id="paint37_radial" cx="0" cy="0" r="1" gradientUnits="userSpaceOnUse" gradientTransform="translate(330.259 162.031) scale(135.216)">
<stop stop-color="#711F56"/>
<stop offset="0.1614" stop-color="#6C1E52"/>
<stop offset="0.3626" stop-color="#5C1946"/>
<stop offset="0.5849" stop-color="#431233"/>
<stop offset="0.8208" stop-color="#200918"/>
<stop offset="1"/>
</radialGradient>
<radialGradient id="paint38_radial" cx="0" cy="0" r="1" gradientUnits="userSpaceOnUse" gradientTransform="translate(307.638 152.37) scale(79.6613)">
<stop stop-color="#AF8AFC"/>
<stop offset="1" stop-color="#10054D"/>
</radialGradient>
<linearGradient id="paint39_linear" x1="314.062" y1="226.416" x2="93.8404" y2="157.477" gradientUnits="userSpaceOnUse">
<stop offset="0.1869" stop-color="#3D065F"/>
<stop offset="0.9343" stop-color="#3D065F"/>
</linearGradient>
<linearGradient id="paint40_linear" x1="316.933" y1="311.646" x2="205.098" y2="75.3385" gradientUnits="userSpaceOnUse">
<stop stop-color="#311B61"/>
<stop offset="0.2031" stop-color="#290F52"/>
<stop offset="0.4949" stop-color="#200041"/>
<stop offset="1" stop-color="#0F001F"/>
</linearGradient>
<linearGradient id="paint41_linear" x1="234.965" y1="212.648" x2="305.197" y2="212.648" gradientUnits="userSpaceOnUse">
<stop stop-color="#311B61"/>
<stop offset="0.2031" stop-color="#290F52"/>
<stop offset="0.4949" stop-color="#200041"/>
<stop offset="1" stop-color="#0F001F"/>
</linearGradient>
<linearGradient id="paint42_linear" x1="227.028" y1="130.554" x2="333.884" y2="334.308" gradientUnits="userSpaceOnUse">
<stop offset="0.010101" stop-color="#9F19AB"/>
<stop offset="0.4293" stop-color="#5F27BD"/>
<stop offset="0.904" stop-color="#3D065F"/>
</linearGradient>
<linearGradient id="paint43_linear" x1="308.577" y1="248.425" x2="163.306" y2="193.967" gradientUnits="userSpaceOnUse">
<stop offset="0.0353535" stop-color="#138BBD"/>
<stop offset="0.2257" stop-color="#169AC7"/>
<stop offset="0.5946" stop-color="#1FC3DF"/>
<stop offset="1" stop-color="#2AF6FF"/>
</linearGradient>
<linearGradient id="paint44_linear" x1="303.761" y1="199.673" x2="220.708" y2="170.294" gradientUnits="userSpaceOnUse">
<stop offset="0.0353535" stop-color="#9F19AB"/>
<stop offset="0.2438" stop-color="#AE25B1"/>
<stop offset="0.6455" stop-color="#D744BF"/>
<stop offset="1" stop-color="#FF63CE"/>
</linearGradient>
<linearGradient id="paint45_linear" x1="299.82" y1="185.037" x2="243.589" y2="173.176" gradientUnits="userSpaceOnUse">
<stop offset="0.0353535" stop-color="#FFA98C"/>
<stop offset="0.3169" stop-color="#FFB892"/>
<stop offset="0.8601" stop-color="#FEE1A3"/>
<stop offset="1" stop-color="#FEECA8"/>
</linearGradient>
<linearGradient id="paint46_linear" x1="73.9944" y1="210.551" x2="-117.313" y2="210.551" gradientUnits="userSpaceOnUse">
<stop stop-color="#6B24D6"/>
<stop offset="0.7424" stop-color="#200657"/>
<stop offset="1" stop-color="#12054E"/>
</linearGradient>
<linearGradient id="paint47_linear" x1="82.7005" y1="179.654" x2="72.5978" y2="215.688" gradientUnits="userSpaceOnUse">
<stop stop-color="#671AB9"/>
<stop offset="0.3939" stop-color="#AD34F1"/>
<stop offset="1" stop-color="#5513AB"/>
</linearGradient>
<linearGradient id="paint48_linear" x1="-143.026" y1="80.7715" x2="303.645" y2="321.777" gradientUnits="userSpaceOnUse">
<stop offset="0.010101" stop-color="#9F19AB"/>
<stop offset="0.4293" stop-color="#5F27BD"/>
<stop offset="0.904" stop-color="#3D065F"/>
</linearGradient>
<linearGradient id="paint49_linear" x1="272.351" y1="-16.793" x2="-25.6874" y2="241.169" gradientUnits="userSpaceOnUse">
<stop offset="0.0353535" stop-color="#6B24D6"/>
<stop offset="0.316" stop-color="#7A1CD0"/>
<stop offset="0.8574" stop-color="#A306C1"/>
<stop offset="0.9848" stop-color="#AD00BD"/>
</linearGradient>
<radialGradient id="paint50_radial" cx="0" cy="0" r="1" gradientUnits="userSpaceOnUse" gradientTransform="translate(83.0253 149.898) rotate(180) scale(186.555)">
<stop stop-color="#711F56"/>
<stop offset="0.1614" stop-color="#6C1E52"/>
<stop offset="0.3626" stop-color="#5C1946"/>
<stop offset="0.5849" stop-color="#431233"/>
<stop offset="0.8208" stop-color="#200918"/>
<stop offset="1"/>
</radialGradient>
<linearGradient id="paint51_linear" x1="119.383" y1="78.9682" x2="183.501" y2="134.304" gradientUnits="userSpaceOnUse">
<stop offset="0.010101" stop-color="#9F19AB"/>
<stop offset="0.4293" stop-color="#5F27BD"/>
<stop offset="0.904" stop-color="#3D065F"/>
</linearGradient>
<linearGradient id="paint52_linear" x1="104.974" y1="94.6486" x2="169.093" y2="149.984" gradientUnits="userSpaceOnUse">
<stop offset="0.010101" stop-color="#9F19AB"/>
<stop offset="0.4293" stop-color="#5F27BD"/>
<stop offset="0.904" stop-color="#3D065F"/>
</linearGradient>
<linearGradient id="paint53_linear" x1="187.442" y1="187.506" x2="-56.4028" y2="123.711" gradientUnits="userSpaceOnUse">
<stop offset="0.0353535" stop-color="#138BBD"/>
<stop offset="0.2257" stop-color="#169AC7"/>
<stop offset="0.5946" stop-color="#1FC3DF"/>
<stop offset="1" stop-color="#2AF6FF"/>
</linearGradient>
<linearGradient id="paint54_linear" x1="191.648" y1="145.912" x2="58.3976" y2="112.447" gradientUnits="userSpaceOnUse">
<stop offset="0.0353535" stop-color="#9F19AB"/>
<stop offset="0.2438" stop-color="#AE25B1"/>
<stop offset="0.6455" stop-color="#D744BF"/>
<stop offset="1" stop-color="#FF63CE"/>
</linearGradient>
<linearGradient id="paint55_linear" x1="189.688" y1="130.425" x2="93.639" y2="114.133" gradientUnits="userSpaceOnUse">
<stop offset="0.0353535" stop-color="#FFA98C"/>
<stop offset="0.3169" stop-color="#FFB892"/>
<stop offset="0.8601" stop-color="#FEE1A3"/>
<stop offset="1" stop-color="#FEECA8"/>
</linearGradient>
<radialGradient id="paint56_radial" cx="0" cy="0" r="1" gradientUnits="userSpaceOnUse" gradientTransform="translate(172.384 103.858) rotate(180) scale(31.1937)">
<stop offset="0.1364"/>
<stop offset="0.9848" stop-color="white"/>
</radialGradient>
<linearGradient id="paint57_linear" x1="157.089" y1="117.921" x2="194.667" y2="67.5667" gradientUnits="userSpaceOnUse">
<stop offset="0.0353535" stop-color="#9F19AB"/>
<stop offset="0.1641" stop-color="#AE25B1"/>
<stop offset="0.4123" stop-color="#D744BF"/>
<stop offset="0.6313" stop-color="#FF63CE"/>
<stop offset="0.8737" stop-color="#DC48C1"/>
</linearGradient>
<linearGradient id="paint58_linear" x1="243.597" y1="111.49" x2="120.469" y2="83.889" gradientUnits="userSpaceOnUse">
<stop offset="0.0353535" stop-color="#9F19AB"/>
<stop offset="0.2438" stop-color="#AE25B1"/>
<stop offset="0.6455" stop-color="#D744BF"/>
<stop offset="1" stop-color="#FF63CE"/>
</linearGradient>
<radialGradient id="paint59_radial" cx="0" cy="0" r="1" gradientUnits="userSpaceOnUse" gradientTransform="translate(187.808 71.7007) scale(38.6036)">
<stop stop-color="#FA45C1"/>
<stop offset="0.2052" stop-color="#CB389D"/>
<stop offset="0.6676" stop-color="#571843"/>
<stop offset="1"/>
</radialGradient>
<radialGradient id="paint60_radial" cx="0" cy="0" r="1" gradientUnits="userSpaceOnUse" gradientTransform="translate(169.504 94.4383) rotate(180) scale(23.4893)">
<stop stop-color="white"/>
<stop offset="0.0656227" stop-color="#D8D8D8"/>
<stop offset="0.1615" stop-color="#A6A6A6"/>
<stop offset="0.2622" stop-color="#797979"/>
<stop offset="0.3658" stop-color="#545454"/>
<stop offset="0.4731" stop-color="#353535"/>
<stop offset="0.5852" stop-color="#1E1E1E"/>
<stop offset="0.7042" stop-color="#0D0D0D"/>
<stop offset="0.835" stop-color="#030303"/>
<stop offset="1"/>
</radialGradient>
</defs>
</svg>
