<svg width="976" height="1152" viewBox="0 0 976 1152" fill="none" xmlns="http://www.w3.org/2000/svg">
<path d="M639.186 965.458C588.303 1006.92 527.632 1039.1 462.449 1045.87C397.267 1052.64 327.038 1030.95 284.758 980.789C249.392 938.584 236.594 878.485 251.939 825.668C275.397 745.1 353.593 693.555 394.061 619.875C433.156 548.459 433.134 463.185 436.947 381.785C440.76 300.386 451.709 213.359 506.107 152.816C539.148 116.089 586.754 92.7587 636.127 89.0333C717.699 82.8783 794.99 129.013 852.084 187.621C871.939 207.866 889.926 229.948 903.047 255.018C937.529 320.575 934.879 398.957 928.491 472.686C923.37 530.283 916.477 588.938 892.477 641.482C871.797 686.837 839.365 725.522 807.665 763.69C766.172 813.236 723.828 863.772 669.706 899.005C644.264 915.575 615.952 928.814 585.757 931.246C555.562 933.679 523.392 924.078 503.355 901.38C484.306 879.532 478.633 846.806 489.432 819.931C497.881 798.784 514.715 782.556 528.134 763.964C561.433 718.274 572.806 659.743 573.231 603.272C573.656 546.801 564.387 490.599 560.495 434.145C556.057 370.331 558.506 305.842 567.981 242.52C571.053 221.625 575.305 200.024 587.095 182.326C611.078 146.129 661.811 135.824 703.528 147.326C745.245 158.828 779.63 187.845 811.135 217.542C838.006 242.963 865.127 271.758 872.607 308.049C877.476 332.046 873.145 356.737 868.768 380.815C852.367 469.178 830.289 564.138 761.698 622.514C746.761 635.206 727.393 646.383 708.491 641.024C694.02 637.181 683.697 624.853 676.111 612.009C653.07 573.809 646.581 528.037 642.353 483.636C636.353 421.636 633.397 359.098 633.837 296.612C634.087 262.668 638.101 223.351 666.144 204.427C683.768 192.611 707.495 192.363 727.335 199.964C747.174 207.565 763.529 222.214 777.215 238.298C789.396 252.799 800.015 269.115 805.371 287.215C812.972 312.702 809.789 340.391 805.431 366.781C799.349 403.169 788.753 443.137 757.524 462.764C746.185 469.942 731.341 473.529 719.351 467.803C705.923 461.415 700.137 445.814 696.447 431.443C687.127 395.291 684.321 357.568 688.023 320.28C689.67 303.039 693.276 285.188 703.971 271.427C714.666 257.667 734.427 249.699 750.092 257.153C771.034 267.138 773.037 296.132 769.489 318.913C767.284 332.804 762.15 348.766 748.766 353.323C733.564 358.325 717.8 343.323 715.694 327.444C713.587 311.566 720.772 296.22 727.719 281.818C730.801 275.571 736.409 268.054 743.054 270.329C748.121 272.105 749.685 278.618 749.482 284.185C749.287 296.073 745.389 307.933 738.714 317.689C729.836 312.345 727.417 298.494 734.23 290.579" stroke="#5A609B" stroke-width="0.5" stroke-miterlimit="10"/>
</svg>
