<svg width="665" height="478" viewBox="0 0 665 478" fill="none" xmlns="http://www.w3.org/2000/svg">
<path d="M458.629 21.1199C500.1 23.0168 542.272 33.4176 575.86 57.7024C609.448 81.9871 633.421 121.816 632.211 163.292C631.096 198.101 611.796 231.833 582.297 250.269C537.275 278.37 478.676 269.713 428.537 287.395C379.998 304.59 344.063 344.807 307.953 381.581C271.843 418.355 229.996 454.774 178.825 460.392C147.765 463.781 115.483 454.715 90.6328 435.659C49.5753 404.176 32.5788 349.842 30.3629 298.141C29.5346 280.226 30.3616 262.232 34.7427 244.88C46.118 199.433 80.4076 163.592 114.499 131.52C141.192 106.521 169.167 81.769 202.632 67.1101C231.502 54.4418 263.101 49.8722 294.137 45.2379C334.587 39.3662 375.855 33.3869 416.226 39.5878C435.207 42.5 454.137 48.1918 469.4 59.7729C484.663 71.354 495.785 89.4412 495.665 108.59C495.437 126.922 484.317 144.744 467.897 152.864C454.999 159.273 440.221 159.829 426.056 162.939C391.096 170.446 361.06 193.25 337.056 219.698C313.051 246.147 293.731 276.554 271.769 304.813C246.962 336.774 218.624 366.149 187.464 392.012C177.208 400.57 166.097 408.963 153.078 412.338C126.511 419.297 98.2457 402.77 83.4239 379.762C68.602 356.753 64.6206 328.577 62.2834 301.293C60.3292 277.98 59.6788 252.971 71.4495 232.706C79.2691 219.339 91.7193 209.522 103.932 200.014C148.914 165.262 199.352 129.794 256.301 131.181C268.695 131.493 282.538 134.387 289.192 144.882C294.396 152.794 294.066 162.958 292.229 172.212C286.991 199.937 270.756 224.254 254.034 246.972C230.728 278.735 205.76 309.47 179.213 338.747C164.787 354.647 146.321 371.494 125.121 368.596C111.83 366.738 100.538 356.854 94.3871 344.907C88.2364 332.96 86.6998 319.158 87.0265 305.805C87.3959 293.833 89.266 281.663 94.3707 270.871C101.53 255.65 114.702 243.935 127.882 233.33C146.088 218.736 167.932 204.356 190.93 208.266C199.302 209.661 207.814 214.227 211.054 221.981C214.692 230.653 210.844 240.448 206.527 248.78C195.682 269.755 181.104 288.725 163.64 304.746C155.596 312.182 146.371 319.079 135.527 321.059C124.684 323.039 112.008 318.466 107.763 308.348C102.098 294.812 113.375 280.297 124.651 271.05C131.546 265.43 140.696 260.068 148.927 263.561C158.203 267.61 159.313 281.329 153.613 289.704C147.913 298.079 138.056 302.286 128.71 306.149C124.624 307.795 118.811 308.975 116.636 305.102C114.996 302.129 117.004 298.398 119.446 295.859C124.549 290.336 131.386 286.387 138.646 284.6C140.58 290.863 135.882 298.413 129.333 299.273" stroke="#5A609B" stroke-width="0.5" stroke-miterlimit="10"/>
</svg>
