<svg width="24" height="24" viewBox="0 0 24 24" fill="none" xmlns="http://www.w3.org/2000/svg">
<path d="M12.1336 0.043457H12.1277C5.60709 0.043457 0.304565 5.34746 0.304565 11.8695C0.304565 14.4565 1.1383 16.8542 2.55596 18.8011L1.08213 23.1945L5.62778 21.7414C7.49778 22.9802 9.72848 23.6956 12.1336 23.6956C18.6542 23.6956 23.9567 18.3902 23.9567 11.8695C23.9567 5.34894 18.6542 0.043457 12.1336 0.043457ZM19.0149 16.7434C18.7296 17.549 17.5973 18.2172 16.694 18.4123C16.0761 18.5439 15.269 18.6488 12.552 17.5224C9.07656 16.0826 6.83848 12.551 6.66404 12.3219C6.497 12.0928 5.2597 10.4519 5.2597 8.75485C5.2597 7.05781 6.12152 6.23146 6.46891 5.87667C6.75422 5.58546 7.22578 5.45241 7.67813 5.45241C7.82448 5.45241 7.95604 5.45981 8.0743 5.46572C8.4217 5.4805 8.59613 5.5012 8.82526 6.04963C9.11057 6.73702 9.80535 8.43407 9.88813 8.6085C9.97239 8.78294 10.0567 9.01946 9.93839 9.24859C9.82752 9.48511 9.72996 9.59007 9.55552 9.79111C9.38109 9.99215 9.21552 10.1459 9.04109 10.3617C8.88143 10.5495 8.70109 10.7505 8.90213 11.0979C9.10317 11.4379 9.79796 12.5717 10.8209 13.4823C12.141 14.6575 13.2113 15.033 13.5941 15.1927C13.8794 15.3109 14.2194 15.2828 14.4279 15.0611C14.6925 14.7758 15.0192 14.3028 15.3518 13.8371C15.5883 13.503 15.8869 13.4616 16.2003 13.5799C16.5196 13.6908 18.2093 14.526 18.5567 14.6989C18.904 14.8734 19.1332 14.9562 19.2174 15.1025C19.3002 15.2488 19.3002 15.9362 19.0149 16.7434Z" fill="white"/>
</svg>
