<svg width="22" height="24" viewBox="0 0 22 24" fill="none" xmlns="http://www.w3.org/2000/svg">
<path d="M11.2444 0.043457C12.6933 0.157334 14.1688 0.131055 15.5824 0.420128C19.1694 1.15595 21.864 4.46715 21.9259 8.0937C21.9524 9.81062 22.0142 11.5538 21.8199 13.2532C21.387 17.0112 17.9148 20.0771 14.1069 20.1997C12.6933 20.2435 11.2797 20.226 9.86615 20.2172C9.53926 20.2172 9.31839 20.3136 9.09751 20.5414C8.11683 21.5312 7.13615 22.5123 6.12896 23.4759C5.9876 23.616 5.71372 23.7299 5.53702 23.6861C5.42216 23.6598 5.30731 23.3445 5.30731 23.1518C5.28964 22.0305 5.28964 20.9005 5.29848 19.7793C5.29848 19.534 5.2278 19.3938 4.99809 19.2712C2.05604 17.6419 0.571768 15.1453 0.536428 11.8078C0.518758 10.6516 0.518758 9.50403 0.527593 8.34773C0.589438 3.83644 4.15876 0.253692 8.71761 0.157334C9.55693 0.139815 10.3963 0.157334 11.2356 0.157334C11.2356 0.113535 11.2444 0.0784962 11.2444 0.043457ZM13.9832 17.2389C14.8314 17.2652 15.2113 17.1163 15.6619 16.6783C15.9976 16.3542 16.3333 16.0301 16.6602 15.6884C17.208 15.1103 17.1992 14.427 16.6514 13.8576C16.1301 13.3233 15.6089 12.7889 15.0788 12.2634C14.3985 11.5889 13.515 11.7378 13.0909 12.5875C12.711 13.3408 12.1102 13.5773 11.3416 13.2182C10.0959 12.64 9.16819 11.729 8.60275 10.4851C8.20518 9.6179 8.43489 9.09232 9.30072 8.68937C10.087 8.32146 10.2814 7.43672 9.68945 6.79725C9.14169 6.21035 8.57625 5.6322 7.99314 5.07157C7.44537 4.53723 6.73857 4.54599 6.18197 5.07157C5.82857 5.40445 5.50168 5.75484 5.14828 6.08771C4.77721 6.44686 4.55634 6.89361 4.62702 7.38416C4.7242 8.08494 4.82139 8.812 5.10411 9.45147C6.35867 12.2721 8.42605 14.4095 11.0059 16.0651C11.9689 16.6958 13.0026 17.1864 13.9832 17.2389ZM17.8883 8.9434C17.8706 6.55198 16.351 4.41459 14.0539 3.70505C13.3825 3.49481 12.6403 3.49481 11.9247 3.43349C11.801 3.42473 11.5978 3.59117 11.5448 3.71381C11.5006 3.81892 11.589 4.04668 11.695 4.11676C11.8098 4.20436 12.0042 4.1956 12.1544 4.1956C13.5768 4.20436 14.8137 4.65986 15.7856 5.71104C16.8811 6.90237 17.261 8.30394 16.9695 9.88946C16.9165 10.1698 16.9076 10.4501 17.261 10.5114C17.6144 10.5727 17.7116 10.3012 17.7558 10.0296C17.8088 9.6617 17.8441 9.30255 17.8883 8.9434ZM16.2715 8.84704C16.2538 7.14764 15.123 5.62344 13.4797 5.15917C12.9937 5.02778 12.4636 5.02778 11.96 5.0015C11.695 4.98398 11.5006 5.13289 11.536 5.43949C11.5713 5.70228 11.7568 5.79864 12.0131 5.78112C12.0572 5.78112 12.1014 5.77236 12.1456 5.77236C13.7094 5.70228 15.0611 6.71841 15.3968 8.23386C15.4675 8.54045 15.4675 8.87332 15.4675 9.18867C15.4764 9.45147 15.5294 9.67046 15.8298 9.68798C16.1567 9.7055 16.2538 9.48651 16.2627 9.20619C16.2715 9.08356 16.2715 8.96092 16.2715 8.84704ZM14.69 8.9434C14.6812 7.62067 13.5327 6.49942 12.3576 6.5695C12.1897 6.57826 11.9424 6.77097 11.907 6.91989C11.8364 7.19144 12.0484 7.30532 12.3311 7.34036C13.3206 7.463 13.7182 7.84843 13.8949 8.8558C13.9391 9.12736 14.0804 9.32007 14.3543 9.24123C14.5222 9.19743 14.637 8.99596 14.69 8.9434Z" fill="white"/>
</svg>
