<svg width="23" height="22" viewBox="0 0 23 22" fill="none" xmlns="http://www.w3.org/2000/svg">
<path d="M22.35 0.673383C22.1574 0.518844 21.8913 0.47883 21.6585 0.569897L0.870081 8.84876C0.613691 8.95087 0.441841 9.19509 0.434911 9.47105C0.427982 9.74702 0.585974 9.99952 0.838206 10.1154L7.36437 13.1151L21.9162 1.21013L10.1362 14.3887V21.2174L15.0533 16.6488L18.8534 18.3943C18.9463 18.4357 19.0461 18.4578 19.1445 18.4578C19.2553 18.4578 19.3676 18.4302 19.4674 18.3777C19.66 18.277 19.7917 18.0935 19.8277 17.881L22.5995 1.32327C22.6397 1.07905 22.5454 0.829302 22.35 0.673383Z" fill="white"/>
</svg>
