<svg width="677" height="519" viewBox="0 0 677 519" fill="none" xmlns="http://www.w3.org/2000/svg">
<path d="M601.537 118.77C610.078 118.77 617.001 111.846 617.001 103.305C617.001 94.7642 610.078 87.8403 601.537 87.8403C592.997 87.8403 586.074 94.7642 586.074 103.305C586.074 111.846 592.997 118.77 601.537 118.77Z" fill="url(#paint0_radial)"/>
<path d="M471.024 170.732C488.105 170.732 501.951 156.884 501.951 139.802C501.951 122.72 488.105 108.873 471.024 108.873C453.943 108.873 440.096 122.72 440.096 139.802C440.096 156.884 453.943 170.732 471.024 170.732Z" fill="url(#paint1_radial)"/>
<path d="M647.928 285.172C663.984 285.172 677 272.155 677 256.098C677 240.041 663.984 227.024 647.928 227.024C631.873 227.024 618.857 240.041 618.857 256.098C618.857 272.155 631.873 285.172 647.928 285.172Z" fill="url(#paint2_radial)"/>
<path d="M545.25 403.632C555.498 403.632 563.806 395.324 563.806 385.075C563.806 374.825 555.498 366.517 545.25 366.517C535.001 366.517 526.693 374.825 526.693 385.075C526.693 395.324 535.001 403.632 545.25 403.632Z" fill="url(#paint3_radial)"/>
<path d="M193.296 83.5101C201.837 83.5101 208.76 76.5863 208.76 68.0453C208.76 59.5043 201.837 52.5804 193.296 52.5804C184.756 52.5804 177.832 59.5043 177.832 68.0453C177.832 76.5863 184.756 83.5101 193.296 83.5101Z" fill="url(#paint4_radial)"/>
<path d="M405.149 21.6508C411.127 21.6508 415.973 16.8041 415.973 10.8254C415.973 4.84669 411.127 0 405.149 0C399.17 0 394.324 4.84669 394.324 10.8254C394.324 16.8041 399.17 21.6508 405.149 21.6508Z" fill="url(#paint5_radial)"/>
<path d="M595.352 519C601.33 519 606.176 514.153 606.176 508.174C606.176 502.196 601.33 497.349 595.352 497.349C589.374 497.349 584.527 502.196 584.527 508.174C584.527 514.153 589.374 519 595.352 519Z" fill="url(#paint6_radial)"/>
<path d="M139.483 303.111C156.563 303.111 170.41 289.263 170.41 272.181C170.41 255.099 156.563 241.251 139.483 241.251C122.402 241.251 108.555 255.099 108.555 272.181C108.555 289.263 122.402 303.111 139.483 303.111Z" fill="url(#paint7_radial)"/>
<path d="M94.3286 472.296C104.577 472.296 112.885 463.988 112.885 453.738C112.885 443.489 104.577 435.181 94.3286 435.181C84.0801 435.181 75.7722 443.489 75.7722 453.738C75.7722 463.988 84.0801 472.296 94.3286 472.296Z" fill="url(#paint8_radial)"/>
<path d="M15.4638 228.261C24.0042 228.261 30.9275 221.337 30.9275 212.796C30.9275 204.255 24.0042 197.331 15.4638 197.331C6.92345 197.331 0.00012207 204.255 0.00012207 212.796C0.00012207 221.337 6.92345 228.261 15.4638 228.261Z" fill="url(#paint9_radial)"/>
<defs>
<radialGradient id="paint0_radial" cx="0" cy="0" r="1" gradientUnits="userSpaceOnUse" gradientTransform="translate(601.447 103.246) scale(15.4637 15.4648)">
<stop offset="0.0858586" stop-color="#1BB0D4"/>
<stop offset="0.0975314" stop-color="#1B89B4" stop-opacity="0.7111"/>
<stop offset="0.1263" stop-color="#1B2B69" stop-opacity="0"/>
<stop offset="0.1594" stop-color="#172458" stop-opacity="0"/>
<stop offset="0.2234" stop-color="#10193D" stop-opacity="0"/>
<stop offset="0.2966" stop-color="#0A1026" stop-opacity="0"/>
<stop offset="0.3813" stop-color="#050915" stop-opacity="0"/>
<stop offset="0.4852" stop-color="#020409" stop-opacity="0"/>
<stop offset="0.6284" stop-color="#000102" stop-opacity="0"/>
<stop offset="1" stop-opacity="0"/>
</radialGradient>
<radialGradient id="paint1_radial" cx="0" cy="0" r="1" gradientUnits="userSpaceOnUse" gradientTransform="translate(471.127 139.699) scale(30.9274 30.9297)">
<stop offset="0.0858586" stop-color="#1BB0D4"/>
<stop offset="0.0975314" stop-color="#1B89B4" stop-opacity="0.7111"/>
<stop offset="0.1263" stop-color="#1B2B69" stop-opacity="0"/>
<stop offset="0.1594" stop-color="#172458" stop-opacity="0"/>
<stop offset="0.2234" stop-color="#10193D" stop-opacity="0"/>
<stop offset="0.2966" stop-color="#0A1026" stop-opacity="0"/>
<stop offset="0.3813" stop-color="#050915" stop-opacity="0"/>
<stop offset="0.4852" stop-color="#020409" stop-opacity="0"/>
<stop offset="0.6284" stop-color="#000102" stop-opacity="0"/>
<stop offset="1" stop-opacity="0"/>
</radialGradient>
<radialGradient id="paint2_radial" cx="0" cy="0" r="1" gradientUnits="userSpaceOnUse" gradientTransform="translate(647.928 256.201) scale(29.1753 29.1775)">
<stop offset="0.0858586" stop-color="#1BB0D4"/>
<stop offset="0.0975314" stop-color="#1B89B4" stop-opacity="0.7111"/>
<stop offset="0.1263" stop-color="#1B2B69" stop-opacity="0"/>
<stop offset="0.1594" stop-color="#172458" stop-opacity="0"/>
<stop offset="0.2234" stop-color="#10193D" stop-opacity="0"/>
<stop offset="0.2966" stop-color="#0A1026" stop-opacity="0"/>
<stop offset="0.3813" stop-color="#050915" stop-opacity="0"/>
<stop offset="0.4852" stop-color="#020409" stop-opacity="0"/>
<stop offset="0.6284" stop-color="#000102" stop-opacity="0"/>
<stop offset="1" stop-opacity="0"/>
</radialGradient>
<radialGradient id="paint3_radial" cx="0" cy="0" r="1" gradientUnits="userSpaceOnUse" gradientTransform="translate(545.353 385.075) scale(18.5564 18.5578)">
<stop offset="0.0858586" stop-color="#1BB0D4"/>
<stop offset="0.0975314" stop-color="#1B89B4" stop-opacity="0.7111"/>
<stop offset="0.1263" stop-color="#1B2B69" stop-opacity="0"/>
<stop offset="0.1594" stop-color="#172458" stop-opacity="0"/>
<stop offset="0.2234" stop-color="#10193D" stop-opacity="0"/>
<stop offset="0.2966" stop-color="#0A1026" stop-opacity="0"/>
<stop offset="0.3813" stop-color="#050915" stop-opacity="0"/>
<stop offset="0.4852" stop-color="#020409" stop-opacity="0"/>
<stop offset="0.6284" stop-color="#000102" stop-opacity="0"/>
<stop offset="1" stop-opacity="0"/>
</radialGradient>
<radialGradient id="paint4_radial" cx="0" cy="0" r="1" gradientUnits="userSpaceOnUse" gradientTransform="translate(193.206 68.1922) scale(15.4637 15.4648)">
<stop offset="0.0858586" stop-color="#1BB0D4"/>
<stop offset="0.0975314" stop-color="#1B89B4" stop-opacity="0.7111"/>
<stop offset="0.1263" stop-color="#1B2B69" stop-opacity="0"/>
<stop offset="0.1594" stop-color="#172458" stop-opacity="0"/>
<stop offset="0.2234" stop-color="#10193D" stop-opacity="0"/>
<stop offset="0.2966" stop-color="#0A1026" stop-opacity="0"/>
<stop offset="0.3813" stop-color="#050915" stop-opacity="0"/>
<stop offset="0.4852" stop-color="#020409" stop-opacity="0"/>
<stop offset="0.6284" stop-color="#000102" stop-opacity="0"/>
<stop offset="1" stop-opacity="0"/>
</radialGradient>
<radialGradient id="paint5_radial" cx="0" cy="0" r="1" gradientUnits="userSpaceOnUse" gradientTransform="translate(405.149 10.8254) scale(10.8246 10.8254)">
<stop offset="0.0858586" stop-color="#1BB0D4"/>
<stop offset="0.0975314" stop-color="#1B89B4" stop-opacity="0.7111"/>
<stop offset="0.1263" stop-color="#1B2B69" stop-opacity="0"/>
<stop offset="0.1594" stop-color="#172458" stop-opacity="0"/>
<stop offset="0.2234" stop-color="#10193D" stop-opacity="0"/>
<stop offset="0.2966" stop-color="#0A1026" stop-opacity="0"/>
<stop offset="0.3813" stop-color="#050915" stop-opacity="0"/>
<stop offset="0.4852" stop-color="#020409" stop-opacity="0"/>
<stop offset="0.6284" stop-color="#000102" stop-opacity="0"/>
<stop offset="1" stop-opacity="0"/>
</radialGradient>
<radialGradient id="paint6_radial" cx="0" cy="0" r="1" gradientUnits="userSpaceOnUse" gradientTransform="translate(595.352 508.277) scale(10.8246 10.8254)">
<stop offset="0.0858586" stop-color="#1BB0D4"/>
<stop offset="0.0975314" stop-color="#1B89B4" stop-opacity="0.7111"/>
<stop offset="0.1263" stop-color="#1B2B69" stop-opacity="0"/>
<stop offset="0.1594" stop-color="#172458" stop-opacity="0"/>
<stop offset="0.2234" stop-color="#10193D" stop-opacity="0"/>
<stop offset="0.2966" stop-color="#0A1026" stop-opacity="0"/>
<stop offset="0.3813" stop-color="#050915" stop-opacity="0"/>
<stop offset="0.4852" stop-color="#020409" stop-opacity="0"/>
<stop offset="0.6284" stop-color="#000102" stop-opacity="0"/>
<stop offset="1" stop-opacity="0"/>
</radialGradient>
<radialGradient id="paint7_radial" cx="0" cy="0" r="1" gradientUnits="userSpaceOnUse" gradientTransform="translate(139.598 272.328) scale(30.9274 30.9297)">
<stop offset="0.0858586" stop-color="#1BB0D4"/>
<stop offset="0.0975314" stop-color="#1B89B4" stop-opacity="0.7111"/>
<stop offset="0.1263" stop-color="#1B2B69" stop-opacity="0"/>
<stop offset="0.1594" stop-color="#172458" stop-opacity="0"/>
<stop offset="0.2234" stop-color="#10193D" stop-opacity="0"/>
<stop offset="0.2966" stop-color="#0A1026" stop-opacity="0"/>
<stop offset="0.3813" stop-color="#050915" stop-opacity="0"/>
<stop offset="0.4852" stop-color="#020409" stop-opacity="0"/>
<stop offset="0.6284" stop-color="#000102" stop-opacity="0"/>
<stop offset="1" stop-opacity="0"/>
</radialGradient>
<radialGradient id="paint8_radial" cx="0" cy="0" r="1" gradientUnits="userSpaceOnUse" gradientTransform="translate(94.238 453.782) scale(18.5564 18.5578)">
<stop offset="0.0858586" stop-color="#1BB0D4"/>
<stop offset="0.0975314" stop-color="#1B89B4" stop-opacity="0.7111"/>
<stop offset="0.1263" stop-color="#1B2B69" stop-opacity="0"/>
<stop offset="0.1594" stop-color="#172458" stop-opacity="0"/>
<stop offset="0.2234" stop-color="#10193D" stop-opacity="0"/>
<stop offset="0.2966" stop-color="#0A1026" stop-opacity="0"/>
<stop offset="0.3813" stop-color="#050915" stop-opacity="0"/>
<stop offset="0.4852" stop-color="#020409" stop-opacity="0"/>
<stop offset="0.6284" stop-color="#000102" stop-opacity="0"/>
<stop offset="1" stop-opacity="0"/>
</radialGradient>
<radialGradient id="paint9_radial" cx="0" cy="0" r="1" gradientUnits="userSpaceOnUse" gradientTransform="translate(15.4638 212.899) scale(15.4637 15.4648)">
<stop offset="0.0858586" stop-color="#1BB0D4"/>
<stop offset="0.0975314" stop-color="#1B89B4" stop-opacity="0.7111"/>
<stop offset="0.1263" stop-color="#1B2B69" stop-opacity="0"/>
<stop offset="0.1594" stop-color="#172458" stop-opacity="0"/>
<stop offset="0.2234" stop-color="#10193D" stop-opacity="0"/>
<stop offset="0.2966" stop-color="#0A1026" stop-opacity="0"/>
<stop offset="0.3813" stop-color="#050915" stop-opacity="0"/>
<stop offset="0.4852" stop-color="#020409" stop-opacity="0"/>
<stop offset="0.6284" stop-color="#000102" stop-opacity="0"/>
<stop offset="1" stop-opacity="0"/>
</radialGradient>
</defs>
</svg>
