<svg width="1920" height="707" viewBox="0 0 1920 707" fill="none" xmlns="http://www.w3.org/2000/svg">
<path d="M156 325C72.2475 331.443 22.0002 383 -11.9998 447C-46.4351 507 -21.9999 777 2.00013 689C26.0001 601 56.0002 375 156 363C292 346.68 310 611 460 611C610 611 596.375 315 780 287C906 267.787 982 365 1062 421C1142 477 1234 557 1448 477C1634 407.467 1718 533 1846 597C1974 661 1946 477 1948 381C1950 285 2006 -11 1706 1.00001C1406 13 1462 269 1234 307C1116.66 326.557 1018 219 780 251C542 283 520 461 430 459C340 457 286 315 156 325Z" fill="#201D52"/>
</svg>
