<svg width="62" height="131" viewBox="0 0 62 131" fill="none" xmlns="http://www.w3.org/2000/svg">
<path d="M0 0L52.1505 26.5963L56.6605 117.91L7.41304 131L0 0Z" fill="#00379F"/>
<path d="M19.0251 118.953L19.1288 122.76L20.5803 122.395V123.282L18.5067 123.803L18.403 119.058L19.0251 118.953Z" fill="#58FFFE"/>
<path d="M21.0987 119.684C21.2542 119.266 21.4097 118.954 21.6689 118.693C21.9281 118.432 22.1873 118.276 22.4465 118.171C22.7057 118.119 23.0167 118.171 23.2241 118.328C23.4833 118.484 23.6906 118.745 23.8462 119.058C24.0017 119.371 24.1054 119.736 24.1054 120.153C24.1054 120.57 24.0535 120.987 23.898 121.352C23.7425 121.717 23.587 122.083 23.3278 122.343C23.0686 122.604 22.8094 122.76 22.5502 122.865C22.2391 122.917 21.9799 122.917 21.7726 122.76C21.5134 122.604 21.306 122.395 21.2023 122.03C21.0468 121.717 20.995 121.352 20.9431 120.883C20.8913 120.466 20.9431 120.049 21.0987 119.684ZM21.6689 121.457C21.7726 121.665 21.8763 121.822 22.0318 121.926C22.1873 122.03 22.3428 122.03 22.5502 121.978C22.7057 121.926 22.8612 121.822 23.0167 121.665C23.1722 121.509 23.2759 121.3 23.3278 121.04C23.3796 120.779 23.4314 120.57 23.4314 120.257C23.4314 119.997 23.3796 119.736 23.2759 119.527C23.1722 119.319 23.0686 119.162 22.913 119.058C22.7575 118.954 22.602 118.954 22.4465 118.954C22.291 119.006 22.1355 119.11 21.9799 119.266C21.8244 119.423 21.7207 119.631 21.6689 119.892C21.5652 120.153 21.5652 120.414 21.5652 120.674C21.5134 120.987 21.5652 121.248 21.6689 121.457Z" fill="#58FFFE"/>
<path d="M26.3863 121.769L25.7124 120.518L25.2977 120.622L25.3495 122.03L24.7275 122.187L24.6238 117.702L25.5569 117.493C25.9198 117.389 26.2308 117.493 26.4382 117.702C26.6455 117.91 26.7492 118.275 26.801 118.693C26.801 118.953 26.7492 119.214 26.6974 119.475C26.6455 119.736 26.49 119.944 26.3345 120.101L27.1121 121.509L26.3863 121.769ZM25.2459 119.788L25.6606 119.683C25.8161 119.631 25.9198 119.527 26.0234 119.371C26.0753 119.214 26.1271 119.058 26.1271 118.901C26.1271 118.745 26.0753 118.588 26.0234 118.484C25.9716 118.328 25.8161 118.328 25.6606 118.328L25.2459 118.432V119.788Z" fill="#58FFFE"/>
<path d="M29.6003 116.659V117.493L28.097 117.806V118.745L29.4448 118.432V119.266L28.097 119.579V120.518L29.6522 120.153V120.987L27.4749 121.561L27.3712 117.18L29.6003 116.659Z" fill="#58FFFE"/>
<path d="M33.4883 115.668L33.592 119.996L32.9699 120.153L32.918 118.171L31.9331 120.361L30.8963 118.745L30.9481 120.622L30.3779 120.779L30.2742 116.346L31.9331 119.058L33.4883 115.668Z" fill="#58FFFE"/>
<path d="M36.2358 115.199L36.3395 119.214L35.7174 119.371L35.6137 115.303L36.2358 115.199Z" fill="#58FFFE"/>
<path d="M38.8796 115.042C39.087 115.251 39.1907 115.512 39.1907 115.929C39.1907 116.19 39.1907 116.398 39.087 116.607C39.0351 116.815 38.9315 117.024 38.7759 117.18C38.6204 117.337 38.4131 117.441 38.1539 117.545L37.7392 117.65L37.791 118.901L37.1689 119.058L37.0652 115.042L37.9984 114.834C38.3612 114.781 38.6204 114.834 38.8796 115.042ZM38.4131 116.607C38.4649 116.502 38.5168 116.45 38.5686 116.346C38.6204 116.242 38.6204 116.137 38.6204 116.085C38.6204 115.929 38.5686 115.824 38.5168 115.72C38.4649 115.616 38.3094 115.564 38.1539 115.616L37.7392 115.72L37.791 116.92L38.2057 116.815C38.2576 116.763 38.3094 116.711 38.4131 116.607Z" fill="#58FFFE"/>
<path d="M40.694 114.938C40.5385 114.99 40.4348 115.042 40.3829 115.094C40.3311 115.199 40.2793 115.303 40.2793 115.407C40.2793 115.512 40.3311 115.616 40.4348 115.72C40.5385 115.772 40.694 115.824 40.8495 115.877C41.005 115.929 41.1087 115.981 41.2124 116.033C41.316 116.085 41.4197 116.189 41.4716 116.346C41.5234 116.502 41.5752 116.659 41.5752 116.867C41.5752 117.076 41.5234 117.232 41.4716 117.441C41.3679 117.65 41.2642 117.806 41.1087 117.91C40.9532 118.067 40.7458 118.171 40.5385 118.223C40.3311 118.275 40.1756 118.275 39.9682 118.275C39.7609 118.275 39.6053 118.171 39.4498 118.067L39.709 117.389C39.8127 117.441 39.9164 117.493 40.0719 117.545C40.2274 117.598 40.3311 117.598 40.4348 117.545C40.5385 117.493 40.694 117.441 40.7458 117.337C40.8495 117.232 40.9013 117.128 40.9013 116.972C40.9013 116.763 40.7458 116.659 40.4348 116.555C40.2793 116.502 40.1237 116.45 39.9682 116.398C39.8645 116.346 39.7609 116.242 39.6572 116.137C39.5535 115.981 39.5017 115.824 39.5017 115.616C39.5017 115.303 39.5535 114.99 39.7609 114.729C39.9164 114.469 40.1756 114.312 40.4348 114.26C40.6421 114.208 40.8495 114.208 41.005 114.26C41.1605 114.312 41.316 114.364 41.4716 114.416L41.2642 115.042C41.1087 114.938 40.8495 114.938 40.694 114.938Z" fill="#58FFFE"/>
<path d="M42.8712 116.607C42.9231 116.711 43.0268 116.763 43.1304 116.815C43.2341 116.867 43.3378 116.867 43.4415 116.867C43.5452 116.815 43.6488 116.763 43.7525 116.711C43.8562 116.607 43.908 116.502 43.9599 116.398C44.0117 116.294 44.0636 116.137 44.0117 116.033L43.9599 113.686L44.5819 113.582L44.6338 115.929C44.6338 116.19 44.5819 116.45 44.4783 116.711C44.3746 116.972 44.2191 117.18 44.0117 117.337C43.8044 117.493 43.597 117.598 43.3896 117.65C43.1823 117.702 42.9231 117.702 42.7676 117.598C42.5602 117.545 42.4047 117.389 42.301 117.18C42.1973 116.972 42.1455 116.763 42.0936 116.502L42.0418 114.104L42.6639 113.999L42.7157 116.398C42.7676 116.398 42.8194 116.502 42.8712 116.607Z" fill="#58FFFE"/>
<path d="M48.5217 112.539L48.6254 116.242L48.0033 116.398L47.9515 114.677L46.9665 116.555L45.9298 115.199L45.9816 116.815L45.4114 116.972L45.3077 113.165L46.9665 115.459L48.5217 112.539Z" fill="#58FFFE"/>
<path d="M50.2324 72.0708L9.79763 69.4112L9.74579 68.7333L50.1806 71.6015L50.2324 72.0708Z" fill="#58FFFE"/>
<path d="M50.699 80.4148L10.5234 80.3105L10.4716 79.6847L50.6471 79.8933L50.699 80.4148Z" fill="#58FFFE"/>
<path d="M50.3879 75.3562L10.0568 73.6874V73.0616L50.3879 74.8347V75.3562Z" fill="#58FFFE"/>
<path d="M21.4097 72.3317L9.95315 71.758L9.90131 71.0801L21.4097 71.7059V72.3317Z" fill="#58FFFE"/>
<path d="M13.6337 78.6938L10.4197 78.6417L10.3679 78.0159L13.5819 78.068L13.6337 78.6938Z" fill="#58FFFE"/>
<path d="M37.9983 79.0589L34.7324 79.0068V78.4331L37.9465 78.4853L37.9983 79.0589Z" fill="#58FFFE"/>
<path d="M39.8127 73.3224L21.7726 72.3316V71.7579L39.7609 72.7488L39.8127 73.3224Z" fill="#58FFFE"/>
<path d="M38.5686 77.7551L20.6321 77.338L20.5803 76.7122L38.5686 77.1815V77.7551Z" fill="#58FFFE"/>
<path d="M32.9699 78.9547L15.0334 78.6939L14.9816 78.0681L32.918 78.3289L32.9699 78.9547Z" fill="#58FFFE"/>
<path d="M50.4398 76.5036L32.5033 75.93L32.4515 75.3563L50.4398 75.9821V76.5036Z" fill="#58FFFE"/>
<path d="M50.7508 81.8228L10.627 82.1878L10.5752 81.5099L50.7508 81.3013V81.8228Z" fill="#58FFFE"/>
<path d="M51.2174 90.1668L11.3528 93.0871V92.4613L51.2174 89.6453V90.1668Z" fill="#58FFFE"/>
<path d="M50.9581 85.1083L10.9381 86.4642L10.8862 85.7862L50.9063 84.5868L50.9581 85.1083Z" fill="#58FFFE"/>
<path d="M22.1872 84.2217L10.7826 84.4825L10.7307 83.8567L22.1354 83.5959L22.1872 84.2217Z" fill="#58FFFE"/>
<path d="M14.4632 91.2098L11.2491 91.4184L11.1973 90.7404L14.4113 90.584L14.4632 91.2098Z" fill="#58FFFE"/>
<path d="M38.6204 89.7495L35.4063 89.9581L35.3545 89.3845L38.5685 89.1759L38.6204 89.7495Z" fill="#58FFFE"/>
<path d="M40.4347 83.8046L22.5501 84.2218L22.4983 83.596L40.3829 83.2831L40.4347 83.8046Z" fill="#58FFFE"/>
<path d="M39.2424 88.3937L21.4096 89.3324L21.3578 88.7066L39.1906 87.8201L39.2424 88.3937Z" fill="#58FFFE"/>
<path d="M33.6438 90.0104L15.8629 91.1577L15.811 90.4798L33.592 89.4368L33.6438 90.0104Z" fill="#58FFFE"/>
<path d="M51.01 86.2555L33.1772 86.9856L33.1254 86.412L50.9581 85.734L51.01 86.2555Z" fill="#58FFFE"/>
<path d="M3.62878 10.0649L49.6104 30.299L51.2174 66.4387L6.68731 61.641L3.62878 10.0649Z" fill="#58FFFE"/>
<path d="M17.107 8.13525L58.4749 28.7865L62 63.8833L21.5133 58.9812L17.107 8.13525Z" fill="url(#paint0_radial)"/>
<path opacity="0.5" d="M18.8177 9.90833L19.3879 17.2614L58.112 33.3757L57.5936 28.8387L18.8177 9.90833Z" fill="#58FFFE"/>
<path d="M17.107 8.13525L16.5886 8.55245L20.3211 59.7634L21.5134 58.9812L17.107 8.13525Z" fill="#58FFFE"/>
<path d="M57.801 30.5597L19.0251 12.7245L18.9214 11.4729L57.6973 29.621L57.801 30.5597Z" fill="#58FFFE"/>
<path d="M59.2006 45.2659L20.7358 33.2715L20.6321 32.0199L59.097 44.3794L59.2006 45.2659Z" fill="#58FFFE"/>
<path d="M58.3194 36.3482L19.699 20.8076L19.5953 19.556L58.2675 35.4095L58.3194 36.3482Z" fill="#58FFFE"/>
<path d="M30.3779 21.7986L19.388 17.1051L19.2843 15.8535L30.2743 20.6513L30.3779 21.7986Z" fill="#58FFFE"/>
<path d="M23.5869 31.1855L20.4765 30.1425L20.3729 28.8909L23.4832 29.9339L23.5869 31.1855Z" fill="#58FFFE"/>
<path d="M46.9147 39.1122L43.8043 38.0692L43.7006 37.0262L46.811 38.0692L46.9147 39.1122Z" fill="#58FFFE"/>
<path d="M48.0033 29.3603L30.7408 21.955L30.6371 20.8077L47.8996 28.3694L48.0033 29.3603Z" fill="#58FFFE"/>
<path d="M47.3294 36.9219L30.1187 30.8204L30.015 29.621L47.2257 35.8789L47.3294 36.9219Z" fill="#58FFFE"/>
<path d="M42.0936 37.3913L24.8829 31.6026L24.7792 30.4032L41.9899 36.2961L42.0936 37.3913Z" fill="#58FFFE"/>
<path d="M58.5267 38.33L41.316 31.7592L41.2123 30.7162L58.423 37.4435L58.5267 38.33Z" fill="#58FFFE"/>
<path d="M59.4598 47.7691L20.995 36.8177L20.8913 35.5139L59.3562 46.8825L59.4598 47.7691Z" fill="#58FFFE"/>
<path d="M60.8595 62.5274L22.7057 57.3646L22.602 56.113L60.7558 61.6409L60.8595 62.5274Z" fill="#58FFFE"/>
<path d="M59.9782 53.5576L21.6689 44.8486L21.5652 43.597L59.9264 52.6711L59.9782 53.5576Z" fill="#58FFFE"/>
<path d="M32.296 43.9101L21.3578 41.1461L21.2542 39.8945L32.1923 42.7628L32.296 43.9101Z" fill="#58FFFE"/>
<path d="M25.505 54.705L22.4465 54.1835L22.3428 52.9319L25.4014 53.4534L25.505 54.705Z" fill="#58FFFE"/>
<path d="M48.6772 58.4597L45.5669 57.9904L45.4632 56.9474L48.5736 57.4689L48.6772 58.4597Z" fill="#58FFFE"/>
<path d="M49.7659 48.3427L32.607 44.0142L32.5552 42.8669L49.6622 47.3518L49.7659 48.3427Z" fill="#58FFFE"/>
<path d="M49.092 56.1652L32.0368 53.0883L31.9331 51.941L48.9883 55.1743L49.092 56.1652Z" fill="#58FFFE"/>
<path d="M43.8562 57.6254L26.8528 54.9136L26.7491 53.662L43.8043 56.5302L43.8562 57.6254Z" fill="#58FFFE"/>
<path d="M60.1856 55.5915L43.1304 52.0453L43.0267 51.0023L60.1338 54.7049L60.1856 55.5915Z" fill="#58FFFE"/>
<path d="M61.3779 34.7316L54.8461 31.7069L54.0685 22.7372L60.8595 27.6393L61.3779 34.7316Z" fill="#A92FE5"/>
<path d="M59.8746 32.5414C59.7191 32.6457 59.408 32.4892 59.2007 32.2285L55.6756 26.4399C55.4682 26.0748 55.4164 25.7098 55.6238 25.6055C55.7793 25.5012 56.0903 25.7098 56.2977 26.0748L59.8228 31.8634C60.0301 32.1242 60.0301 32.4371 59.8746 32.5414Z" fill="white"/>
<path d="M59.5636 28.1609C59.7709 28.4738 59.7709 28.8388 59.6154 28.891L56.7124 30.8727C56.5569 31.0291 56.2458 30.8727 56.0385 30.5598C55.8311 30.2469 55.8311 29.8297 55.9866 29.7254L58.8897 27.7437C59.0452 27.6394 59.3562 27.848 59.5636 28.1609Z" fill="white"/>
<defs>
<radialGradient id="paint0_radial" cx="0" cy="0" r="1" gradientUnits="userSpaceOnUse" gradientTransform="translate(39.5408 36.006) rotate(-4.73589) scale(25.3403 26.2441)">
<stop offset="0.00907452" stop-opacity="0.1"/>
<stop offset="1" stop-color="#02B3C4"/>
</radialGradient>
</defs>
</svg>
